<svg id="Layer_1" data-name="Layer 1" xmlns="http://www.w3.org/2000/svg" viewBox="0 0 88.1 256.1"><defs><style>.cls-1,.cls-2,.cls-3,.cls-5{fill:none;stroke-miterlimit:10;}.cls-1,.cls-3,.cls-5{stroke:#666;}.cls-1{stroke-width:0.1px;}.cls-2{stroke:#ed1c24;}.cls-2,.cls-5{stroke-width:0.08px;}.cls-3{stroke-width:0.15px;}.cls-4{fill:#666;}</style></defs><title>cartier</title><path class="cls-1" d="M148,244c-2.05,6.87-10.22,12-20,12s-18-5.13-20-12h-4V176h48v68Z" transform="translate(-87.95 0.05)"/><path class="cls-1" d="M148,12C146,5.13,137.78,0,128,0s-18,5.13-20,12h-4V80h48V12Z" transform="translate(-87.95 0.05)"/><path class="cls-1" d="M152,64h8c4.4,0,8,4.5,8,10V182c0,5.5-3.6,10-8,10h-8" transform="translate(-87.95 0.05)"/><path class="cls-1" d="M104,192H96c-4.4,0-8-4.5-8-10V74c0-5.5,3.6-10,8-10h8" transform="translate(-87.95 0.05)"/><path class="cls-1" d="M104,192H96c-4.4,0-8-4.5-8-10V74c0-5.5,3.6-10,8-10h8" transform="translate(-87.95 0.05)"/><path class="cls-1" d="M152,68h6c3.3,0,6,4.5,6,10V178c0,5.5-2.7,10-6,10h-6" transform="translate(-87.95 0.05)"/><path class="cls-1" d="M104,188H98c-3.3,0-6-4.5-6-10V78c0-5.5,2.7-10,6-10h6" transform="translate(-87.95 0.05)"/><rect class="cls-1" x="27.09" y="109.05" width="26" height="38"/><rect class="cls-1" x="25.09" y="107.05" width="30" height="42"/><rect class="cls-1" x="11.09" y="93.05" width="58" height="70" rx="1.5" ry="1.5"/><rect class="cls-1" x="10.09" y="92.05" width="60" height="72" rx="1.5" ry="1.5"/><path class="cls-1" d="M106,240" transform="translate(-87.95 0.05)"/><path class="cls-1" d="M108,242" transform="translate(-87.95 0.05)"/><rect x="35.03" y="103.25" width="1.22" height="0.3"/><rect x="52.06" y="103.25" width="3.04" height="0.3"/><rect x="142.84" y="114.29" width="6.6" height="0.3" transform="translate(-56.26 260.62) rotate(-90)"/><rect x="141.72" y="124.55" width="8.83" height="0.3" transform="translate(-66.52 270.89) rotate(-90)"/><rect x="148.62" y="124.55" width="8.83" height="0.3" transform="translate(-59.62 277.79) rotate(-90)"/><rect x="149.63" y="110.23" width="6.6" height="0.3" transform="translate(-45.4 263.36) rotate(-90)"/><polygon points="36.14 103.25 35.53 103.25 37.56 100.41 37.77 100.92 36.14 103.25"/><rect x="128.15" y="96.1" width="6.6" height="0.3" transform="translate(174.95 192.55) rotate(-180)"/><rect x="144.07" y="96.1" width="3.35" height="0.3" transform="translate(203.54 192.55) rotate(-180)"/><rect x="126.33" y="103.2" width="8.42" height="0.3" transform="translate(173.12 206.75) rotate(-180)"/><rect x="122.77" y="96.1" width="3.15" height="0.3" transform="translate(160.74 192.55) rotate(-180)"/><polygon points="40.3 96.45 40.91 96.45 38.88 99.29 38.68 98.78 40.3 96.45"/><polygon points="37.56 96.45 35.64 96.45 38.88 103.25 40.91 103.25 37.56 96.45"/><rect x="41.72" y="96.45" width="1.83" height="6.8"/><polygon points="33.4 151.83 31.58 154.37 31.58 158.93 33.4 158.93 33.4 151.83"/><polygon points="21.75 125.59 21.74 126.2 18.92 124.15 19.43 123.89 21.75 125.59"/><polygon points="15.08 121.28 15.09 120.67 17.91 122.72 17.5 122.98 15.08 121.28"/><polygon points="15.17 124.14 15.17 126.07 21.56 122.82 21.56 120.8 15.17 124.14"/><polygon points="15.17 135.25 15.17 137.18 21.56 133.63 21.56 131.65 15.17 135.25"/><polygon points="15.17 138.3 15.17 140.23 21.56 136.68 21.56 134.7 15.17 138.3"/><polygon points="15.17 141.44 15.17 143.37 21.56 139.82 21.56 137.84 15.17 141.44"/><rect x="105.45" y="124.55" width="1.83" height="6.49" transform="translate(146.21 21.48) rotate(90)"/><rect x="148.67" y="118.72" width="1.83" height="6.6" transform="translate(183.65 -27.52) rotate(90)"/><rect x="148.67" y="121.46" width="1.83" height="6.6" transform="translate(186.39 -24.78) rotate(90)"/><rect x="148.67" y="124.19" width="1.83" height="6.6" transform="translate(189.13 -22.04) rotate(90)"/><rect x="44.57" y="96.45" width="1.83" height="6.8"/><polygon points="58.55 96.45 56.63 96.45 52.67 103.25 54.8 103.25 58.55 96.45"/><rect x="113.15" y="103.2" width="6.8" height="0.3" transform="translate(145.15 206.75) rotate(-180)"/><rect x="112.32" y="151.78" width="6.6" height="0.3" transform="translate(143.29 303.91) rotate(-180)"/><rect x="108.26" y="158.68" width="6.9" height="0.3" transform="translate(135.48 317.71) rotate(-180)"/><rect x="118.92" y="158.68" width="3.04" height="0.3" transform="translate(152.93 317.71) rotate(-180)"/><rect x="144.29" y="158.68" width="4.06" height="0.3" transform="translate(204.68 317.71) rotate(-180)"/><rect x="140.23" y="158.68" width="1.32" height="0.3" transform="translate(193.82 317.71) rotate(-180)"/><polygon points="31.58 154.37 33.4 151.83 33.1 151.83 30.87 154.67 31.58 154.37"/><rect x="109.7" y="103.2" width="1.42" height="0.3" transform="translate(132.87 206.75) rotate(-180)"/><rect x="108.95" y="118.08" width="1.42" height="0.3" transform="translate(-96.52 227.94) rotate(-90)"/><rect x="108.14" y="121.56" width="3.04" height="0.3" transform="translate(-100 231.42) rotate(-90)"/><rect x="107.63" y="127.24" width="4.06" height="0.3" transform="translate(-105.68 237.1) rotate(-90)"/><rect x="104.94" y="135.31" width="9.44" height="0.3" transform="translate(-113.74 245.17) rotate(-90)"/><rect x="97.79" y="139.72" width="10.35" height="0.3" transform="translate(-124.86 242.89) rotate(-90)"/><rect x="100.99" y="148.6" width="3.96" height="0.3" transform="translate(-133.73 251.77) rotate(-90)"/><rect x="100.02" y="126.33" width="5.89" height="0.3" transform="translate(-111.46 229.49) rotate(-90)"/><rect x="102.26" y="120.64" width="1.42" height="0.3" transform="translate(-105.78 223.81) rotate(-90)"/><rect x="108.24" y="112.9" width="2.84" height="0.3" transform="translate(-91.34 222.77) rotate(-90)"/><rect x="101.55" y="113.41" width="2.84" height="0.3" transform="translate(-98.55 216.58) rotate(-90)"/><rect x="102.1" y="108.29" width="1.72" height="0.3" transform="translate(-93.42 211.45) rotate(-90)"/><rect x="23.88" y="96.15" width="4.06" height="0.3"/><rect x="17.89" y="96.15" width="4.06" height="0.3"/><polygon points="25.3 96.45 27.23 96.45 31.19 103.25 29.05 103.25 25.3 96.45"/><polygon points="21.24 96.45 18.91 96.45 25.5 103.25 28.24 103.25 21.24 96.45"/><polygon points="24.79 96.35 24.29 96.45 22.46 103.25 22.97 103.25 24.79 96.35"/><polygon points="15.17 108.44 15.17 109.15 21.56 118.48 21.56 117.67 15.17 108.44"/><polygon points="15.17 112.6 15.17 114.42 21.56 114.12 21.56 112.09 15.17 112.6"/><polygon points="18.72 143.98 21.87 143.17 15.17 149.76 15.17 147.23 18.72 143.98"/><polygon points="21.87 142.87 21.87 143.22 15.17 144.89 15.17 144.18 21.87 142.87"/><polygon points="64.83 113.32 64.83 111.19 58.34 114.95 58.34 116.97 64.83 113.32"/><polygon points="64.83 110.08 64.83 107.94 58.34 111.7 58.34 113.73 64.83 110.08"/><rect x="139.74" y="136.88" width="12.79" height="0.3" transform="translate(195.21 -9.05) rotate(90)"/><rect x="146.64" y="140.84" width="12.58" height="0.3" transform="translate(205.97 -11.89) rotate(90)"/><polygon points="64.83 135.15 64.83 137.28 58.34 133.53 58.34 131.5 64.83 135.15"/><polygon points="64.83 138.4 64.83 140.53 58.34 136.78 58.34 134.75 64.83 138.4"/><polygon points="64.83 141.24 64.83 143.37 58.34 139.62 58.34 137.59 64.83 141.24"/><polygon points="64.83 144.49 64.83 146.62 58.34 142.87 58.34 140.84 64.83 144.49"/><polygon points="27.01 152.13 24.88 152.13 21.13 158.83 23.26 158.83 27.01 152.13"/><polygon points="30.16 152.13 28.03 152.13 24.27 158.83 26.4 158.83 30.16 152.13"/><polyline points="31.58 154.37 31.27 154.77 30.87 154.67"/><polygon points="52.38 151.93 52.48 154.06 57.05 158.73 59.48 158.73 52.38 151.93"/><polygon points="52.38 151.93 52.18 151.93 52.68 158.73 53.09 158.73 52.38 151.93"/><rect x="125.58" y="158.68" width="4.14" height="0.3" transform="translate(167.36 317.71) rotate(-180)"/><rect x="132.13" y="158.68" width="3.32" height="0.3" transform="translate(179.62 317.71) rotate(-180)"/><rect x="125.58" y="151.63" width="4.14" height="0.3" transform="translate(167.36 303.61) rotate(-180)"/><polygon points="44.06 151.71 43.02 154.02 44.81 158.73 46.7 158.73 44.06 151.71"/><rect x="38.15" y="151.93" width="1.83" height="6.8"/><polygon points="43.16 154.37 43.02 154.02 41.15 158.73 41.46 158.73 43.16 154.37"/><path d="M116.9,158.91a.4.4,0,0,1-.3-.08.44.44,0,0,1-.2-.23.3.3,0,0,1,0-.27.29.29,0,0,1,.17-.14.3.3,0,0,1,.21,0l0,.08a.26.26,0,0,0-.15,0,.26.26,0,0,0-.11.1.21.21,0,0,0,0,.19.36.36,0,0,0,.17.18.43.43,0,0,0,.23.07.23.23,0,0,0,.16-.11.25.25,0,0,0,0-.14.17.17,0,0,0,0-.12l0-.08a.21.21,0,0,1,.09.17.34.34,0,0,1-.05.22A.3.3,0,0,1,116.9,158.91Z" transform="translate(-87.95 0.05)"/><path d="M117.63,157.91l-.12,0-.11,0-.17.26.15.19,0,.08-.51-.65.05-.08.81.17Zm-.68-.14.08.1.07.09.08.1.13-.22-.36-.07Z" transform="translate(-87.95 0.05)"/><path d="M117.54,157.47l.13.08.13.08,0,.08-.66-.41.15-.25a.23.23,0,0,1,.33-.09.26.26,0,0,1,.1.11.23.23,0,0,1,0,.14l.37,0-.06.09-.35,0Zm-.33-.2.09,0,.08.05.09,0,.1-.16a.17.17,0,0,0,0-.12.11.11,0,0,0-.07-.09.15.15,0,0,0-.11,0,.15.15,0,0,0-.1.08Z" transform="translate(-87.95 0.05)"/><path d="M118.28,156.84l0,0,0,0-.58-.36-.13.21-.08-.05.31-.5.08,0-.13.21Z" transform="translate(-87.95 0.05)"/><path d="M118.54,156.42s0,0,0,0l0,0-.66-.4,0-.08Z" transform="translate(-87.95 0.05)"/><path d="M118.82,155.8l0,0a.05.05,0,0,0,0,0l-.25.41-.66-.4.25-.41.07,0-.2.33.21.13.19-.31.08.05-.19.31.22.13Z" transform="translate(-87.95 0.05)"/><path d="M118.78,155.45l.13.08.13.08-.05.09-.66-.41.15-.25a.22.22,0,0,1,.15-.12.2.2,0,0,1,.18,0,.21.21,0,0,1,.1.11.22.22,0,0,1,0,.14h.37l-.06.1-.35,0Zm-.33-.2.09.06.08,0,.09.06.1-.16a.19.19,0,0,0,0-.12.17.17,0,0,0-.07-.1.15.15,0,0,0-.11,0,.19.19,0,0,0-.1.08Z" transform="translate(-87.95 0.05)"/><line class="cls-2" x1="40.91" y1="109.05" x2="42.16" y2="109.05"/><line class="cls-2" x1="42.16" y1="109.05" x2="43.41" y2="109.05"/><line class="cls-2" x1="43.41" y1="109.05" x2="44.66" y2="109.05"/><line class="cls-2" x1="44.66" y1="109.05" x2="45.91" y2="109.05"/><line class="cls-2" x1="39.16" y1="109.05" x2="37.91" y2="109.05"/><line class="cls-2" x1="37.91" y1="109.05" x2="36.66" y2="109.05"/><line class="cls-2" x1="36.66" y1="109.05" x2="35.41" y2="109.05"/><line class="cls-2" x1="29.97" y1="149.05" x2="28.72" y2="149.05"/><line class="cls-3" x1="42.08" y1="147.05" x2="42.25" y2="149.05"/><line class="cls-3" x1="43.15" y1="147.05" x2="43.68" y2="149.05"/><line class="cls-3" x1="44.12" y1="147.05" x2="45.2" y2="149.05"/><line class="cls-3" x1="45.18" y1="147.05" x2="46.65" y2="149.05"/><line class="cls-3" x1="38" y1="147.05" x2="37.83" y2="149.05"/><line class="cls-3" x1="36.93" y1="147.05" x2="36.4" y2="149.05"/><line class="cls-3" x1="35.95" y1="147.05" x2="34.87" y2="149.05"/><line class="cls-3" x1="34.9" y1="147.05" x2="33.43" y2="149.05"/><line class="cls-3" x1="28.8" y1="147" x2="26.8" y2="149"/><line class="cls-2" x1="50.13" y1="149.05" x2="51.38" y2="149.05"/><line class="cls-3" x1="51.3" y1="147" x2="53.3" y2="149"/><line class="cls-2" x1="35.41" y1="109.05" x2="34.16" y2="109.05"/><rect class="cls-4" x="39.18" y="147.05" width="1.75" height="2"/><polygon class="cls-4" points="31.32 149.05 29.57 149.05 31.57 147.05 33.33 147.05 31.32 149.05"/><polygon class="cls-4" points="50.52 149.05 48.77 149.05 46.77 147.05 48.52 147.05 50.52 149.05"/><line class="cls-3" x1="42.08" y1="109.03" x2="42.25" y2="107.03"/><line class="cls-3" x1="43.15" y1="109.03" x2="43.68" y2="107.03"/><line class="cls-3" x1="44.12" y1="109.03" x2="45.2" y2="107.03"/><line class="cls-3" x1="45.18" y1="109.03" x2="46.65" y2="107.03"/><line class="cls-3" x1="38" y1="109.03" x2="37.83" y2="107.03"/><line class="cls-3" x1="36.93" y1="109.03" x2="36.4" y2="107.03"/><line class="cls-3" x1="35.95" y1="109.03" x2="34.87" y2="107.03"/><line class="cls-3" x1="34.9" y1="109.03" x2="33.43" y2="107.03"/><line class="cls-3" x1="28.8" y1="109.08" x2="26.8" y2="107.08"/><line class="cls-3" x1="51.3" y1="109.08" x2="53.3" y2="107.08"/><rect class="cls-4" x="39.18" y="107.03" width="1.75" height="2"/><polygon class="cls-4" points="31.32 107.03 29.57 107.03 31.57 109.03 33.33 109.03 31.32 107.03"/><polygon class="cls-4" points="50.52 107.03 48.77 107.03 46.77 109.03 48.52 109.03 50.52 107.03"/><line class="cls-3" x1="27.06" y1="125.52" x2="25.06" y2="125.34"/><line class="cls-3" x1="27.06" y1="124.44" x2="25.06" y2="123.92"/><line class="cls-3" x1="27.06" y1="123.47" x2="25.06" y2="122.39"/><line class="cls-3" x1="27.06" y1="122.41" x2="25.06" y2="120.95"/><line class="cls-3" x1="27.06" y1="129.59" x2="25.06" y2="129.77"/><line class="cls-3" x1="27.06" y1="130.67" x2="25.06" y2="131.19"/><line class="cls-3" x1="27.06" y1="131.64" x2="25.06" y2="132.72"/><line class="cls-3" x1="27.06" y1="132.7" x2="25.06" y2="134.16"/><line class="cls-3" x1="27.11" y1="138.79" x2="25.11" y2="140.79"/><line class="cls-3" x1="27.11" y1="116.29" x2="25.11" y2="114.29"/><rect class="cls-4" x="113.14" y="126.49" width="1.75" height="2" transform="translate(-101.43 241.56) rotate(-90)"/><polygon class="cls-4" points="25.06 136.27 25.06 138.02 27.06 136.02 27.06 134.27 25.06 136.27"/><polygon class="cls-4" points="25.06 117.07 25.06 118.82 27.06 120.82 27.06 119.07 25.06 117.07"/><line class="cls-3" x1="53.12" y1="125.52" x2="55.12" y2="125.34"/><line class="cls-3" x1="53.12" y1="124.44" x2="55.12" y2="123.92"/><line class="cls-3" x1="53.12" y1="123.47" x2="55.12" y2="122.39"/><line class="cls-3" x1="53.12" y1="122.41" x2="55.12" y2="120.95"/><line class="cls-3" x1="53.12" y1="129.59" x2="55.12" y2="129.77"/><line class="cls-3" x1="53.12" y1="130.67" x2="55.12" y2="131.19"/><line class="cls-3" x1="53.12" y1="131.64" x2="55.12" y2="132.72"/><line class="cls-3" x1="53.12" y1="132.7" x2="55.12" y2="134.16"/><line class="cls-3" x1="53.06" y1="138.79" x2="55.06" y2="140.79"/><line class="cls-3" x1="53.06" y1="116.29" x2="55.06" y2="114.29"/><rect class="cls-4" x="141.19" y="126.49" width="1.75" height="2" transform="translate(-73.38 269.61) rotate(-90)"/><polygon class="cls-4" points="55.12 136.27 55.12 138.02 53.12 136.02 53.12 134.27 55.12 136.27"/><polygon class="cls-4" points="55.12 117.07 55.12 118.82 53.12 120.82 53.12 119.07 55.12 117.07"/><circle class="cls-5" cx="40.05" cy="128.05" r="2"/><circle class="cls-5" cx="40.05" cy="128.05" r="1"/><polygon class="cls-5" points="36.75 121.19 40.65 128.25 39.88 128.72 35.45 121.98 35.45 120.53 36.75 121.19"/><polygon class="cls-5" points="45.94 139.59 39.35 128.08 40.13 127.61 47.25 138.8 47.65 140.93 45.94 139.59"/><rect class="cls-1" x="80.05" y="123.85" width="8" height="8" rx="1" ry="1"/><path class="cls-1" d="M168.8,124.2h6.39l.69.42-.69.48H168.8l-.67-.47Z" transform="translate(-87.95 0.05)"/><path class="cls-1" d="M168.8,125.1h6.39l.69.42-.69.48H168.8l-.67-.47Z" transform="translate(-87.95 0.05)"/><path class="cls-1" d="M168.8,126h6.39l.69.41-.69.49H168.8l-.67-.47Z" transform="translate(-87.95 0.05)"/><path class="cls-1" d="M168.8,126.9h6.39l.69.41-.69.49H168.8l-.67-.48Z" transform="translate(-87.95 0.05)"/><path class="cls-1" d="M168.8,127.8h6.39l.69.41-.69.49H168.8l-.67-.48Z" transform="translate(-87.95 0.05)"/><path class="cls-1" d="M168.8,128.7h6.39l.69.41-.69.48H168.8l-.67-.47Z" transform="translate(-87.95 0.05)"/><path class="cls-1" d="M168.8,129.59h6.39l.69.42-.69.48H168.8l-.67-.47Z" transform="translate(-87.95 0.05)"/><path class="cls-1" d="M168.8,130.49h6.39l.69.42-.69.48H168.8l-.67-.47Z" transform="translate(-87.95 0.05)"/></svg>