<svg id="Layer_1" data-name="Layer 1" xmlns="http://www.w3.org/2000/svg" viewBox="0 0 112.17 256.1"><defs><style>.cls-1,.cls-3,.cls-4,.cls-8{fill:none;stroke-miterlimit:10;}.cls-1{stroke:#666;stroke-width:0.1px;}.cls-10,.cls-2{font-size:4px;}.cls-2,.cls-9{font-family:OpenSans-Regular, Open Sans;}.cls-3,.cls-4,.cls-8{stroke:#000;}.cls-3{stroke-width:0.08px;}.cls-4{stroke-width:0.75px;}.cls-5{font-size:7px;font-family:Archivio-900, Archivio;}.cls-6{letter-spacing:0.02em;}.cls-7{letter-spacing:0.2em;}.cls-8{stroke-width:0.25px;}.cls-9{font-size:2.5px;}.cls-10{font-family:FoundationRoman-Regular, Foundation Roman;}.cls-11{letter-spacing:0.02em;}.cls-12{font-size:2px;}.cls-13{letter-spacing:-0.07em;}.cls-14{letter-spacing:0em;}.cls-15{letter-spacing:-0.03em;}</style></defs><title>iwc</title><rect class="cls-1" x="28.05" y="180.05" width="48" height="76"/><rect class="cls-1" x="28.05" y="180.05" width="8" height="76"/><rect class="cls-1" x="68.05" y="180.05" width="8" height="76"/><rect class="cls-1" x="28.05" y="0.05" width="8" height="76"/><rect class="cls-1" x="68.05" y="0.05" width="8" height="76"/><rect class="cls-1" x="28.05" y="0.05" width="48" height="76"/><circle class="cls-1" cx="52.05" cy="128.05" r="52"/><path class="cls-1" d="M128,180a52,52,0,1,1,46.57-28.85" transform="translate(-75.95 0.05)"/><circle class="cls-1" cx="52.05" cy="128.05" r="48"/><text class="cls-2" transform="translate(49.69 83.8)">60</text><text class="cls-2" transform="translate(27.92 90.94) rotate(-30)">55</text><text class="cls-2" transform="translate(12.58 107.93) rotate(-60)">50</text><text class="cls-2" transform="translate(7.8 130.41) rotate(-90)">45</text><text class="cls-2" transform="translate(14.94 152.18) rotate(-120)">40</text><text class="cls-2" transform="translate(31.93 167.51) rotate(-150)">35</text><text class="cls-2" transform="translate(54.41 172.3) rotate(180)">30</text><text class="cls-2" transform="translate(76.18 165.16) rotate(150)">25</text><text class="cls-2" transform="translate(91.51 148.17) rotate(120)">20</text><text class="cls-2" transform="translate(96.3 125.69) rotate(90)">15</text><text class="cls-2" transform="translate(89.16 103.92) rotate(60)">10</text><text class="cls-2" transform="translate(72.17 88.59) rotate(30)">5</text><circle class="cls-3" cx="52.05" cy="128.05" r="2"/><circle class="cls-3" cx="52.05" cy="128.05" r="4"/><circle class="cls-3" cx="52.05" cy="148.05" r="0.5"/><circle class="cls-3" cx="52.05" cy="148.05" r="1"/><circle class="cls-3" cx="52.05" cy="108.05" r="0.5"/><circle class="cls-3" cx="52.05" cy="108.05" r="1"/><line class="cls-4" x1="52.05" y1="84.32" x2="52.05" y2="86.06"/><line class="cls-3" x1="49.76" y1="84.38" x2="49.85" y2="86.12"/><line class="cls-3" x1="47.48" y1="84.56" x2="47.66" y2="86.29"/><line class="cls-3" x1="45.21" y1="84.86" x2="45.48" y2="86.58"/><line class="cls-3" x1="40.73" y1="85.81" x2="41.18" y2="87.49"/><line class="cls-3" x1="38.54" y1="86.46" x2="39.08" y2="88.12"/><line class="cls-3" x1="36.38" y1="87.22" x2="37" y2="88.85"/><line class="cls-3" x1="32.2" y1="89.08" x2="32.99" y2="90.64"/><line class="cls-3" x1="30.18" y1="90.18" x2="31.06" y2="91.69"/><line class="cls-3" x1="28.23" y1="91.37" x2="29.18" y2="92.84"/><line class="cls-3" x1="24.53" y1="94.06" x2="25.63" y2="95.42"/><line class="cls-3" x1="22.79" y1="95.55" x2="23.96" y2="96.85"/><line class="cls-3" x1="21.13" y1="97.13" x2="22.36" y2="98.36"/><line class="cls-3" x1="18.06" y1="100.53" x2="19.42" y2="101.63"/><line class="cls-3" x1="16.67" y1="102.34" x2="18.08" y2="103.37"/><line class="cls-3" x1="15.37" y1="104.23" x2="16.84" y2="105.18"/><line class="cls-3" x1="13.08" y1="108.2" x2="14.64" y2="108.99"/><line class="cls-3" x1="12.1" y1="110.26" x2="13.69" y2="110.97"/><line class="cls-3" x1="11.22" y1="112.38" x2="12.85" y2="113"/><line class="cls-3" x1="9.81" y1="116.73" x2="11.49" y2="117.18"/><line class="cls-3" x1="9.27" y1="118.96" x2="10.98" y2="119.32"/><line class="cls-3" x1="8.86" y1="121.21" x2="10.58" y2="121.48"/><line class="cls-3" x1="8.38" y1="125.76" x2="10.12" y2="125.85"/><line class="cls-3" x1="8.32" y1="128.05" x2="10.06" y2="128.05"/><line class="cls-3" x1="8.38" y1="130.34" x2="10.12" y2="130.25"/><line class="cls-3" x1="8.86" y1="134.89" x2="10.58" y2="134.62"/><line class="cls-3" x1="9.27" y1="137.14" x2="10.98" y2="136.78"/><line class="cls-3" x1="9.81" y1="139.37" x2="11.49" y2="138.92"/><line class="cls-3" x1="11.22" y1="143.72" x2="12.85" y2="143.1"/><line class="cls-3" x1="12.1" y1="145.84" x2="13.69" y2="145.13"/><line class="cls-3" x1="13.08" y1="147.9" x2="14.64" y2="147.11"/><line class="cls-3" x1="15.37" y1="151.87" x2="16.84" y2="150.92"/><line class="cls-3" x1="16.67" y1="153.76" x2="18.08" y2="152.73"/><line class="cls-3" x1="18.06" y1="155.57" x2="19.42" y2="154.47"/><line class="cls-3" x1="21.13" y1="158.97" x2="22.36" y2="157.74"/><line class="cls-3" x1="22.79" y1="160.55" x2="23.96" y2="159.25"/><line class="cls-3" x1="24.53" y1="162.04" x2="25.63" y2="160.68"/><line class="cls-3" x1="28.23" y1="164.73" x2="29.18" y2="163.26"/><line class="cls-3" x1="30.18" y1="165.92" x2="31.06" y2="164.41"/><line class="cls-3" x1="32.2" y1="167.02" x2="32.99" y2="165.46"/><line class="cls-3" x1="36.38" y1="168.88" x2="37" y2="167.25"/><line class="cls-3" x1="38.54" y1="169.64" x2="39.08" y2="167.98"/><line class="cls-3" x1="40.73" y1="170.29" x2="41.18" y2="168.61"/><line class="cls-3" x1="45.21" y1="171.24" x2="45.48" y2="169.52"/><line class="cls-3" x1="47.48" y1="171.54" x2="47.66" y2="169.81"/><line class="cls-3" x1="49.76" y1="171.72" x2="49.85" y2="169.98"/><line class="cls-3" x1="54.34" y1="171.72" x2="54.25" y2="169.98"/><line class="cls-3" x1="56.62" y1="171.54" x2="56.44" y2="169.81"/><line class="cls-3" x1="58.89" y1="171.24" x2="58.62" y2="169.52"/><line class="cls-3" x1="63.37" y1="170.29" x2="62.92" y2="168.61"/><line class="cls-3" x1="65.56" y1="169.64" x2="65.02" y2="167.98"/><line class="cls-3" x1="67.72" y1="168.88" x2="67.1" y2="167.25"/><line class="cls-3" x1="71.9" y1="167.02" x2="71.11" y2="165.46"/><line class="cls-3" x1="73.92" y1="165.92" x2="73.04" y2="164.41"/><line class="cls-3" x1="75.87" y1="164.73" x2="74.92" y2="163.26"/><line class="cls-3" x1="79.57" y1="162.04" x2="78.47" y2="160.68"/><line class="cls-3" x1="81.31" y1="160.55" x2="80.14" y2="159.25"/><line class="cls-3" x1="82.97" y1="158.97" x2="81.74" y2="157.74"/><line class="cls-3" x1="86.04" y1="155.57" x2="84.68" y2="154.47"/><line class="cls-3" x1="87.43" y1="153.76" x2="86.02" y2="152.73"/><line class="cls-3" x1="88.73" y1="151.87" x2="87.26" y2="150.92"/><line class="cls-3" x1="91.02" y1="147.9" x2="89.46" y2="147.11"/><line class="cls-3" x1="92" y1="145.84" x2="90.41" y2="145.13"/><line class="cls-3" x1="92.88" y1="143.72" x2="91.25" y2="143.1"/><line class="cls-3" x1="94.29" y1="139.37" x2="92.61" y2="138.92"/><line class="cls-3" x1="94.83" y1="137.14" x2="93.12" y2="136.78"/><line class="cls-3" x1="95.24" y1="134.89" x2="93.52" y2="134.62"/><line class="cls-3" x1="95.72" y1="130.34" x2="93.98" y2="130.25"/><line class="cls-3" x1="95.78" y1="128.05" x2="94.04" y2="128.05"/><line class="cls-3" x1="95.72" y1="125.76" x2="93.98" y2="125.85"/><line class="cls-3" x1="95.24" y1="121.21" x2="93.52" y2="121.48"/><line class="cls-3" x1="94.83" y1="118.96" x2="93.12" y2="119.32"/><line class="cls-3" x1="94.29" y1="116.73" x2="92.61" y2="117.18"/><line class="cls-3" x1="92.88" y1="112.38" x2="91.25" y2="113"/><line class="cls-3" x1="92" y1="110.26" x2="90.41" y2="110.97"/><line class="cls-3" x1="91.02" y1="108.2" x2="89.46" y2="108.99"/><line class="cls-3" x1="88.73" y1="104.23" x2="87.26" y2="105.18"/><line class="cls-3" x1="87.43" y1="102.34" x2="86.02" y2="103.37"/><line class="cls-3" x1="86.04" y1="100.53" x2="84.68" y2="101.63"/><line class="cls-3" x1="82.97" y1="97.13" x2="81.74" y2="98.36"/><line class="cls-3" x1="81.31" y1="95.55" x2="80.14" y2="96.85"/><line class="cls-3" x1="79.57" y1="94.06" x2="78.47" y2="95.42"/><line class="cls-3" x1="75.87" y1="91.37" x2="74.92" y2="92.84"/><line class="cls-3" x1="73.92" y1="90.18" x2="73.04" y2="91.69"/><line class="cls-3" x1="71.9" y1="89.08" x2="71.11" y2="90.64"/><line class="cls-3" x1="67.72" y1="87.22" x2="67.1" y2="88.85"/><line class="cls-3" x1="65.56" y1="86.46" x2="65.02" y2="88.12"/><line class="cls-3" x1="63.37" y1="85.81" x2="62.92" y2="87.49"/><line class="cls-3" x1="58.89" y1="84.86" x2="58.62" y2="86.58"/><line class="cls-3" x1="56.62" y1="84.56" x2="56.44" y2="86.29"/><line class="cls-3" x1="54.34" y1="84.38" x2="54.25" y2="86.12"/><line class="cls-3" x1="42.59" y1="83.57" x2="43.32" y2="86.98"/><line class="cls-3" x1="33.55" y1="86.5" x2="34.97" y2="89.69"/><line class="cls-3" x1="25.32" y1="91.26" x2="27.37" y2="94.08"/><line class="cls-3" x1="18.25" y1="97.62" x2="20.85" y2="99.96"/><line class="cls-3" x1="12.66" y1="105.31" x2="15.69" y2="107.06"/><line class="cls-3" x1="8.8" y1="114" x2="12.12" y2="115.08"/><line class="cls-3" x1="6.82" y1="123.3" x2="10.29" y2="123.66"/><line class="cls-3" x1="6.82" y1="132.8" x2="10.29" y2="132.44"/><line class="cls-3" x1="8.8" y1="142.1" x2="12.12" y2="141.02"/><line class="cls-3" x1="12.66" y1="150.79" x2="15.69" y2="149.04"/><line class="cls-3" x1="18.25" y1="158.48" x2="20.85" y2="156.14"/><line class="cls-3" x1="25.32" y1="164.84" x2="27.37" y2="162.02"/><line class="cls-3" x1="33.55" y1="169.6" x2="34.97" y2="166.41"/><line class="cls-3" x1="42.59" y1="172.53" x2="43.32" y2="169.12"/><line class="cls-3" x1="52.05" y1="173.53" x2="52.05" y2="170.04"/><line class="cls-3" x1="61.51" y1="172.53" x2="60.78" y2="169.12"/><line class="cls-3" x1="70.55" y1="169.6" x2="69.13" y2="166.41"/><line class="cls-3" x1="78.78" y1="164.84" x2="76.73" y2="162.02"/><line class="cls-3" x1="85.85" y1="158.48" x2="83.25" y2="156.14"/><line class="cls-3" x1="91.44" y1="150.79" x2="88.41" y2="149.04"/><line class="cls-3" x1="95.3" y1="142.1" x2="91.98" y2="141.02"/><line class="cls-3" x1="97.28" y1="132.8" x2="93.81" y2="132.44"/><line class="cls-3" x1="97.28" y1="123.3" x2="93.81" y2="123.66"/><line class="cls-3" x1="95.3" y1="114" x2="91.98" y2="115.08"/><line class="cls-3" x1="91.44" y1="105.31" x2="88.41" y2="107.06"/><line class="cls-3" x1="85.85" y1="97.62" x2="83.25" y2="99.96"/><line class="cls-3" x1="78.78" y1="91.26" x2="76.73" y2="94.08"/><line class="cls-3" x1="70.55" y1="86.5" x2="69.13" y2="89.69"/><line class="cls-3" x1="61.51" y1="83.57" x2="60.78" y2="86.98"/><circle cx="52.05" cy="87.52" r="0.87"/><circle cx="52.05" cy="87.96" r="0.44"/><circle cx="47.86" cy="88.18" r="0.44"/><circle cx="43.71" cy="88.84" r="0.44"/><circle cx="39.66" cy="89.92" r="0.44"/><circle cx="35.74" cy="91.43" r="0.44"/><circle cx="28.49" cy="95.62" r="0.44"/><circle cx="25.22" cy="98.26" r="0.44"/><circle cx="22.26" cy="101.22" r="0.44"/><circle cx="19.62" cy="104.49" r="0.44"/><circle cx="15.43" cy="111.74" r="0.44"/><circle cx="13.92" cy="115.66" r="0.44"/><circle cx="12.84" cy="119.71" r="0.44"/><circle cx="12.18" cy="123.86" r="0.44"/><circle cx="12.18" cy="132.24" r="0.44"/><circle cx="12.84" cy="136.39" r="0.44"/><circle cx="13.92" cy="140.44" r="0.44"/><circle cx="15.43" cy="144.36" r="0.44"/><circle cx="19.62" cy="151.61" r="0.44"/><circle cx="22.26" cy="154.88" r="0.44"/><circle cx="25.22" cy="157.84" r="0.44"/><circle cx="28.49" cy="160.48" r="0.44"/><circle cx="35.74" cy="164.67" r="0.44"/><circle cx="39.66" cy="166.18" r="0.44"/><circle cx="43.71" cy="167.26" r="0.44"/><circle cx="47.86" cy="167.92" r="0.44"/><circle cx="56.24" cy="167.92" r="0.44"/><circle cx="60.39" cy="167.26" r="0.44"/><circle cx="64.44" cy="166.18" r="0.44"/><circle cx="68.36" cy="164.67" r="0.44"/><circle cx="75.61" cy="160.48" r="0.44"/><circle cx="78.88" cy="157.84" r="0.44"/><circle cx="81.84" cy="154.88" r="0.44"/><circle cx="84.48" cy="151.61" r="0.44"/><circle cx="88.67" cy="144.36" r="0.44"/><circle cx="90.18" cy="140.44" r="0.44"/><circle cx="91.26" cy="136.39" r="0.44"/><circle cx="91.92" cy="132.24" r="0.44"/><circle cx="91.92" cy="123.86" r="0.44"/><circle cx="91.26" cy="119.71" r="0.44"/><circle cx="90.18" cy="115.66" r="0.44"/><circle cx="88.67" cy="111.74" r="0.44"/><circle cx="84.48" cy="104.49" r="0.44"/><circle cx="81.84" cy="101.22" r="0.44"/><circle cx="78.88" cy="98.26" r="0.44"/><circle cx="75.61" cy="95.62" r="0.44"/><circle cx="68.36" cy="91.43" r="0.44"/><circle cx="64.44" cy="89.92" r="0.44"/><circle cx="60.39" cy="88.84" r="0.44"/><circle cx="56.24" cy="88.18" r="0.44"/><circle cx="31.79" cy="92.95" r="0.87"/><circle cx="16.95" cy="107.79" r="0.87"/><circle cx="11.52" cy="128.05" r="0.87"/><circle cx="16.95" cy="148.31" r="0.87"/><circle cx="31.79" cy="163.15" r="0.87"/><circle cx="52.05" cy="168.58" r="0.87"/><circle cx="72.31" cy="163.15" r="0.87"/><circle cx="87.15" cy="148.31" r="0.87"/><circle cx="92.58" cy="128.05" r="0.87"/><circle cx="87.15" cy="107.79" r="0.87"/><circle cx="72.31" cy="92.95" r="0.87"/><text class="cls-5" transform="translate(47.86 98.26)"><tspan class="cls-6">1</tspan><tspan x="2.37" y="0">2</tspan></text><text class="cls-5" transform="translate(32.05 102.37)"><tspan class="cls-7">1</tspan><tspan x="3.63" y="0">1</tspan></text><text class="cls-5" transform="translate(20.05 113.54)">10</text><circle class="cls-3" cx="52.05" cy="148.05" r="12"/><circle class="cls-3" cx="52.05" cy="108.05" r="12"/><line class="cls-3" x1="52.05" y1="137.16" x2="52.05" y2="139.66"/><line class="cls-3" x1="49.72" y1="97.07" x2="50.13" y2="99.02"/><line class="cls-3" x1="47.48" y1="97.79" x2="48.3" y2="99.62"/><line class="cls-3" x1="45.45" y1="98.97" x2="46.63" y2="100.58"/><line class="cls-3" x1="43.71" y1="100.54" x2="45.19" y2="101.87"/><line class="cls-3" x1="41.37" y1="104.58" x2="43.27" y2="105.2"/><line class="cls-3" x1="40.88" y1="106.88" x2="42.87" y2="107.09"/><line class="cls-3" x1="40.88" y1="109.22" x2="42.87" y2="109.01"/><line class="cls-3" x1="41.37" y1="111.52" x2="43.27" y2="110.9"/><line class="cls-3" x1="43.71" y1="115.56" x2="45.19" y2="114.23"/><line class="cls-3" x1="45.45" y1="117.13" x2="46.63" y2="115.52"/><line class="cls-3" x1="47.48" y1="118.31" x2="48.3" y2="116.48"/><line class="cls-3" x1="49.72" y1="119.03" x2="50.13" y2="117.08"/><line class="cls-3" x1="54.38" y1="119.03" x2="53.97" y2="117.08"/><line class="cls-3" x1="56.62" y1="118.31" x2="55.8" y2="116.48"/><line class="cls-3" x1="58.65" y1="117.13" x2="57.47" y2="115.52"/><line class="cls-3" x1="60.39" y1="115.56" x2="58.91" y2="114.23"/><line class="cls-3" x1="62.73" y1="111.52" x2="60.83" y2="110.9"/><line class="cls-3" x1="63.22" y1="109.22" x2="61.23" y2="109.01"/><line class="cls-3" x1="63.22" y1="106.88" x2="61.23" y2="107.09"/><line class="cls-3" x1="62.73" y1="104.58" x2="60.83" y2="105.2"/><line class="cls-3" x1="60.39" y1="100.54" x2="58.91" y2="101.87"/><line class="cls-3" x1="58.65" y1="98.97" x2="57.47" y2="100.58"/><line class="cls-3" x1="56.62" y1="97.79" x2="55.8" y2="99.62"/><line class="cls-3" x1="54.38" y1="97.07" x2="53.97" y2="99.02"/><line class="cls-8" x1="52.05" y1="96.91" x2="52.05" y2="99.91"/><line class="cls-8" x1="42.4" y1="102.48" x2="45" y2="103.98"/><line class="cls-8" x1="42.4" y1="113.62" x2="45" y2="112.12"/><line class="cls-8" x1="52.05" y1="119.19" x2="52.05" y2="116.19"/><line class="cls-8" x1="61.7" y1="113.62" x2="59.1" y2="112.12"/><line class="cls-8" x1="61.7" y1="102.48" x2="59.1" y2="103.98"/><line class="cls-3" x1="46.6" y1="138.62" x2="47.85" y2="140.78"/><line class="cls-3" x1="42.62" y1="142.6" x2="44.78" y2="143.85"/><line class="cls-3" x1="41.16" y1="148.05" x2="43.66" y2="148.05"/><line class="cls-3" x1="42.62" y1="153.5" x2="44.78" y2="152.25"/><line class="cls-3" x1="46.6" y1="157.48" x2="47.85" y2="155.32"/><line class="cls-3" x1="52.05" y1="158.94" x2="52.05" y2="156.44"/><line class="cls-3" x1="57.5" y1="157.48" x2="56.25" y2="155.32"/><line class="cls-3" x1="61.48" y1="153.5" x2="59.32" y2="152.25"/><line class="cls-3" x1="62.94" y1="148.05" x2="60.44" y2="148.05"/><line class="cls-3" x1="61.48" y1="142.6" x2="59.32" y2="143.85"/><line class="cls-3" x1="57.5" y1="138.62" x2="56.25" y2="140.78"/><text class="cls-9" transform="translate(53.41 153.92) rotate(180)">30</text><text class="cls-9" transform="translate(57.92 146.69) rotate(90)">15</text><text class="cls-9" transform="translate(50.69 142.18)">60</text><text class="cls-9" transform="translate(46.18 149.41) rotate(-90)">45</text><text class="cls-9" transform="translate(50.69 102.11)">30</text><text class="cls-9" transform="translate(46.27 106.22) rotate(-60)">25</text><text class="cls-9" transform="translate(47.62 112.15) rotate(-120)">20</text><text class="cls-9" transform="translate(53.41 113.99) rotate(180)">15</text><text class="cls-9" transform="translate(57.83 109.88) rotate(120)">10</text><text class="cls-9" transform="translate(56.86 104.78) rotate(60)">5</text><polygon class="cls-3" points="52.05 141.43 52.05 141.43 51.55 150.43 52.55 150.43 52.05 141.43"/><polygon class="cls-3" points="52.05 101.43 52.05 101.43 51.55 110.43 52.55 110.43 52.05 101.43"/><rect class="cls-3" x="51.55" y="110.43" width="1" height="30"/><path class="cls-1" d="M103.93,174.1a51.45,51.45,0,0,1-11.81-8.47m0,0s6.56,18.76,6.77,22.53l5.08,1.81V174.07" transform="translate(-75.95 0.05)"/><path class="cls-1" d="M163.83,165.71A51.89,51.89,0,0,1,152,174.18m0,0v15.93l5.08-1.81c.21-3.77,6.77-22.53,6.77-22.53" transform="translate(-75.95 0.05)"/><path class="cls-1" d="M92.12,90.31a52.06,52.06,0,0,1,11.81-8.47m0,0V65.94l-5.08,1.81c-.21,3.77-6.77,22.54-6.77,22.54" transform="translate(-75.95 0.05)"/><path class="cls-1" d="M152,81.76a52.19,52.19,0,0,1,11.81,8.47m0,0s-6.56-18.77-6.77-22.54L152,65.86V81.79" transform="translate(-75.95 0.05)"/><text class="cls-10" transform="translate(64.16 125.77)"><tspan class="cls-11">I</tspan><tspan x="1.42" y="0">WC</tspan><tspan class="cls-12"><tspan x="-3.79" y="2.4">SH</tspan><tspan class="cls-13" x="-1.24" y="2.4">A</tspan><tspan class="cls-14" x="0.07" y="2.4">UFFH</tspan><tspan class="cls-13" x="5.18" y="2.4">A</tspan><tspan class="cls-15" x="6.49" y="2.4">U</tspan><tspan x="7.88" y="2.4">SEN</tspan></tspan></text><path d="M103.21,127a.53.53,0,0,1-.56.41.63.63,0,0,1-.62-.71.64.64,0,0,1,.63-.72.51.51,0,0,1,.55.42H103a.36.36,0,0,0-.37-.27c-.3,0-.43.28-.43.56s.12.56.44.56A.35.35,0,0,0,103,127Z" transform="translate(-75.95 0.05)"/><path d="M103.48,126h.18v.58h.73V126h.18v1.39h-.18v-.65h-.73v.65h-.18Z" transform="translate(-75.95 0.05)"/><path d="M105.14,126.76v.61H105V126h.55c.28,0,.43.15.43.37a.32.32,0,0,1-.23.33c.11,0,.21.11.21.36v.06a.76.76,0,0,0,0,.27h-.18a.85.85,0,0,1,0-.3v0c0-.2-.06-.28-.31-.28Zm0-.16h.3c.21,0,.3-.08.3-.23s-.09-.23-.28-.23h-.32Z" transform="translate(-75.95 0.05)"/><path d="M107.45,126.67a.65.65,0,1,1-1.29,0,.66.66,0,0,1,.66-.72A.63.63,0,0,1,107.45,126.67Zm-1.09,0c0,.3.15.56.45.56s.45-.26.45-.56-.15-.55-.45-.55S106.36,126.37,106.36,126.67Z" transform="translate(-75.95 0.05)"/><path d="M107.74,127.37V126H108c.2.33.63,1,.71,1.17h0c0-.18,0-.4,0-.63V126h.17v1.39h-.23l-.72-1.2h0c0,.16,0,.39,0,.64v.56Z" transform="translate(-75.95 0.05)"/><path d="M110.44,126.67a.65.65,0,1,1-1.29,0,.66.66,0,0,1,.66-.72A.63.63,0,0,1,110.44,126.67Zm-1.09,0c0,.3.15.56.45.56s.45-.26.45-.56-.15-.55-.45-.55S109.35,126.37,109.35,126.67Z" transform="translate(-75.95 0.05)"/><path d="M111.86,127.37h-.14a.66.66,0,0,1,0-.19.46.46,0,0,1-.43.21.62.62,0,0,1-.61-.7c0-.42.22-.73.64-.73a.51.51,0,0,1,.57.42h-.18a.37.37,0,0,0-.39-.27c-.32,0-.45.26-.45.57s.13.55.44.55.39-.2.39-.44h-.39v-.16h.57Z" transform="translate(-75.95 0.05)"/><path d="M112.38,126.76v.61h-.18V126h.54c.29,0,.44.15.44.37a.32.32,0,0,1-.24.33c.12,0,.22.11.22.36v.06a1.15,1.15,0,0,0,0,.27H113a.81.81,0,0,1,0-.3v0c0-.2,0-.28-.3-.28Zm0-.16h.3c.22,0,.31-.08.31-.23s-.1-.23-.28-.23h-.33Z" transform="translate(-75.95 0.05)"/><path d="M113.7,127l-.15.42h-.18l.49-1.39h.23l.52,1.39h-.2l-.15-.42Zm.51-.15c-.13-.37-.21-.56-.24-.67h0c0,.12-.11.35-.22.67Z" transform="translate(-75.95 0.05)"/><path d="M114.83,126h.52a.41.41,0,0,1,.46.4.41.41,0,0,1-.47.42H115v.57h-.18Zm.18.66h.32c.19,0,.29-.09.29-.25s-.12-.25-.28-.25H115Z" transform="translate(-75.95 0.05)"/><path d="M116.07,126h.19v.58H117V126h.19v1.39H117v-.65h-.72v.65h-.19Z" transform="translate(-75.95 0.05)"/><path d="M102.3,129.35l-.15.42H102l.5-1.39h.22l.52,1.39H103l-.15-.42Zm.5-.15c-.13-.37-.2-.56-.23-.67h0l-.23.67Z" transform="translate(-75.95 0.05)"/><path d="M104.05,128.38v.84c0,.32.18.41.36.41s.35-.09.35-.41v-.84H105v.83c0,.45-.25.58-.55.58a.5.5,0,0,1-.54-.57v-.84Z" transform="translate(-75.95 0.05)"/><path d="M106.11,128.54h-.45v-.16h1.08v.16h-.45v1.23h-.18Z" transform="translate(-75.95 0.05)"/><path d="M108.61,129.07a.65.65,0,1,1-1.29,0,.66.66,0,0,1,.66-.72A.63.63,0,0,1,108.61,129.07Zm-1.09,0c0,.3.15.56.45.56s.45-.26.45-.56-.15-.55-.45-.55S107.52,128.77,107.52,129.07Z" transform="translate(-75.95 0.05)"/><path d="M110.59,129.18c0-.26,0-.52,0-.67h0c-.06.23-.28.82-.44,1.26H110c-.12-.36-.35-1-.41-1.26h0c0,.16,0,.47,0,.71v.55h-.18v-1.39h.28c.16.43.35,1,.4,1.16h0c0-.13.26-.74.42-1.16h.27v1.39h-.18Z" transform="translate(-75.95 0.05)"/><path d="M111.83,129.35l-.15.42h-.18l.49-1.39h.23l.51,1.39h-.19l-.16-.42Zm.51-.15c-.14-.37-.21-.56-.24-.67h0c0,.12-.12.35-.22.67Z" transform="translate(-75.95 0.05)"/><path d="M113.57,128.54h-.45v-.16h1.09v.16h-.45v1.23h-.19Z" transform="translate(-75.95 0.05)"/><path d="M115.09,128.38v1.39h-.18v-1.39Z" transform="translate(-75.95 0.05)"/><path d="M117.06,129.38a.53.53,0,0,1-.55.41.63.63,0,0,1-.63-.71.64.64,0,0,1,.63-.72.51.51,0,0,1,.55.42h-.18a.36.36,0,0,0-.37-.27c-.31,0-.44.28-.44.56s.12.56.44.56a.35.35,0,0,0,.36-.25Z" transform="translate(-75.95 0.05)"/><path class="cls-3" d="M116.05,126c-1.08-.18-2.85-.53-3.92-.77L97.64,122c-1.07-.24-1.06-.29,0-.1l14.64,2.52c1.08.19,2.84.54,3.92.79l11,2.55c1.07.25,1.06.3,0,.12Z" transform="translate(-75.95 0.05)"/><path class="cls-3" d="M128.78,127.61c-1,.55-1,.5-.06-.1l9.43-6.26c.91-.6,2.44-1.55,3.39-2.11l12.83-7.49c.95-.55,1-.51,0,.09L142,119.87c-.92.6-2.46,1.55-3.41,2.1Z" transform="translate(-75.95 0.05)"/><text class="cls-5" transform="translate(14.63 131.39)">9</text><text class="cls-5" transform="translate(19.18 148.05)">8</text><text class="cls-5" transform="translate(30.91 159.9)">7</text><text class="cls-5" transform="translate(47.57 164.67)">6</text><text class="cls-5" transform="translate(64.44 159.9)">5</text><text class="cls-5" transform="translate(76.18 148.05)">4</text><text class="cls-5" transform="translate(81.23 131.39)">3</text><text class="cls-5" transform="translate(75.39 113.54)">2</text><text class="cls-5" transform="translate(67.41 102.37)">1</text><path class="cls-3" d="M171.68,156.07l2.47,1.42,2.85-4.93-2.47-1.43,0,0a50.33,50.33,0,0,1-2.82,5" transform="translate(-75.95 0.05)"/><rect class="cls-3" x="173.36" y="154.32" width="7.28" height="3.34" transform="translate(-122.54 231.33) rotate(-60)"/><path class="cls-3" d="M171.68,99.78l2.47-1.43,2.85,4.94-2.47,1.42,0,0a51.51,51.51,0,0,0-2.82-5" transform="translate(-75.95 0.05)"/><rect class="cls-3" x="173.36" y="98.18" width="7.28" height="3.34" transform="translate(99.03 -103.31) rotate(60)"/><rect class="cls-1" x="104.12" y="122.05" width="8" height="8" rx="1" ry="1"/><path class="cls-1" d="M180.87,122.41h6.39l.69.41-.69.48h-6.39l-.67-.47Z" transform="translate(-75.95 0.05)"/><path class="cls-1" d="M180.87,123.3h6.39l.69.42-.69.48h-6.39l-.67-.47Z" transform="translate(-75.95 0.05)"/><path class="cls-1" d="M180.87,124.2h6.39l.69.42-.69.48h-6.39l-.67-.47Z" transform="translate(-75.95 0.05)"/><path class="cls-1" d="M180.87,125.1h6.39l.69.42-.69.48h-6.39l-.67-.47Z" transform="translate(-75.95 0.05)"/><path class="cls-1" d="M180.87,126h6.39l.69.41-.69.49h-6.39l-.67-.47Z" transform="translate(-75.95 0.05)"/><path class="cls-1" d="M180.87,126.9h6.39l.69.41-.69.49h-6.39l-.67-.47Z" transform="translate(-75.95 0.05)"/><path class="cls-1" d="M180.87,127.8h6.39l.69.41-.69.49h-6.39l-.67-.48Z" transform="translate(-75.95 0.05)"/><path class="cls-1" d="M180.87,128.7h6.39l.69.41-.69.48h-6.39l-.67-.47Z" transform="translate(-75.95 0.05)"/></svg>