<svg id="Layer_1" data-name="Layer 1" xmlns="http://www.w3.org/2000/svg" viewBox="0 0 80.1 256.1"><defs><style>.cls-1,.cls-3,.cls-4{fill:none;stroke-miterlimit:10;}.cls-1,.cls-3{stroke:#666;}.cls-1{stroke-width:0.1px;}.cls-2{font-size:12px;font-family:ScienceFairJNL, Science Fair JNL;}.cls-3,.cls-4{stroke-width:0.08px;}.cls-4{stroke:#000;}</style></defs><title>jaeger</title><rect class="cls-1" x="12.05" y="180.05" width="48" height="76"/><rect class="cls-1" x="0.05" y="92.05" width="72" height="72"/><rect class="cls-1" x="12.05" y="92.05" width="48" height="72"/><rect class="cls-1" x="22.05" y="102.05" width="28" height="52"/><rect class="cls-1" x="24.05" y="104.05" width="24" height="48"/><rect class="cls-1" x="12.05" y="0.05" width="48" height="76"/><rect class="cls-1" x="0.05" y="76.05" width="72" height="8"/><rect class="cls-1" x="0.05" y="172.05" width="72" height="8"/><path class="cls-1" d="M162,164.67c0-.37-.45-.67-1-.67H95c-.55,0-1,.3-1,.67s.45.66,1,.66H161C161.59,165.33,162,165,162,164.67Z" transform="translate(-91.95 0.05)"/><path class="cls-1" d="M164,166c0-.37-.45-.67-1-.67H93c-.55,0-1,.3-1,.67s.45.67,1,.67h70C163.55,166.67,164,166.37,164,166Z" transform="translate(-91.95 0.05)"/><path class="cls-1" d="M162,167.33c0-.36-.45-.66-1-.66H95c-.55,0-1,.3-1,.66s.45.67,1,.67H161C161.59,168,162,167.7,162,167.33Z" transform="translate(-91.95 0.05)"/><path class="cls-1" d="M164,168.67c0-.37-.45-.67-1-.67H93c-.55,0-1,.3-1,.67s.45.66,1,.66h70C163.55,169.33,164,169,164,168.67Z" transform="translate(-91.95 0.05)"/><path class="cls-1" d="M162,170c0-.37-.45-.67-1-.67H95c-.55,0-1,.3-1,.67s.45.67,1,.67H161C161.59,170.67,162,170.37,162,170Z" transform="translate(-91.95 0.05)"/><path class="cls-1" d="M164,171.33c0-.36-.45-.66-1-.66H93c-.55,0-1,.3-1,.66s.45.67,1,.67h70C163.55,172,164,171.7,164,171.33Z" transform="translate(-91.95 0.05)"/><path class="cls-1" d="M162,91.33c0,.37-.45.67-1,.67H95c-.55,0-1-.3-1-.67s.45-.66,1-.66H161C161.59,90.67,162,91,162,91.33Z" transform="translate(-91.95 0.05)"/><path class="cls-1" d="M164,90c0,.37-.45.67-1,.67H93c-.55,0-1-.3-1-.67s.45-.67,1-.67h70C163.55,89.33,164,89.63,164,90Z" transform="translate(-91.95 0.05)"/><path class="cls-1" d="M162,88.67c0,.36-.45.66-1,.66H95c-.55,0-1-.3-1-.66s.45-.67,1-.67H161C161.59,88,162,88.3,162,88.67Z" transform="translate(-91.95 0.05)"/><path class="cls-1" d="M164,87.33c0,.37-.45.67-1,.67H93c-.55,0-1-.3-1-.67s.45-.66,1-.66h70C163.55,86.67,164,87,164,87.33Z" transform="translate(-91.95 0.05)"/><path class="cls-1" d="M162,86c0,.37-.45.67-1,.67H95c-.55,0-1-.3-1-.67s.45-.67,1-.67H161C161.59,85.33,162,85.63,162,86Z" transform="translate(-91.95 0.05)"/><path class="cls-1" d="M164,84.67c0,.36-.45.66-1,.66H93c-.55,0-1-.3-1-.66s.45-.67,1-.67h70C163.55,84,164,84.3,164,84.67Z" transform="translate(-91.95 0.05)"/><path class="cls-1" d="M172,131a1,1,0,0,1-1,1h-7v-8h7a1,1,0,0,1,1,1Z" transform="translate(-91.95 0.05)"/><line class="cls-1" x1="80.05" y1="131.05" x2="72.05" y2="131.05"/><line class="cls-1" x1="80.05" y1="130.05" x2="72.05" y2="130.05"/><line class="cls-1" x1="80.05" y1="129.05" x2="72.05" y2="129.05"/><line class="cls-1" x1="80.05" y1="128.05" x2="72.05" y2="128.05"/><line class="cls-1" x1="80.05" y1="127.05" x2="72.05" y2="127.05"/><line class="cls-1" x1="80.05" y1="126.05" x2="72.05" y2="126.05"/><line class="cls-1" x1="80.05" y1="125.05" x2="72.05" y2="125.05"/><text class="cls-2" transform="translate(32.42 100.94)">12</text><text class="cls-2" transform="translate(48.42 100.94)">1</text><text class="cls-2" transform="translate(20.42 100.94)">11</text><text class="cls-2" transform="translate(52.26 115.94)">2</text><text class="cls-2" transform="translate(52.26 132.94)">3</text><text class="cls-2" transform="translate(52.26 149.9)">4</text><text class="cls-2" transform="translate(33.52 162.94)">6</text><text class="cls-2" transform="translate(48.42 162.94)">5</text><text class="cls-2" transform="translate(20.42 162.94)">7</text><text class="cls-2" transform="translate(13.37 115.96)">10</text><text class="cls-2" transform="translate(14.37 132.96)">9</text><text class="cls-2" transform="translate(14.37 149.92)">8</text><circle class="cls-1" cx="36.05" cy="128.05" r="3"/><circle class="cls-1" cx="36.05" cy="128.05" r="2"/><line class="cls-3" x1="36.05" y1="128.05" x2="36.05" y2="104.05"/><line class="cls-3" x1="36.05" y1="128.05" x2="34.16" y2="104.05"/><line class="cls-3" x1="36.05" y1="128.05" x2="32.25" y2="104.05"/><line class="cls-3" x1="36.05" y1="128.05" x2="30.29" y2="104.05"/><line class="cls-3" x1="36.05" y1="128.05" x2="28.25" y2="104.05"/><line class="cls-3" x1="36.05" y1="128.05" x2="26.11" y2="104.05"/><line class="cls-3" x1="36.05" y1="128.05" x2="24.05" y2="104.5"/><line class="cls-3" x1="36.05" y1="128.05" x2="24.05" y2="108.47"/><line class="cls-3" x1="36.05" y1="128.05" x2="24.05" y2="111.53"/><line class="cls-3" x1="36.05" y1="128.05" x2="24.05" y2="114"/><line class="cls-3" x1="36.05" y1="128.05" x2="24.05" y2="116.05"/><line class="cls-3" x1="36.05" y1="128.05" x2="24.05" y2="117.8"/><line class="cls-3" x1="36.05" y1="128.05" x2="24.05" y2="119.33"/><line class="cls-3" x1="36.05" y1="128.05" x2="24.05" y2="120.7"/><line class="cls-3" x1="36.05" y1="128.05" x2="24.05" y2="121.94"/><line class="cls-3" x1="36.05" y1="128.05" x2="24.05" y2="123.08"/><line class="cls-3" x1="36.05" y1="128.05" x2="24.05" y2="124.15"/><line class="cls-3" x1="36.05" y1="128.05" x2="24.05" y2="125.17"/><line class="cls-3" x1="36.05" y1="128.05" x2="24.05" y2="126.15"/><line class="cls-3" x1="36.05" y1="128.05" x2="24.05" y2="127.11"/><line class="cls-3" x1="36.05" y1="128.05" x2="24.05" y2="128.05"/><line class="cls-3" x1="36.05" y1="128.05" x2="36.05" y2="152.05"/><line class="cls-3" x1="36.05" y1="128.05" x2="34.16" y2="152.05"/><line class="cls-3" x1="36.05" y1="128.05" x2="32.25" y2="152.05"/><line class="cls-3" x1="36.05" y1="128.05" x2="30.29" y2="152.05"/><line class="cls-3" x1="36.05" y1="128.05" x2="28.25" y2="152.05"/><line class="cls-3" x1="36.05" y1="128.05" x2="26.11" y2="152.05"/><line class="cls-3" x1="36.05" y1="128.05" x2="24.05" y2="151.6"/><line class="cls-3" x1="36.05" y1="128.05" x2="24.05" y2="147.63"/><line class="cls-3" x1="36.05" y1="128.05" x2="24.05" y2="144.57"/><line class="cls-3" x1="36.05" y1="128.05" x2="24.05" y2="142.1"/><line class="cls-3" x1="36.05" y1="128.05" x2="24.05" y2="140.05"/><line class="cls-3" x1="36.05" y1="128.05" x2="24.05" y2="138.3"/><line class="cls-3" x1="36.05" y1="128.05" x2="24.05" y2="136.77"/><line class="cls-3" x1="36.05" y1="128.05" x2="24.05" y2="135.4"/><line class="cls-3" x1="36.05" y1="128.05" x2="24.05" y2="134.16"/><line class="cls-3" x1="36.05" y1="128.05" x2="24.05" y2="133.02"/><line class="cls-3" x1="36.05" y1="128.05" x2="24.05" y2="131.95"/><line class="cls-3" x1="36.05" y1="128.05" x2="24.05" y2="130.93"/><line class="cls-3" x1="36.05" y1="128.05" x2="24.05" y2="129.95"/><line class="cls-3" x1="36.05" y1="128.05" x2="24.05" y2="128.99"/><line class="cls-3" x1="36.05" y1="128.05" x2="37.94" y2="152.05"/><line class="cls-3" x1="36.05" y1="128.05" x2="39.85" y2="152.05"/><line class="cls-3" x1="36.05" y1="128.05" x2="41.81" y2="152.05"/><line class="cls-3" x1="36.05" y1="128.05" x2="43.85" y2="152.05"/><line class="cls-3" x1="36.05" y1="128.05" x2="45.99" y2="152.05"/><line class="cls-3" x1="36.05" y1="128.05" x2="48.05" y2="151.6"/><line class="cls-3" x1="36.05" y1="128.05" x2="48.05" y2="147.63"/><line class="cls-3" x1="36.05" y1="128.05" x2="48.05" y2="144.57"/><line class="cls-3" x1="36.05" y1="128.05" x2="48.05" y2="142.1"/><line class="cls-3" x1="36.05" y1="128.05" x2="48.05" y2="140.05"/><line class="cls-3" x1="36.05" y1="128.05" x2="48.05" y2="138.3"/><line class="cls-3" x1="36.05" y1="128.05" x2="48.05" y2="136.77"/><line class="cls-3" x1="36.05" y1="128.05" x2="48.05" y2="135.4"/><line class="cls-3" x1="36.05" y1="128.05" x2="48.05" y2="134.16"/><line class="cls-3" x1="36.05" y1="128.05" x2="48.05" y2="133.02"/><line class="cls-3" x1="36.05" y1="128.05" x2="48.05" y2="131.95"/><line class="cls-3" x1="36.05" y1="128.05" x2="48.05" y2="130.93"/><line class="cls-3" x1="36.05" y1="128.05" x2="48.05" y2="129.95"/><line class="cls-3" x1="36.05" y1="128.05" x2="48.05" y2="128.99"/><line class="cls-3" x1="36.05" y1="128.05" x2="48.05" y2="128.05"/><line class="cls-3" x1="36.05" y1="128.05" x2="37.94" y2="104.05"/><line class="cls-3" x1="36.05" y1="128.05" x2="39.85" y2="104.05"/><line class="cls-3" x1="36.05" y1="128.05" x2="41.81" y2="104.05"/><line class="cls-3" x1="36.05" y1="128.05" x2="43.85" y2="104.05"/><line class="cls-3" x1="36.05" y1="128.05" x2="45.99" y2="104.05"/><line class="cls-3" x1="36.05" y1="128.05" x2="48.05" y2="104.5"/><line class="cls-3" x1="36.05" y1="128.05" x2="48.05" y2="108.47"/><line class="cls-3" x1="36.05" y1="128.05" x2="48.05" y2="111.53"/><line class="cls-3" x1="36.05" y1="128.05" x2="48.05" y2="114"/><line class="cls-3" x1="36.05" y1="128.05" x2="48.05" y2="116.05"/><line class="cls-3" x1="36.05" y1="128.05" x2="48.05" y2="117.8"/><line class="cls-3" x1="36.05" y1="128.05" x2="48.05" y2="119.33"/><line class="cls-3" x1="36.05" y1="128.05" x2="48.05" y2="120.7"/><line class="cls-3" x1="36.05" y1="128.05" x2="48.05" y2="121.94"/><line class="cls-3" x1="36.05" y1="128.05" x2="48.05" y2="123.08"/><line class="cls-3" x1="36.05" y1="128.05" x2="48.05" y2="124.15"/><line class="cls-3" x1="36.05" y1="128.05" x2="48.05" y2="125.17"/><line class="cls-3" x1="36.05" y1="128.05" x2="48.05" y2="126.15"/><line class="cls-3" x1="36.05" y1="128.05" x2="48.05" y2="127.11"/><rect x="35.08" y="102.05" width="2" height="2"/><rect x="26.46" y="102.05" width="1.25" height="2"/><rect x="44.46" y="102.05" width="1.25" height="2"/><rect x="26.46" y="152.05" width="1.25" height="2"/><rect x="44.46" y="152.05" width="1.25" height="2"/><rect x="35.08" y="152.05" width="2" height="2"/><rect x="22.05" y="127.05" width="2" height="2"/><rect x="22.05" y="139.2" width="2" height="1.25"/><rect x="22.05" y="115.65" width="2" height="1.25"/><rect x="48.05" y="139.2" width="2" height="1.25"/><rect x="48.05" y="115.65" width="2" height="1.25"/><rect x="48.05" y="127.05" width="2" height="2"/><circle class="cls-4" cx="36.16" cy="127.91" r="2"/><circle class="cls-4" cx="36.16" cy="127.91" r="4"/><rect class="cls-4" x="35.66" y="110.29" width="1" height="30"/><path class="cls-4" d="M125.7,127.67a33,33,0,0,1-3.92-.75l-2.8-.76c-1.06-.29-1-.41.06-.28l2.88.37a30.33,30.33,0,0,1,3.9.81l1.55.45c1.06.3,1,.45-.06.33Z" transform="translate(-91.95 0.05)"/><path class="cls-4" d="M129,127.58c-1,.49-1.07.35-.19-.31l1.06-.8a28.85,28.85,0,0,1,3.37-2.12l2.26-1.18c1-.51,1.05-.4.16.25l-2.07,1.5a30.15,30.15,0,0,1-3.4,2.06Z" transform="translate(-91.95 0.05)"/></svg>