<svg id="Layer_1" data-name="Layer 1" xmlns="http://www.w3.org/2000/svg" viewBox="0 0 112.09 256.08"><defs><style>.cls-1,.cls-2,.cls-4,.cls-5,.cls-6{fill:none;stroke-miterlimit:10;}.cls-1,.cls-2,.cls-6{stroke:#666;}.cls-1,.cls-5{stroke-width:0.08px;}.cls-2,.cls-4{stroke-width:0.25px;}.cls-3{font-size:3px;font-family:Enamela-Condensed, Enamela;}.cls-4{stroke:#ccc;}.cls-5{stroke:#000;}.cls-6{stroke-width:0.1px;}</style></defs><title>omega</title><rect class="cls-1" x="28.04" y="236.04" width="12" height="20"/><rect class="cls-1" x="64.04" y="236.04" width="12" height="20"/><rect class="cls-1" x="40.04" y="244.04" width="24" height="12"/><rect class="cls-1" x="28.04" y="220.04" width="12" height="16"/><rect class="cls-1" x="64.04" y="220.04" width="12" height="16"/><rect class="cls-1" x="40.04" y="232.04" width="24" height="12"/><rect class="cls-1" x="28.04" y="204.04" width="12" height="16"/><rect class="cls-1" x="64.04" y="204.04" width="12" height="16"/><rect class="cls-1" x="28.04" y="188.04" width="12" height="16"/><rect class="cls-1" x="64.04" y="188.04" width="12" height="16"/><polygon class="cls-1" points="40.04 188.04 28.04 188.04 28.04 172.04 40.04 176.04 40.04 188.04"/><polygon class="cls-1" points="76.04 188.04 64.04 188.04 64.04 176.04 76.04 172.04 76.04 188.04"/><rect class="cls-1" x="40.04" y="220.04" width="24" height="12"/><rect class="cls-1" x="40.04" y="208.04" width="24" height="12"/><rect class="cls-1" x="40.04" y="196.04" width="24" height="12"/><rect class="cls-1" x="40.04" y="184.04" width="24" height="12"/><rect class="cls-1" x="40.04" y="176.04" width="24" height="8"/><rect class="cls-1" x="28.04" y="0.04" width="12" height="20"/><rect class="cls-1" x="64.04" y="0.04" width="12" height="20"/><rect class="cls-1" x="40.04" y="0.04" width="24" height="12"/><rect class="cls-1" x="28.04" y="20.04" width="12" height="16"/><rect class="cls-1" x="64.04" y="20.04" width="12" height="16"/><rect class="cls-1" x="40.04" y="12.04" width="24" height="12"/><rect class="cls-1" x="28.04" y="36.04" width="12" height="16"/><rect class="cls-1" x="64.04" y="36.04" width="12" height="16"/><rect class="cls-1" x="28.04" y="52.04" width="12" height="16"/><rect class="cls-1" x="64.04" y="52.04" width="12" height="16"/><polygon class="cls-1" points="40.04 68.04 28.04 68.04 28.04 84.04 40.04 80.04 40.04 68.04"/><polygon class="cls-1" points="76.04 68.04 64.04 68.04 64.04 80.04 76.04 84.04 76.04 68.04"/><rect class="cls-1" x="40.04" y="24.04" width="24" height="12"/><rect class="cls-1" x="40.04" y="36.04" width="24" height="12"/><rect class="cls-1" x="40.04" y="48.04" width="24" height="12"/><rect class="cls-1" x="40.04" y="60.04" width="24" height="12"/><rect class="cls-1" x="40.04" y="72.04" width="24" height="8"/><circle class="cls-1" cx="52.04" cy="128.04" r="52"/><circle class="cls-1" cx="52.04" cy="128.04" r="44"/><circle class="cls-2" cx="52.04" cy="128.04" r="40"/><circle class="cls-2" cx="52.04" cy="128.04" r="32"/><circle class="cls-2" cx="52.04" cy="82.52" r="1"/><text class="cls-3" transform="translate(50.68 80.14)">60</text><circle class="cls-2" cx="6.52" cy="128.04" r="1"/><text class="cls-3" transform="translate(1.88 129.11)">80</text><circle class="cls-2" cx="52.04" cy="173.56" r="1"/><text class="cls-3" transform="translate(50.17 177.86)">120</text><circle class="cls-2" cx="97.56" cy="128.04" r="1"/><text class="cls-3" transform="translate(96.56 126.32)">250</text><line class="cls-4" x1="52.04" y1="88.46" x2="52.04" y2="89.96"/><line class="cls-2" x1="51.21" y1="88.47" x2="51.24" y2="89.97"/><line class="cls-2" x1="50.38" y1="88.49" x2="50.44" y2="89.99"/><line class="cls-2" x1="49.55" y1="88.54" x2="49.65" y2="90.03"/><line class="cls-2" x1="48.73" y1="88.6" x2="48.85" y2="90.09"/><line class="cls-2" x1="47.08" y1="88.77" x2="47.26" y2="90.26"/><line class="cls-2" x1="46.26" y1="88.88" x2="46.47" y2="90.37"/><line class="cls-2" x1="45.44" y1="89.01" x2="45.69" y2="90.49"/><line class="cls-2" x1="44.62" y1="89.16" x2="44.9" y2="90.63"/><line class="cls-2" x1="43" y1="89.5" x2="43.34" y2="90.96"/><line class="cls-2" x1="42.19" y1="89.7" x2="42.57" y2="91.15"/><line class="cls-2" x1="41.39" y1="89.92" x2="41.8" y2="91.36"/><line class="cls-2" x1="40.6" y1="90.15" x2="41.03" y2="91.58"/><line class="cls-2" x1="39.02" y1="90.66" x2="39.51" y2="92.08"/><line class="cls-2" x1="38.24" y1="90.94" x2="38.76" y2="92.35"/><line class="cls-2" x1="37.47" y1="91.24" x2="38.02" y2="92.63"/><line class="cls-2" x1="36.7" y1="91.55" x2="37.28" y2="92.93"/><line class="cls-2" x1="35.19" y1="92.23" x2="35.82" y2="93.58"/><line class="cls-2" x1="34.44" y1="92.59" x2="35.11" y2="93.93"/><line class="cls-2" x1="33.7" y1="92.96" x2="34.4" y2="94.29"/><line class="cls-2" x1="32.97" y1="93.35" x2="33.69" y2="94.67"/><line class="cls-4" x1="32.25" y1="93.76" x2="33" y2="95.06"/><line class="cls-2" x1="31.53" y1="94.18" x2="32.31" y2="95.47"/><line class="cls-2" x1="30.83" y1="94.62" x2="31.63" y2="95.89"/><line class="cls-2" x1="30.13" y1="95.07" x2="30.97" y2="96.32"/><line class="cls-2" x1="29.45" y1="95.54" x2="30.31" y2="96.77"/><line class="cls-2" x1="28.11" y1="96.51" x2="29.02" y2="97.71"/><line class="cls-2" x1="27.45" y1="97.02" x2="28.38" y2="98.2"/><line class="cls-2" x1="26.81" y1="97.54" x2="27.77" y2="98.7"/><line class="cls-2" x1="26.18" y1="98.08" x2="27.16" y2="99.21"/><line class="cls-2" x1="24.94" y1="99.19" x2="25.97" y2="100.28"/><line class="cls-2" x1="24.35" y1="99.76" x2="25.4" y2="100.83"/><line class="cls-2" x1="23.76" y1="100.35" x2="24.83" y2="101.4"/><line class="cls-2" x1="23.19" y1="100.94" x2="24.28" y2="101.97"/><line class="cls-2" x1="22.08" y1="102.18" x2="23.21" y2="103.16"/><line class="cls-2" x1="21.54" y1="102.81" x2="22.7" y2="103.77"/><line class="cls-2" x1="21.02" y1="103.45" x2="22.2" y2="104.38"/><line class="cls-2" x1="20.51" y1="104.11" x2="21.71" y2="105.02"/><line class="cls-2" x1="19.54" y1="105.45" x2="20.77" y2="106.31"/><line class="cls-2" x1="19.07" y1="106.13" x2="20.32" y2="106.97"/><line class="cls-2" x1="18.62" y1="106.83" x2="19.89" y2="107.63"/><line class="cls-2" x1="18.18" y1="107.53" x2="19.47" y2="108.31"/><line class="cls-4" x1="17.76" y1="108.25" x2="19.06" y2="109"/><line class="cls-2" x1="17.35" y1="108.97" x2="18.67" y2="109.69"/><line class="cls-2" x1="16.96" y1="109.7" x2="18.29" y2="110.4"/><line class="cls-2" x1="16.59" y1="110.44" x2="17.93" y2="111.11"/><line class="cls-2" x1="16.23" y1="111.19" x2="17.58" y2="111.82"/><line class="cls-2" x1="15.55" y1="112.7" x2="16.93" y2="113.28"/><line class="cls-2" x1="15.24" y1="113.47" x2="16.63" y2="114.02"/><line class="cls-2" x1="14.94" y1="114.24" x2="16.35" y2="114.76"/><line class="cls-2" x1="14.66" y1="115.02" x2="16.08" y2="115.51"/><line class="cls-2" x1="14.15" y1="116.6" x2="15.58" y2="117.03"/><line class="cls-2" x1="13.92" y1="117.39" x2="15.36" y2="117.8"/><line class="cls-2" x1="13.7" y1="118.19" x2="15.15" y2="118.57"/><line class="cls-2" x1="13.5" y1="119" x2="14.96" y2="119.34"/><line class="cls-2" x1="13.16" y1="120.62" x2="14.63" y2="120.9"/><line class="cls-2" x1="13.01" y1="121.44" x2="14.49" y2="121.69"/><line class="cls-2" x1="12.88" y1="122.26" x2="14.37" y2="122.47"/><line class="cls-2" x1="12.77" y1="123.08" x2="14.26" y2="123.26"/><line class="cls-2" x1="12.6" y1="124.73" x2="14.09" y2="124.85"/><line class="cls-2" x1="12.54" y1="125.55" x2="14.03" y2="125.65"/><line class="cls-2" x1="12.49" y1="126.38" x2="13.99" y2="126.44"/><line class="cls-2" x1="12.47" y1="127.21" x2="13.97" y2="127.24"/><line class="cls-4" x1="12.46" y1="128.04" x2="13.96" y2="128.04"/><line class="cls-2" x1="12.47" y1="128.87" x2="13.97" y2="128.83"/><line class="cls-2" x1="12.49" y1="129.69" x2="13.99" y2="129.63"/><line class="cls-2" x1="12.54" y1="130.52" x2="14.03" y2="130.43"/><line class="cls-2" x1="12.6" y1="131.35" x2="14.09" y2="131.22"/><line class="cls-2" x1="12.77" y1="133" x2="14.26" y2="132.81"/><line class="cls-2" x1="12.88" y1="133.82" x2="14.37" y2="133.6"/><line class="cls-2" x1="13.01" y1="134.64" x2="14.49" y2="134.39"/><line class="cls-2" x1="13.16" y1="135.45" x2="14.63" y2="135.17"/><line class="cls-2" x1="13.5" y1="137.08" x2="14.96" y2="136.73"/><line class="cls-2" x1="13.7" y1="137.88" x2="15.15" y2="137.51"/><line class="cls-2" x1="13.92" y1="138.68" x2="15.36" y2="138.28"/><line class="cls-2" x1="14.15" y1="139.48" x2="15.58" y2="139.04"/><line class="cls-2" x1="14.66" y1="141.05" x2="16.08" y2="140.56"/><line class="cls-2" x1="14.94" y1="141.83" x2="16.35" y2="141.31"/><line class="cls-2" x1="15.24" y1="142.61" x2="16.63" y2="142.06"/><line class="cls-2" x1="15.55" y1="143.37" x2="16.93" y2="142.79"/><line class="cls-2" x1="16.23" y1="144.89" x2="17.58" y2="144.25"/><line class="cls-2" x1="16.59" y1="145.64" x2="17.93" y2="144.97"/><line class="cls-2" x1="16.96" y1="146.37" x2="18.29" y2="145.68"/><line class="cls-2" x1="17.35" y1="147.1" x2="18.67" y2="146.38"/><line class="cls-4" x1="17.76" y1="147.83" x2="19.06" y2="147.08"/><line class="cls-2" x1="18.18" y1="148.54" x2="19.47" y2="147.76"/><line class="cls-2" x1="18.62" y1="149.24" x2="19.89" y2="148.44"/><line class="cls-2" x1="19.07" y1="149.94" x2="20.32" y2="149.11"/><line class="cls-2" x1="19.54" y1="150.63" x2="20.77" y2="149.77"/><line class="cls-2" x1="20.51" y1="151.97" x2="21.71" y2="151.06"/><line class="cls-2" x1="21.02" y1="152.62" x2="22.2" y2="151.69"/><line class="cls-2" x1="21.54" y1="153.27" x2="22.7" y2="152.31"/><line class="cls-2" x1="22.08" y1="153.9" x2="23.21" y2="152.92"/><line class="cls-2" x1="23.19" y1="155.13" x2="24.28" y2="154.1"/><line class="cls-2" x1="23.76" y1="155.73" x2="24.83" y2="154.68"/><line class="cls-2" x1="24.35" y1="156.32" x2="25.4" y2="155.24"/><line class="cls-2" x1="24.94" y1="156.89" x2="25.97" y2="155.8"/><line class="cls-2" x1="26.18" y1="158" x2="27.16" y2="156.86"/><line class="cls-2" x1="26.81" y1="158.53" x2="27.77" y2="157.38"/><line class="cls-2" x1="27.45" y1="159.06" x2="28.38" y2="157.88"/><line class="cls-2" x1="28.11" y1="159.56" x2="29.02" y2="158.37"/><line class="cls-2" x1="29.45" y1="160.54" x2="30.31" y2="159.31"/><line class="cls-2" x1="30.13" y1="161" x2="30.97" y2="159.75"/><line class="cls-2" x1="30.83" y1="161.46" x2="31.63" y2="160.19"/><line class="cls-2" x1="31.53" y1="161.89" x2="32.31" y2="160.61"/><line class="cls-4" x1="32.25" y1="162.31" x2="33" y2="161.01"/><line class="cls-2" x1="32.97" y1="162.72" x2="33.69" y2="161.41"/><line class="cls-2" x1="33.7" y1="163.11" x2="34.4" y2="161.78"/><line class="cls-2" x1="34.44" y1="163.49" x2="35.11" y2="162.15"/><line class="cls-2" x1="35.19" y1="163.85" x2="35.82" y2="162.49"/><line class="cls-2" x1="36.7" y1="164.52" x2="37.28" y2="163.14"/><line class="cls-2" x1="37.47" y1="164.84" x2="38.02" y2="163.44"/><line class="cls-2" x1="38.24" y1="165.13" x2="38.76" y2="163.73"/><line class="cls-2" x1="39.02" y1="165.41" x2="39.51" y2="164"/><line class="cls-2" x1="40.6" y1="165.93" x2="41.03" y2="164.49"/><line class="cls-2" x1="41.39" y1="166.16" x2="41.8" y2="164.71"/><line class="cls-2" x1="42.19" y1="166.37" x2="42.57" y2="164.92"/><line class="cls-2" x1="43" y1="166.57" x2="43.34" y2="165.11"/><line class="cls-2" x1="44.62" y1="166.92" x2="44.9" y2="165.44"/><line class="cls-2" x1="45.44" y1="167.06" x2="45.69" y2="165.58"/><line class="cls-2" x1="46.26" y1="167.19" x2="46.47" y2="165.71"/><line class="cls-2" x1="47.08" y1="167.3" x2="47.26" y2="165.82"/><line class="cls-2" x1="48.73" y1="167.48" x2="48.85" y2="165.98"/><line class="cls-2" x1="49.55" y1="167.54" x2="49.65" y2="166.04"/><line class="cls-2" x1="50.38" y1="167.58" x2="50.44" y2="166.08"/><line class="cls-2" x1="51.21" y1="167.61" x2="51.24" y2="166.11"/><line class="cls-4" x1="52.04" y1="167.62" x2="52.04" y2="166.12"/><line class="cls-2" x1="52.87" y1="167.61" x2="52.83" y2="166.11"/><line class="cls-2" x1="53.69" y1="167.58" x2="53.63" y2="166.08"/><line class="cls-2" x1="54.52" y1="167.54" x2="54.43" y2="166.04"/><line class="cls-2" x1="55.35" y1="167.48" x2="55.22" y2="165.98"/><line class="cls-2" x1="57" y1="167.3" x2="56.81" y2="165.82"/><line class="cls-2" x1="57.82" y1="167.19" x2="57.6" y2="165.71"/><line class="cls-2" x1="58.64" y1="167.06" x2="58.39" y2="165.58"/><line class="cls-2" x1="59.45" y1="166.92" x2="59.17" y2="165.44"/><line class="cls-2" x1="61.08" y1="166.57" x2="60.73" y2="165.11"/><line class="cls-2" x1="61.88" y1="166.37" x2="61.51" y2="164.92"/><line class="cls-2" x1="62.68" y1="166.16" x2="62.28" y2="164.71"/><line class="cls-2" x1="63.48" y1="165.93" x2="63.04" y2="164.49"/><line class="cls-2" x1="65.05" y1="165.41" x2="64.56" y2="164"/><line class="cls-2" x1="65.83" y1="165.13" x2="65.31" y2="163.73"/><line class="cls-2" x1="66.61" y1="164.84" x2="66.06" y2="163.44"/><line class="cls-2" x1="67.37" y1="164.52" x2="66.79" y2="163.14"/><line class="cls-2" x1="68.89" y1="163.85" x2="68.25" y2="162.49"/><line class="cls-2" x1="69.64" y1="163.49" x2="68.97" y2="162.15"/><line class="cls-2" x1="70.37" y1="163.11" x2="69.68" y2="161.78"/><line class="cls-2" x1="71.1" y1="162.72" x2="70.38" y2="161.41"/><line class="cls-4" x1="71.83" y1="162.31" x2="71.08" y2="161.01"/><line class="cls-2" x1="72.54" y1="161.89" x2="71.76" y2="160.61"/><line class="cls-2" x1="73.24" y1="161.46" x2="72.44" y2="160.19"/><line class="cls-2" x1="73.94" y1="161" x2="73.11" y2="159.75"/><line class="cls-2" x1="74.63" y1="160.54" x2="73.77" y2="159.31"/><line class="cls-2" x1="75.97" y1="159.56" x2="75.06" y2="158.37"/><line class="cls-2" x1="76.62" y1="159.06" x2="75.69" y2="157.88"/><line class="cls-2" x1="77.27" y1="158.53" x2="76.31" y2="157.38"/><line class="cls-2" x1="77.9" y1="158" x2="76.92" y2="156.86"/><line class="cls-2" x1="79.13" y1="156.89" x2="78.1" y2="155.8"/><line class="cls-2" x1="79.73" y1="156.32" x2="78.68" y2="155.24"/><line class="cls-2" x1="80.32" y1="155.73" x2="79.24" y2="154.68"/><line class="cls-2" x1="80.89" y1="155.13" x2="79.8" y2="154.1"/><line class="cls-2" x1="82" y1="153.9" x2="80.86" y2="152.92"/><line class="cls-2" x1="82.53" y1="153.27" x2="81.38" y2="152.31"/><line class="cls-2" x1="83.06" y1="152.62" x2="81.88" y2="151.69"/><line class="cls-2" x1="83.56" y1="151.97" x2="82.37" y2="151.06"/><line class="cls-2" x1="84.54" y1="150.63" x2="83.31" y2="149.77"/><line class="cls-2" x1="85" y1="149.94" x2="83.75" y2="149.11"/><line class="cls-2" x1="85.46" y1="149.24" x2="84.19" y2="148.44"/><line class="cls-2" x1="85.89" y1="148.54" x2="84.61" y2="147.76"/><line class="cls-4" x1="86.31" y1="147.83" x2="85.01" y2="147.08"/><line class="cls-2" x1="86.72" y1="147.1" x2="85.41" y2="146.38"/><line class="cls-2" x1="87.11" y1="146.37" x2="85.78" y2="145.68"/><line class="cls-2" x1="87.49" y1="145.64" x2="86.15" y2="144.97"/><line class="cls-2" x1="87.85" y1="144.89" x2="86.49" y2="144.25"/><line class="cls-2" x1="88.52" y1="143.37" x2="87.14" y2="142.79"/><line class="cls-2" x1="88.84" y1="142.61" x2="87.44" y2="142.06"/><line class="cls-2" x1="89.13" y1="141.83" x2="87.73" y2="141.31"/><line class="cls-2" x1="89.41" y1="141.05" x2="88" y2="140.56"/><line class="cls-2" x1="89.93" y1="139.48" x2="88.49" y2="139.04"/><line class="cls-2" x1="90.16" y1="138.68" x2="88.71" y2="138.28"/><line class="cls-2" x1="90.37" y1="137.88" x2="88.92" y2="137.51"/><line class="cls-2" x1="90.57" y1="137.08" x2="89.11" y2="136.73"/><line class="cls-2" x1="90.92" y1="135.45" x2="89.44" y2="135.17"/><line class="cls-2" x1="91.06" y1="134.64" x2="89.58" y2="134.39"/><line class="cls-2" x1="91.19" y1="133.82" x2="89.71" y2="133.6"/><line class="cls-2" x1="91.3" y1="133" x2="89.82" y2="132.81"/><line class="cls-2" x1="91.48" y1="131.35" x2="89.98" y2="131.22"/><line class="cls-2" x1="91.54" y1="130.52" x2="90.04" y2="130.43"/><line class="cls-2" x1="91.58" y1="129.69" x2="90.08" y2="129.63"/><line class="cls-2" x1="91.61" y1="128.87" x2="90.11" y2="128.83"/><line class="cls-4" x1="91.62" y1="128.04" x2="90.12" y2="128.04"/><line class="cls-2" x1="91.61" y1="127.21" x2="90.11" y2="127.24"/><line class="cls-2" x1="91.58" y1="126.38" x2="90.08" y2="126.44"/><line class="cls-2" x1="91.54" y1="125.55" x2="90.04" y2="125.65"/><line class="cls-2" x1="91.48" y1="124.73" x2="89.98" y2="124.85"/><line class="cls-2" x1="91.3" y1="123.08" x2="89.82" y2="123.26"/><line class="cls-2" x1="91.19" y1="122.26" x2="89.71" y2="122.47"/><line class="cls-2" x1="91.06" y1="121.44" x2="89.58" y2="121.69"/><line class="cls-2" x1="90.92" y1="120.62" x2="89.44" y2="120.9"/><line class="cls-2" x1="90.57" y1="119" x2="89.11" y2="119.34"/><line class="cls-2" x1="90.37" y1="118.19" x2="88.92" y2="118.57"/><line class="cls-2" x1="90.16" y1="117.39" x2="88.71" y2="117.8"/><line class="cls-2" x1="89.93" y1="116.6" x2="88.49" y2="117.03"/><line class="cls-2" x1="89.41" y1="115.02" x2="88" y2="115.51"/><line class="cls-2" x1="89.13" y1="114.24" x2="87.73" y2="114.76"/><line class="cls-2" x1="88.84" y1="113.47" x2="87.44" y2="114.02"/><line class="cls-2" x1="88.52" y1="112.7" x2="87.14" y2="113.28"/><line class="cls-2" x1="87.85" y1="111.19" x2="86.49" y2="111.82"/><line class="cls-2" x1="87.49" y1="110.44" x2="86.15" y2="111.11"/><line class="cls-2" x1="87.11" y1="109.7" x2="85.78" y2="110.4"/><line class="cls-2" x1="86.72" y1="108.97" x2="85.41" y2="109.69"/><line class="cls-4" x1="86.31" y1="108.25" x2="85.01" y2="109"/><line class="cls-2" x1="85.89" y1="107.53" x2="84.61" y2="108.31"/><line class="cls-2" x1="85.46" y1="106.83" x2="84.19" y2="107.63"/><line class="cls-2" x1="85" y1="106.13" x2="83.75" y2="106.97"/><line class="cls-2" x1="84.54" y1="105.45" x2="83.31" y2="106.31"/><line class="cls-2" x1="83.56" y1="104.11" x2="82.37" y2="105.02"/><line class="cls-2" x1="83.06" y1="103.45" x2="81.88" y2="104.38"/><line class="cls-2" x1="82.53" y1="102.81" x2="81.38" y2="103.77"/><line class="cls-2" x1="82" y1="102.18" x2="80.86" y2="103.16"/><line class="cls-2" x1="80.89" y1="100.94" x2="79.8" y2="101.97"/><line class="cls-2" x1="80.32" y1="100.35" x2="79.24" y2="101.4"/><line class="cls-2" x1="79.73" y1="99.76" x2="78.68" y2="100.83"/><line class="cls-2" x1="79.13" y1="99.19" x2="78.1" y2="100.28"/><line class="cls-2" x1="77.9" y1="98.08" x2="76.92" y2="99.21"/><line class="cls-2" x1="77.27" y1="97.54" x2="76.31" y2="98.7"/><line class="cls-2" x1="76.62" y1="97.02" x2="75.69" y2="98.2"/><line class="cls-2" x1="75.97" y1="96.51" x2="75.06" y2="97.71"/><line class="cls-2" x1="74.63" y1="95.54" x2="73.77" y2="96.77"/><line class="cls-2" x1="73.94" y1="95.07" x2="73.11" y2="96.32"/><line class="cls-2" x1="73.24" y1="94.62" x2="72.44" y2="95.89"/><line class="cls-2" x1="72.54" y1="94.18" x2="71.76" y2="95.47"/><line class="cls-4" x1="71.83" y1="93.76" x2="71.08" y2="95.06"/><line class="cls-2" x1="71.1" y1="93.35" x2="70.38" y2="94.67"/><line class="cls-2" x1="70.37" y1="92.96" x2="69.68" y2="94.29"/><line class="cls-2" x1="69.64" y1="92.59" x2="68.97" y2="93.93"/><line class="cls-2" x1="68.89" y1="92.23" x2="68.25" y2="93.58"/><line class="cls-2" x1="67.37" y1="91.55" x2="66.79" y2="92.93"/><line class="cls-2" x1="66.61" y1="91.24" x2="66.06" y2="92.63"/><line class="cls-2" x1="65.83" y1="90.94" x2="65.31" y2="92.35"/><line class="cls-2" x1="65.05" y1="90.66" x2="64.56" y2="92.08"/><line class="cls-2" x1="63.48" y1="90.15" x2="63.04" y2="91.58"/><line class="cls-2" x1="62.68" y1="89.92" x2="62.28" y2="91.36"/><line class="cls-2" x1="61.88" y1="89.7" x2="61.51" y2="91.15"/><line class="cls-2" x1="61.08" y1="89.5" x2="60.73" y2="90.96"/><line class="cls-2" x1="59.45" y1="89.16" x2="59.17" y2="90.63"/><line class="cls-2" x1="58.64" y1="89.01" x2="58.39" y2="90.49"/><line class="cls-2" x1="57.82" y1="88.88" x2="57.6" y2="90.37"/><line class="cls-2" x1="57" y1="88.77" x2="56.81" y2="90.26"/><line class="cls-2" x1="55.35" y1="88.6" x2="55.22" y2="90.09"/><line class="cls-2" x1="54.52" y1="88.54" x2="54.43" y2="90.03"/><line class="cls-2" x1="53.69" y1="88.49" x2="53.63" y2="89.99"/><line class="cls-2" x1="52.87" y1="88.47" x2="52.83" y2="89.97"/><line class="cls-2" x1="47.9" y1="88.7" x2="48.53" y2="94.66"/><line class="cls-2" x1="43.81" y1="89.34" x2="45.06" y2="95.21"/><line class="cls-2" x1="39.81" y1="90.42" x2="41.67" y2="96.12"/><line class="cls-2" x1="35.95" y1="91.9" x2="38.39" y2="97.38"/><line class="cls-2" x1="28.79" y1="96.03" x2="32.31" y2="100.89"/><line class="cls-2" x1="25.57" y1="98.64" x2="29.58" y2="103.1"/><line class="cls-2" x1="22.64" y1="101.57" x2="27.1" y2="105.58"/><line class="cls-2" x1="20.03" y1="104.79" x2="24.89" y2="108.31"/><line class="cls-2" x1="15.9" y1="111.95" x2="21.38" y2="114.39"/><line class="cls-2" x1="14.42" y1="115.81" x2="20.12" y2="117.67"/><line class="cls-2" x1="13.34" y1="119.81" x2="19.21" y2="121.06"/><line class="cls-2" x1="12.7" y1="123.9" x2="18.66" y2="124.53"/><line class="cls-2" x1="12.7" y1="132.17" x2="18.66" y2="131.55"/><line class="cls-2" x1="13.34" y1="136.26" x2="19.21" y2="135.01"/><line class="cls-2" x1="14.42" y1="140.26" x2="20.12" y2="138.41"/><line class="cls-2" x1="15.9" y1="144.13" x2="21.38" y2="141.69"/><line class="cls-2" x1="20.03" y1="151.29" x2="24.89" y2="147.76"/><line class="cls-2" x1="22.64" y1="154.51" x2="27.1" y2="150.49"/><line class="cls-2" x1="25.57" y1="157.44" x2="29.58" y2="152.98"/><line class="cls-2" x1="28.79" y1="160.04" x2="32.31" y2="155.19"/><line class="cls-2" x1="35.95" y1="164.18" x2="38.39" y2="158.69"/><line class="cls-2" x1="39.81" y1="165.66" x2="41.67" y2="159.95"/><line class="cls-2" x1="43.81" y1="166.73" x2="45.06" y2="160.86"/><line class="cls-2" x1="47.9" y1="167.38" x2="48.53" y2="161.41"/><line class="cls-2" x1="56.17" y1="167.38" x2="55.55" y2="161.41"/><line class="cls-2" x1="60.26" y1="166.73" x2="59.01" y2="160.86"/><line class="cls-2" x1="64.26" y1="165.66" x2="62.41" y2="159.95"/><line class="cls-2" x1="68.13" y1="164.18" x2="65.69" y2="158.69"/><line class="cls-2" x1="75.29" y1="160.04" x2="71.76" y2="155.19"/><line class="cls-2" x1="78.51" y1="157.44" x2="74.49" y2="152.98"/><line class="cls-2" x1="81.44" y1="154.51" x2="76.98" y2="150.49"/><line class="cls-2" x1="84.04" y1="151.29" x2="79.19" y2="147.76"/><line class="cls-2" x1="88.18" y1="144.13" x2="82.69" y2="141.69"/><line class="cls-2" x1="89.66" y1="140.26" x2="83.95" y2="138.41"/><line class="cls-2" x1="90.73" y1="136.26" x2="84.86" y2="135.01"/><line class="cls-2" x1="91.38" y1="132.17" x2="85.41" y2="131.55"/><line class="cls-2" x1="91.38" y1="123.9" x2="85.41" y2="124.53"/><line class="cls-2" x1="90.73" y1="119.81" x2="84.86" y2="121.06"/><line class="cls-2" x1="89.66" y1="115.81" x2="83.95" y2="117.67"/><line class="cls-2" x1="88.18" y1="111.95" x2="82.69" y2="114.39"/><line class="cls-2" x1="84.04" y1="104.79" x2="79.19" y2="108.31"/><line class="cls-2" x1="81.44" y1="101.57" x2="76.98" y2="105.58"/><line class="cls-2" x1="78.51" y1="98.64" x2="74.49" y2="103.1"/><line class="cls-2" x1="75.29" y1="96.03" x2="71.76" y2="100.89"/><line class="cls-2" x1="68.13" y1="91.9" x2="65.69" y2="97.38"/><line class="cls-2" x1="64.26" y1="90.42" x2="62.41" y2="96.12"/><line class="cls-2" x1="60.26" y1="89.34" x2="59.01" y2="95.21"/><line class="cls-2" x1="56.17" y1="88.7" x2="55.55" y2="94.66"/><rect class="cls-2" x="51.04" y="90.75" width="2" height="9"/><rect class="cls-2" x="110.61" y="95.11" width="2" height="9" transform="translate(-110.81 69.19) rotate(-30)"/><rect class="cls-2" x="98.61" y="107.11" width="2" height="9" transform="translate(-122.81 142.1) rotate(-60)"/><rect class="cls-2" x="94.22" y="123.5" width="2" height="9" transform="translate(-108.75 223.25) rotate(-90)"/><rect class="cls-2" x="98.61" y="139.89" width="2" height="9" transform="translate(-51.6 302.89) rotate(-120)"/><rect class="cls-2" x="110.61" y="151.89" width="2" height="9" transform="translate(54.1 347.67) rotate(-150)"/><rect class="cls-2" x="127" y="156.28" width="2" height="9" transform="translate(180.04 321.61) rotate(-180)"/><rect class="cls-2" x="143.39" y="151.89" width="2" height="9" transform="translate(271.67 219.67) rotate(150)"/><rect class="cls-2" x="155.39" y="139.89" width="2" height="9" transform="translate(283.67 81.19) rotate(120)"/><rect class="cls-2" x="159.78" y="123.5" width="2" height="9" transform="translate(212.82 -32.75) rotate(90)"/><rect class="cls-2" x="155.39" y="107.11" width="2" height="9" transform="translate(98.89 -79.6) rotate(60)"/><rect class="cls-2" x="143.39" y="95.11" width="2" height="9" transform="translate(-6.81 -58.81) rotate(30)"/><circle class="cls-2" cx="34.04" cy="128.04" r="10"/><circle class="cls-2" cx="52.04" cy="146.04" r="10"/><line class="cls-2" x1="24.87" y1="128.04" x2="27.87" y2="128.04"/><line class="cls-2" x1="26.1" y1="132.62" x2="28.7" y2="131.12"/><line class="cls-2" x1="29.45" y1="135.98" x2="30.95" y2="133.38"/><line class="cls-2" x1="34.04" y1="137.21" x2="34.04" y2="134.21"/><line class="cls-2" x1="38.62" y1="135.98" x2="37.12" y2="133.38"/><line class="cls-2" x1="41.98" y1="132.62" x2="39.38" y2="131.12"/><line class="cls-2" x1="43.21" y1="128.04" x2="40.21" y2="128.04"/><line class="cls-2" x1="41.98" y1="123.45" x2="39.38" y2="124.95"/><line class="cls-2" x1="38.62" y1="120.1" x2="37.12" y2="122.7"/><line class="cls-2" x1="34.04" y1="118.87" x2="34.04" y2="121.87"/><line class="cls-2" x1="29.45" y1="120.1" x2="30.95" y2="122.7"/><line class="cls-2" x1="26.1" y1="123.45" x2="28.7" y2="124.95"/><circle class="cls-2" cx="70.04" cy="128.04" r="10"/><line class="cls-2" x1="60.87" y1="128.04" x2="63.87" y2="128.04"/><line class="cls-2" x1="62.1" y1="132.62" x2="64.7" y2="131.12"/><line class="cls-2" x1="65.45" y1="135.98" x2="66.95" y2="133.38"/><line class="cls-2" x1="70.04" y1="137.21" x2="70.04" y2="134.21"/><line class="cls-2" x1="74.62" y1="135.98" x2="73.12" y2="133.38"/><line class="cls-2" x1="77.98" y1="132.62" x2="75.38" y2="131.12"/><line class="cls-2" x1="79.21" y1="128.04" x2="76.21" y2="128.04"/><line class="cls-2" x1="77.98" y1="123.45" x2="75.38" y2="124.95"/><line class="cls-2" x1="74.62" y1="120.1" x2="73.12" y2="122.7"/><line class="cls-2" x1="70.04" y1="118.87" x2="70.04" y2="121.87"/><line class="cls-2" x1="65.45" y1="120.1" x2="66.95" y2="122.7"/><line class="cls-2" x1="62.1" y1="123.45" x2="64.7" y2="124.95"/><line class="cls-2" x1="42.87" y1="146.03" x2="45.87" y2="146.03"/><line class="cls-2" x1="44.1" y1="150.61" x2="46.7" y2="149.11"/><line class="cls-2" x1="47.45" y1="153.97" x2="48.95" y2="151.37"/><line class="cls-2" x1="52.04" y1="155.19" x2="52.04" y2="152.19"/><line class="cls-2" x1="56.62" y1="153.97" x2="55.12" y2="151.37"/><line class="cls-2" x1="59.98" y1="150.61" x2="57.38" y2="149.11"/><line class="cls-2" x1="61.21" y1="146.03" x2="58.21" y2="146.03"/><line class="cls-2" x1="59.98" y1="141.44" x2="57.38" y2="142.94"/><line class="cls-2" x1="56.62" y1="138.09" x2="55.12" y2="140.69"/><line class="cls-2" x1="52.04" y1="136.86" x2="52.04" y2="139.86"/><line class="cls-2" x1="47.45" y1="138.09" x2="48.95" y2="140.69"/><line class="cls-2" x1="44.1" y1="141.44" x2="46.7" y2="142.94"/><circle class="cls-2" cx="49.64" cy="98.79" r="1"/><circle class="cls-2" cx="54.44" cy="98.79" r="1"/><path class="cls-5" d="M171.31,156.59l2.46,1.43,2.85-4.93-2.46-1.43,0,0a53.72,53.72,0,0,1-2.82,5" transform="translate(-75.96 0.04)"/><rect class="cls-5" x="172.98" y="154.85" width="7.28" height="3.34" transform="translate(-123.2 231.26) rotate(-60)"/><path class="cls-5" d="M171.31,100.3l2.46-1.42,2.85,4.93-2.46,1.43,0,0a52.44,52.44,0,0,0-2.82-5" transform="translate(-75.96 0.04)"/><rect class="cls-5" x="172.98" y="98.71" width="7.28" height="3.34" transform="translate(99.28 -102.73) rotate(60)"/><rect class="cls-6" x="104.04" y="124.04" width="8" height="8" rx="1" ry="1"/><path class="cls-6" d="M180.8,124.41h6.39l.69.41-.69.48H180.8l-.67-.47Z" transform="translate(-75.96 0.04)"/><path class="cls-6" d="M180.8,125.3h6.39l.69.42-.69.48H180.8l-.67-.47Z" transform="translate(-75.96 0.04)"/><path class="cls-6" d="M180.8,126.2h6.39l.69.42-.69.48H180.8l-.67-.47Z" transform="translate(-75.96 0.04)"/><path class="cls-6" d="M180.8,127.1h6.39l.69.42-.69.48H180.8l-.67-.47Z" transform="translate(-75.96 0.04)"/><path class="cls-6" d="M180.8,128h6.39l.69.41-.69.49H180.8l-.67-.47Z" transform="translate(-75.96 0.04)"/><path class="cls-6" d="M180.8,128.9h6.39l.69.41-.69.49H180.8l-.67-.47Z" transform="translate(-75.96 0.04)"/><path class="cls-6" d="M180.8,129.8h6.39l.69.41-.69.49H180.8l-.67-.48Z" transform="translate(-75.96 0.04)"/><path class="cls-6" d="M180.8,130.7h6.39l.69.41-.69.48H180.8l-.67-.47Z" transform="translate(-75.96 0.04)"/><circle class="cls-5" cx="52.15" cy="128.13" r="2"/><circle class="cls-5" cx="52.15" cy="128.13" r="4"/><rect class="cls-5" x="51.65" y="110.51" width="1" height="30"/><path class="cls-5" d="M116.16,126.11c-1.09-.18-2.85-.52-3.93-.77l-14.48-3.26c-1.07-.24-1.06-.29,0-.1l14.63,2.52c1.09.19,2.85.54,3.92.79l11,2.55c1.07.25,1.06.31,0,.12Z" transform="translate(-75.96 0.04)"/><path class="cls-5" d="M128.89,127.7c-.95.55-1,.5-.07-.1l9.43-6.25c.92-.61,2.45-1.56,3.4-2.12l12.82-7.48c.95-.56,1-.52.06.08L142.1,120c-.92.61-2.45,1.55-3.4,2.1Z" transform="translate(-75.96 0.04)"/></svg>