<svg id="Layer_1" data-name="Layer 1" xmlns="http://www.w3.org/2000/svg" viewBox="0 0 104.1 256.1"><defs><style>.cls-1,.cls-13{fill:none;stroke-miterlimit:10;}.cls-1{stroke:#666;stroke-width:0.1px;}.cls-2{font-size:12px;font-family:GothamRounded-Light, Gotham Rounded;}.cls-3{font-size:3px;font-family:BrutaProExtended-Regular, Bruta Pro Extended;}.cls-4{letter-spacing:-0.07em;}.cls-5{letter-spacing:-0.03em;}.cls-6{letter-spacing:-0.03em;}.cls-7{letter-spacing:-0.09em;}.cls-8{letter-spacing:-0.03em;}.cls-9{letter-spacing:0em;}.cls-10{font-size:2.5px;}.cls-11{letter-spacing:-0.03em;}.cls-12{letter-spacing:0em;}.cls-13{stroke:#000;stroke-width:0.08px;}</style></defs><title>panerai</title><path class="cls-1" d="M148,244c-2.05,6.87-10.22,12-20,12s-18-5.13-20-12h-4V180h48v64Z" transform="translate(-76.51 0.05)"/><path class="cls-1" d="M148,12C146,5.13,137.78,0,128,0s-18,5.13-20,12h-4V76h48V12Z" transform="translate(-76.51 0.05)"/><polyline class="cls-1" points="31.49 244.05 31.49 204.05 71.49 204.05 71.49 244.05"/><polyline class="cls-1" points="31.49 12.05 31.49 52.05 71.49 52.05 71.49 12.05"/><circle class="cls-1" cx="52.05" cy="127.62" r="48.17"/><circle class="cls-1" cx="51.52" cy="128.13" r="40.4"/><line class="cls-1" x1="33.7" y1="97.36" x2="39.61" y2="107.6"/><line class="cls-1" x1="20.69" y1="110.36" x2="30.93" y2="116.28"/><line class="cls-1" x1="15.93" y1="128.13" x2="27.76" y2="128.13"/><line class="cls-1" x1="20.69" y1="145.89" x2="30.93" y2="139.98"/><line class="cls-1" x1="33.7" y1="158.9" x2="39.61" y2="148.66"/><line class="cls-1" x1="69.23" y1="158.9" x2="63.31" y2="148.66"/><line class="cls-1" x1="82.23" y1="145.89" x2="71.99" y2="139.98"/><line class="cls-1" x1="82.23" y1="110.36" x2="71.99" y2="116.28"/><line class="cls-1" x1="69.23" y1="97.36" x2="63.31" y2="107.6"/><path class="cls-1" d="M171.77,163" transform="translate(-76.51 0.05)"/><path class="cls-1" d="M160.84,92.79" transform="translate(-76.51 0.05)"/><path class="cls-1" d="M96.53,92.79" transform="translate(-76.51 0.05)"/><path class="cls-1" d="M87,168.85s16.79,10.23,42.11,10.23,41.05-10.23,41.05-10.23a81.39,81.39,0,0,0,10.41-40.21c0-23.78-8.68-39.64-10.41-41.34S150.06,77.08,129.1,77.08,90.29,84.06,87,87.3s-10.43,22.46-10.43,41.3S83.93,165.85,87,168.85Z" transform="translate(-76.51 0.05)"/><text class="cls-2" transform="translate(45.53 99.34)">12</text><text class="cls-2" transform="translate(79.26 132.23)">3</text><text class="cls-2" transform="translate(47.91 163.66)">6</text><text class="cls-3" transform="translate(43.05 142.94)"><tspan class="cls-4">P</tspan><tspan x="2.47" y="0">ANE</tspan><tspan class="cls-5" x="10.63" y="0">R</tspan><tspan x="13.31" y="0">AI</tspan><tspan x="1.7" y="3.6">8 </tspan><tspan class="cls-6" x="4.81" y="3.6">D</tspan><tspan class="cls-7" x="7.73" y="3.6">A</tspan><tspan class="cls-8" x="10.11" y="3.6">Y</tspan><tspan class="cls-9" x="12.64" y="3.6">S</tspan></text><text class="cls-3" transform="translate(41.71 112.32)"><tspan class="cls-6">R</tspan><tspan x="2.67" y="0">ADIOMIR</tspan><tspan class="cls-10"><tspan x="-0.11" y="3">BL</tspan><tspan class="cls-11" x="4.01" y="3">A</tspan><tspan class="cls-12" x="6.15" y="3">CK SEAL</tspan></tspan></text><circle class="cls-13" cx="52.33" cy="127.21" r="2"/><circle class="cls-13" cx="52.33" cy="127.21" r="4"/><rect class="cls-13" x="51.83" y="109.6" width="1" height="30"/><path class="cls-13" d="M116.89,125.18c-1.08-.18-2.85-.52-3.92-.76l-14.49-3.27c-1.07-.24-1.06-.28,0-.1l14.64,2.52c1.08.19,2.85.55,3.92.79l11,2.56c1.07.24,1.06.3,0,.12Z" transform="translate(-76.51 0.05)"/><path class="cls-13" d="M129.63,126.78c-1,.55-1,.5-.07-.11l9.43-6.25c.92-.61,2.44-1.56,3.39-2.11l12.83-7.49c.95-.56,1-.52,0,.09L142.84,119c-.92.6-2.45,1.54-3.41,2.09Z" transform="translate(-76.51 0.05)"/></svg>