<svg id="Layer_1" data-name="Layer 1" xmlns="http://www.w3.org/2000/svg" viewBox="0 0 112.32 256.1"><defs><style>.cls-1,.cls-2{fill:none;stroke-miterlimit:10;}.cls-1{stroke:#666;stroke-width:0.1px;}.cls-2{stroke:#000;stroke-width:0.08px;}.cls-3{font-size:3px;font-family:XenuRg-Regular, Xenu;}.cls-4{letter-spacing:-0.02em;}</style></defs><title>zenith</title><circle class="cls-1" cx="52.05" cy="128.05" r="52"/><circle class="cls-1" cx="52.05" cy="128.05" r="48"/><circle class="cls-1" cx="52.05" cy="128.05" r="43"/><circle class="cls-1" cx="52.05" cy="128.05" r="38"/><path class="cls-1" d="M148,244c-2.05,6.87-10.22,12-20,12s-18-5.13-20-12h-4V180h48v64Z" transform="translate(-75.95 0.05)"/><path class="cls-1" d="M148,12C146,5.13,137.78,0,128,0s-18,5.13-20,12h-4V76h48V12Z" transform="translate(-75.95 0.05)"/><rect class="cls-1" x="28.05" y="180.05" width="4" height="64"/><rect class="cls-1" x="72.05" y="180.05" width="4" height="64"/><rect class="cls-1" x="28.05" y="12.05" width="4" height="64"/><rect class="cls-1" x="72.05" y="12.05" width="4" height="64"/><line class="cls-1" x1="49.73" y1="91.24" x2="49.8" y2="92.24"/><line class="cls-1" x1="48.96" y1="91.3" x2="49.05" y2="92.29"/><line class="cls-1" x1="47.43" y1="91.46" x2="47.55" y2="92.45"/><line class="cls-1" x1="46.66" y1="91.56" x2="46.81" y2="92.55"/><line class="cls-1" x1="45.9" y1="91.69" x2="46.07" y2="92.67"/><line class="cls-1" x1="45.14" y1="91.82" x2="45.33" y2="92.8"/><line class="cls-1" x1="43.63" y1="92.14" x2="43.86" y2="93.12"/><line class="cls-1" x1="42.88" y1="92.33" x2="43.13" y2="93.3"/><line class="cls-1" x1="42.13" y1="92.53" x2="42.4" y2="93.49"/><line class="cls-1" x1="41.39" y1="92.74" x2="41.68" y2="93.7"/><line class="cls-1" x1="39.92" y1="93.22" x2="40.25" y2="94.16"/><line class="cls-1" x1="39.19" y1="93.48" x2="39.54" y2="94.42"/><line class="cls-1" x1="38.47" y1="93.76" x2="38.84" y2="94.69"/><line class="cls-1" x1="37.76" y1="94.05" x2="38.15" y2="94.97"/><line class="cls-1" x1="36.35" y1="94.68" x2="36.77" y2="95.58"/><line class="cls-1" x1="35.65" y1="95.01" x2="36.1" y2="95.91"/><line class="cls-1" x1="31.64" y1="97.33" x2="32.19" y2="98.16"/><line class="cls-1" x1="31" y1="97.76" x2="31.57" y2="98.59"/><line class="cls-1" x1="29.75" y1="98.67" x2="30.36" y2="99.47"/><line class="cls-1" x1="29.14" y1="99.15" x2="29.76" y2="99.93"/><line class="cls-1" x1="28.54" y1="99.63" x2="29.18" y2="100.4"/><line class="cls-1" x1="27.95" y1="100.13" x2="28.6" y2="100.89"/><line class="cls-1" x1="26.8" y1="101.16" x2="27.49" y2="101.89"/><line class="cls-1" x1="26.25" y1="101.7" x2="26.95" y2="102.41"/><line class="cls-1" x1="25.7" y1="102.25" x2="26.41" y2="102.95"/><line class="cls-1" x1="25.16" y1="102.8" x2="25.89" y2="103.49"/><line class="cls-1" x1="24.13" y1="103.95" x2="24.89" y2="104.6"/><line class="cls-1" x1="23.63" y1="104.54" x2="24.4" y2="105.18"/><line class="cls-1" x1="23.15" y1="105.14" x2="23.93" y2="105.76"/><line class="cls-1" x1="22.67" y1="105.75" x2="23.47" y2="106.36"/><line class="cls-1" x1="21.76" y1="107" x2="22.59" y2="107.57"/><line class="cls-1" x1="21.33" y1="107.64" x2="22.16" y2="108.19"/><line class="cls-1" x1="19.01" y1="111.65" x2="19.91" y2="112.1"/><line class="cls-1" x1="18.68" y1="112.35" x2="19.58" y2="112.77"/><line class="cls-1" x1="18.05" y1="113.76" x2="18.97" y2="114.15"/><line class="cls-1" x1="17.76" y1="114.47" x2="18.69" y2="114.84"/><line class="cls-1" x1="17.48" y1="115.19" x2="18.42" y2="115.54"/><line class="cls-1" x1="17.22" y1="115.92" x2="18.16" y2="116.25"/><line class="cls-1" x1="16.74" y1="117.39" x2="17.7" y2="117.68"/><line class="cls-1" x1="16.53" y1="118.13" x2="17.49" y2="118.4"/><line class="cls-1" x1="16.33" y1="118.88" x2="17.3" y2="119.13"/><line class="cls-1" x1="16.14" y1="119.63" x2="17.12" y2="119.86"/><line class="cls-1" x1="15.82" y1="121.14" x2="16.8" y2="121.33"/><line class="cls-1" x1="15.69" y1="121.9" x2="16.67" y2="122.07"/><line class="cls-1" x1="15.56" y1="122.66" x2="16.55" y2="122.81"/><line class="cls-1" x1="15.46" y1="123.43" x2="16.45" y2="123.55"/><line class="cls-1" x1="15.3" y1="124.96" x2="16.29" y2="125.05"/><line class="cls-1" x1="15.24" y1="125.73" x2="16.24" y2="125.8"/><line class="cls-1" x1="15.24" y1="130.37" x2="16.24" y2="130.3"/><line class="cls-1" x1="15.3" y1="131.14" x2="16.29" y2="131.05"/><line class="cls-1" x1="15.46" y1="132.67" x2="16.45" y2="132.55"/><line class="cls-1" x1="15.56" y1="133.44" x2="16.55" y2="133.29"/><line class="cls-1" x1="15.69" y1="134.2" x2="16.67" y2="134.03"/><line class="cls-1" x1="15.82" y1="134.96" x2="16.8" y2="134.77"/><line class="cls-1" x1="16.14" y1="136.47" x2="17.12" y2="136.24"/><line class="cls-1" x1="16.33" y1="137.22" x2="17.3" y2="136.97"/><line class="cls-1" x1="16.53" y1="137.97" x2="17.49" y2="137.7"/><line class="cls-1" x1="16.74" y1="138.71" x2="17.7" y2="138.42"/><line class="cls-1" x1="17.22" y1="140.18" x2="18.16" y2="139.85"/><line class="cls-1" x1="17.48" y1="140.91" x2="18.42" y2="140.56"/><line class="cls-1" x1="17.76" y1="141.63" x2="18.69" y2="141.26"/><line class="cls-1" x1="18.05" y1="142.34" x2="18.97" y2="141.95"/><line class="cls-1" x1="18.68" y1="143.75" x2="19.58" y2="143.33"/><line class="cls-1" x1="19.01" y1="144.45" x2="19.91" y2="144"/><line class="cls-1" x1="21.33" y1="148.46" x2="22.16" y2="147.91"/><line class="cls-1" x1="21.76" y1="149.1" x2="22.59" y2="148.53"/><line class="cls-1" x1="22.67" y1="150.35" x2="23.47" y2="149.74"/><line class="cls-1" x1="23.15" y1="150.96" x2="23.93" y2="150.34"/><line class="cls-1" x1="23.63" y1="151.56" x2="24.4" y2="150.92"/><line class="cls-1" x1="24.13" y1="152.15" x2="24.89" y2="151.5"/><line class="cls-1" x1="25.16" y1="153.3" x2="25.89" y2="152.61"/><line class="cls-1" x1="25.7" y1="153.85" x2="26.41" y2="153.15"/><line class="cls-1" x1="26.25" y1="154.4" x2="26.95" y2="153.69"/><line class="cls-1" x1="26.8" y1="154.94" x2="27.49" y2="154.21"/><line class="cls-1" x1="27.95" y1="155.97" x2="28.6" y2="155.21"/><line class="cls-1" x1="28.54" y1="156.47" x2="29.18" y2="155.7"/><line class="cls-1" x1="29.14" y1="156.95" x2="29.76" y2="156.17"/><line class="cls-1" x1="29.75" y1="157.43" x2="30.36" y2="156.63"/><line class="cls-1" x1="31" y1="158.34" x2="31.57" y2="157.51"/><line class="cls-1" x1="31.64" y1="158.77" x2="32.19" y2="157.94"/><line class="cls-1" x1="35.65" y1="161.09" x2="36.1" y2="160.19"/><line class="cls-1" x1="36.35" y1="161.42" x2="36.77" y2="160.52"/><line class="cls-1" x1="37.76" y1="162.05" x2="38.15" y2="161.13"/><line class="cls-1" x1="38.47" y1="162.34" x2="38.84" y2="161.41"/><line class="cls-1" x1="39.19" y1="162.62" x2="39.54" y2="161.68"/><line class="cls-1" x1="39.92" y1="162.88" x2="40.25" y2="161.94"/><line class="cls-1" x1="41.39" y1="163.36" x2="41.68" y2="162.4"/><line class="cls-1" x1="42.13" y1="163.57" x2="42.4" y2="162.61"/><line class="cls-1" x1="42.88" y1="163.77" x2="43.13" y2="162.8"/><line class="cls-1" x1="43.63" y1="163.96" x2="43.86" y2="162.98"/><line class="cls-1" x1="45.14" y1="164.28" x2="45.33" y2="163.3"/><line class="cls-1" x1="45.9" y1="164.41" x2="46.07" y2="163.43"/><line class="cls-1" x1="46.66" y1="164.54" x2="46.81" y2="163.55"/><line class="cls-1" x1="47.43" y1="164.64" x2="47.55" y2="163.65"/><line class="cls-1" x1="48.96" y1="164.8" x2="49.05" y2="163.81"/><line class="cls-1" x1="49.73" y1="164.86" x2="49.8" y2="163.86"/><line class="cls-1" x1="54.37" y1="164.86" x2="54.3" y2="163.86"/><line class="cls-1" x1="55.14" y1="164.8" x2="55.05" y2="163.81"/><line class="cls-1" x1="56.67" y1="164.64" x2="56.55" y2="163.65"/><line class="cls-1" x1="57.44" y1="164.54" x2="57.29" y2="163.55"/><line class="cls-1" x1="58.2" y1="164.41" x2="58.03" y2="163.43"/><line class="cls-1" x1="58.96" y1="164.28" x2="58.77" y2="163.3"/><line class="cls-1" x1="60.47" y1="163.96" x2="60.24" y2="162.98"/><line class="cls-1" x1="61.22" y1="163.77" x2="60.97" y2="162.8"/><line class="cls-1" x1="61.97" y1="163.57" x2="61.7" y2="162.61"/><line class="cls-1" x1="62.71" y1="163.36" x2="62.42" y2="162.4"/><line class="cls-1" x1="64.18" y1="162.88" x2="63.85" y2="161.94"/><line class="cls-1" x1="64.91" y1="162.62" x2="64.56" y2="161.68"/><line class="cls-1" x1="65.63" y1="162.34" x2="65.26" y2="161.41"/><line class="cls-1" x1="66.34" y1="162.05" x2="65.95" y2="161.13"/><line class="cls-1" x1="67.75" y1="161.42" x2="67.33" y2="160.52"/><line class="cls-1" x1="68.45" y1="161.09" x2="68" y2="160.19"/><line class="cls-1" x1="72.46" y1="158.77" x2="71.91" y2="157.94"/><line class="cls-1" x1="73.1" y1="158.34" x2="72.53" y2="157.51"/><line class="cls-1" x1="74.35" y1="157.43" x2="73.74" y2="156.63"/><line class="cls-1" x1="74.96" y1="156.95" x2="74.34" y2="156.17"/><line class="cls-1" x1="75.56" y1="156.47" x2="74.92" y2="155.7"/><line class="cls-1" x1="76.15" y1="155.97" x2="75.5" y2="155.21"/><line class="cls-1" x1="77.3" y1="154.94" x2="76.61" y2="154.21"/><line class="cls-1" x1="77.85" y1="154.4" x2="77.15" y2="153.69"/><line class="cls-1" x1="78.4" y1="153.85" x2="77.69" y2="153.15"/><line class="cls-1" x1="78.94" y1="153.3" x2="78.21" y2="152.61"/><line class="cls-1" x1="79.97" y1="152.15" x2="79.21" y2="151.5"/><line class="cls-1" x1="80.47" y1="151.56" x2="79.7" y2="150.92"/><line class="cls-1" x1="80.95" y1="150.96" x2="80.17" y2="150.34"/><line class="cls-1" x1="81.43" y1="150.35" x2="80.63" y2="149.74"/><line class="cls-1" x1="82.34" y1="149.1" x2="81.51" y2="148.53"/><line class="cls-1" x1="82.77" y1="148.46" x2="81.94" y2="147.91"/><line class="cls-1" x1="85.09" y1="144.45" x2="84.19" y2="144"/><line class="cls-1" x1="85.42" y1="143.75" x2="84.52" y2="143.33"/><line class="cls-1" x1="86.05" y1="142.34" x2="85.13" y2="141.95"/><line class="cls-1" x1="86.34" y1="141.63" x2="85.41" y2="141.26"/><line class="cls-1" x1="86.62" y1="140.91" x2="85.68" y2="140.56"/><line class="cls-1" x1="86.88" y1="140.18" x2="85.94" y2="139.85"/><line class="cls-1" x1="87.36" y1="138.71" x2="86.4" y2="138.42"/><line class="cls-1" x1="87.57" y1="137.97" x2="86.61" y2="137.7"/><line class="cls-1" x1="87.77" y1="137.22" x2="86.8" y2="136.97"/><line class="cls-1" x1="87.96" y1="136.47" x2="86.98" y2="136.24"/><line class="cls-1" x1="88.28" y1="134.96" x2="87.3" y2="134.77"/><line class="cls-1" x1="88.41" y1="134.2" x2="87.43" y2="134.03"/><line class="cls-1" x1="88.54" y1="133.44" x2="87.55" y2="133.29"/><line class="cls-1" x1="88.64" y1="132.67" x2="87.65" y2="132.55"/><line class="cls-1" x1="88.8" y1="131.14" x2="87.81" y2="131.05"/><line class="cls-1" x1="88.86" y1="130.37" x2="87.86" y2="130.3"/><line class="cls-1" x1="88.86" y1="125.73" x2="87.86" y2="125.8"/><line class="cls-1" x1="88.8" y1="124.96" x2="87.81" y2="125.05"/><line class="cls-1" x1="88.64" y1="123.43" x2="87.65" y2="123.55"/><line class="cls-1" x1="88.54" y1="122.66" x2="87.55" y2="122.81"/><line class="cls-1" x1="88.41" y1="121.9" x2="87.43" y2="122.07"/><line class="cls-1" x1="88.28" y1="121.14" x2="87.3" y2="121.33"/><line class="cls-1" x1="87.96" y1="119.63" x2="86.98" y2="119.86"/><line class="cls-1" x1="87.77" y1="118.88" x2="86.8" y2="119.13"/><line class="cls-1" x1="87.57" y1="118.13" x2="86.61" y2="118.4"/><line class="cls-1" x1="87.36" y1="117.39" x2="86.4" y2="117.68"/><line class="cls-1" x1="86.88" y1="115.92" x2="85.94" y2="116.25"/><line class="cls-1" x1="86.62" y1="115.19" x2="85.68" y2="115.54"/><line class="cls-1" x1="86.34" y1="114.47" x2="85.41" y2="114.84"/><line class="cls-1" x1="86.05" y1="113.76" x2="85.13" y2="114.15"/><line class="cls-1" x1="85.42" y1="112.35" x2="84.52" y2="112.77"/><line class="cls-1" x1="85.09" y1="111.65" x2="84.19" y2="112.1"/><line class="cls-1" x1="82.77" y1="107.64" x2="81.94" y2="108.19"/><line class="cls-1" x1="82.34" y1="107" x2="81.51" y2="107.57"/><line class="cls-1" x1="81.43" y1="105.75" x2="80.63" y2="106.36"/><line class="cls-1" x1="80.95" y1="105.14" x2="80.17" y2="105.76"/><line class="cls-1" x1="80.47" y1="104.54" x2="79.7" y2="105.18"/><line class="cls-1" x1="79.97" y1="103.95" x2="79.21" y2="104.6"/><line class="cls-1" x1="78.94" y1="102.8" x2="78.21" y2="103.49"/><line class="cls-1" x1="78.4" y1="102.25" x2="77.69" y2="102.95"/><line class="cls-1" x1="77.85" y1="101.7" x2="77.15" y2="102.41"/><line class="cls-1" x1="77.3" y1="101.16" x2="76.61" y2="101.89"/><line class="cls-1" x1="76.15" y1="100.13" x2="75.5" y2="100.89"/><line class="cls-1" x1="75.56" y1="99.63" x2="74.92" y2="100.4"/><line class="cls-1" x1="74.96" y1="99.15" x2="74.34" y2="99.93"/><line class="cls-1" x1="74.35" y1="98.67" x2="73.74" y2="99.47"/><line class="cls-1" x1="73.1" y1="97.76" x2="72.53" y2="98.59"/><line class="cls-1" x1="72.46" y1="97.33" x2="71.91" y2="98.16"/><line class="cls-1" x1="68.45" y1="95.01" x2="68" y2="95.91"/><line class="cls-1" x1="67.75" y1="94.68" x2="67.33" y2="95.58"/><line class="cls-1" x1="66.34" y1="94.05" x2="65.95" y2="94.97"/><line class="cls-1" x1="65.63" y1="93.76" x2="65.26" y2="94.69"/><line class="cls-1" x1="64.91" y1="93.48" x2="64.56" y2="94.42"/><line class="cls-1" x1="64.18" y1="93.22" x2="63.85" y2="94.16"/><line class="cls-1" x1="62.71" y1="92.74" x2="62.42" y2="93.7"/><line class="cls-1" x1="61.97" y1="92.53" x2="61.7" y2="93.49"/><line class="cls-1" x1="61.22" y1="92.33" x2="60.97" y2="93.3"/><line class="cls-1" x1="60.47" y1="92.14" x2="60.24" y2="93.12"/><line class="cls-1" x1="58.96" y1="91.82" x2="58.77" y2="92.8"/><line class="cls-1" x1="58.2" y1="91.69" x2="58.03" y2="92.67"/><line class="cls-1" x1="57.44" y1="91.56" x2="57.29" y2="92.55"/><line class="cls-1" x1="56.67" y1="91.46" x2="56.55" y2="92.45"/><line class="cls-1" x1="55.14" y1="91.3" x2="55.05" y2="92.29"/><line class="cls-1" x1="54.37" y1="91.24" x2="54.3" y2="92.24"/><line class="cls-1" x1="48.19" y1="91.37" x2="48.4" y2="93.36"/><line class="cls-1" x1="44.38" y1="91.97" x2="44.8" y2="93.93"/><line class="cls-1" x1="40.65" y1="92.97" x2="41.27" y2="94.88"/><line class="cls-1" x1="37.05" y1="94.36" x2="37.86" y2="96.18"/><line class="cls-1" x1="30.37" y1="98.21" x2="31.55" y2="99.83"/><line class="cls-1" x1="27.37" y1="100.64" x2="28.71" y2="102.13"/><line class="cls-1" x1="24.64" y1="103.37" x2="26.13" y2="104.71"/><line class="cls-1" x1="22.21" y1="106.37" x2="23.83" y2="107.55"/><line class="cls-1" x1="18.36" y1="113.05" x2="20.18" y2="113.86"/><line class="cls-1" x1="16.97" y1="116.65" x2="18.88" y2="117.27"/><line class="cls-1" x1="15.97" y1="120.38" x2="17.93" y2="120.8"/><line class="cls-1" x1="15.37" y1="124.19" x2="17.36" y2="124.4"/><line class="cls-1" x1="15.37" y1="131.91" x2="17.36" y2="131.7"/><line class="cls-1" x1="15.97" y1="135.72" x2="17.93" y2="135.3"/><line class="cls-1" x1="16.97" y1="139.45" x2="18.88" y2="138.83"/><line class="cls-1" x1="18.36" y1="143.05" x2="20.18" y2="142.24"/><line class="cls-1" x1="22.21" y1="149.73" x2="23.83" y2="148.55"/><line class="cls-1" x1="24.64" y1="152.73" x2="26.13" y2="151.39"/><line class="cls-1" x1="27.37" y1="155.46" x2="28.71" y2="153.97"/><line class="cls-1" x1="30.37" y1="157.89" x2="31.55" y2="156.27"/><line class="cls-1" x1="37.05" y1="161.74" x2="37.86" y2="159.92"/><line class="cls-1" x1="40.65" y1="163.13" x2="41.27" y2="161.22"/><line class="cls-1" x1="44.38" y1="164.13" x2="44.8" y2="162.17"/><line class="cls-1" x1="48.19" y1="164.73" x2="48.4" y2="162.74"/><line class="cls-1" x1="55.91" y1="164.73" x2="55.7" y2="162.74"/><line class="cls-1" x1="59.72" y1="164.13" x2="59.3" y2="162.17"/><line class="cls-1" x1="63.45" y1="163.13" x2="62.83" y2="161.22"/><line class="cls-1" x1="67.05" y1="161.74" x2="66.24" y2="159.92"/><line class="cls-1" x1="73.73" y1="157.89" x2="72.55" y2="156.27"/><line class="cls-1" x1="76.73" y1="155.46" x2="75.39" y2="153.97"/><line class="cls-1" x1="79.46" y1="152.73" x2="77.97" y2="151.39"/><line class="cls-1" x1="81.89" y1="149.73" x2="80.27" y2="148.55"/><line class="cls-1" x1="85.74" y1="143.05" x2="83.92" y2="142.24"/><line class="cls-1" x1="87.13" y1="139.45" x2="85.22" y2="138.83"/><line class="cls-1" x1="88.13" y1="135.72" x2="86.17" y2="135.3"/><line class="cls-1" x1="88.73" y1="131.91" x2="86.74" y2="131.7"/><line class="cls-1" x1="88.73" y1="124.19" x2="86.74" y2="124.4"/><line class="cls-1" x1="88.13" y1="120.38" x2="86.17" y2="120.8"/><line class="cls-1" x1="87.13" y1="116.65" x2="85.22" y2="117.27"/><line class="cls-1" x1="85.74" y1="113.05" x2="83.92" y2="113.86"/><line class="cls-1" x1="81.89" y1="106.37" x2="80.27" y2="107.55"/><line class="cls-1" x1="79.46" y1="103.37" x2="77.97" y2="104.71"/><line class="cls-1" x1="76.73" y1="100.64" x2="75.39" y2="102.13"/><line class="cls-1" x1="73.73" y1="98.21" x2="72.55" y2="99.83"/><line class="cls-1" x1="67.05" y1="94.36" x2="66.24" y2="96.18"/><line class="cls-1" x1="63.45" y1="92.97" x2="62.83" y2="94.88"/><line class="cls-1" x1="59.72" y1="91.97" x2="59.3" y2="93.93"/><line class="cls-1" x1="55.91" y1="91.37" x2="55.7" y2="93.36"/><line class="cls-1" x1="47.67" y1="86.28" x2="47.99" y2="89.26"/><line class="cls-1" x1="43.33" y1="86.97" x2="43.95" y2="89.9"/><line class="cls-1" x1="39.08" y1="88.1" x2="40.01" y2="90.95"/><line class="cls-1" x1="34.98" y1="89.68" x2="36.2" y2="92.42"/><line class="cls-1" x1="27.37" y1="94.06" x2="29.14" y2="96.49"/><line class="cls-1" x1="23.96" y1="96.83" x2="25.96" y2="99.06"/><line class="cls-1" x1="20.85" y1="99.94" x2="23.08" y2="101.94"/><line class="cls-1" x1="18.08" y1="103.35" x2="20.51" y2="105.12"/><line class="cls-1" x1="13.69" y1="110.96" x2="16.43" y2="112.18"/><line class="cls-1" x1="12.11" y1="115.06" x2="14.96" y2="115.99"/><line class="cls-1" x1="10.97" y1="119.3" x2="13.9" y2="119.93"/><line class="cls-1" x1="10.28" y1="123.65" x2="13.27" y2="123.96"/><line class="cls-1" x1="10.28" y1="132.43" x2="13.26" y2="132.11"/><line class="cls-1" x1="23.59" y1="129.06" x2="26.59" y2="129.06"/><line class="cls-1" x1="25.19" y1="135.03" x2="27.79" y2="133.53"/><line class="cls-1" x1="29.56" y1="139.41" x2="31.06" y2="136.81"/><line class="cls-1" x1="35.54" y1="141.01" x2="35.54" y2="138.01"/><line class="cls-1" x1="41.52" y1="139.41" x2="40.02" y2="136.81"/><line class="cls-1" x1="45.89" y1="135.03" x2="43.29" y2="133.53"/><line class="cls-1" x1="47.49" y1="129.06" x2="44.49" y2="129.06"/><line class="cls-1" x1="45.89" y1="123.08" x2="43.29" y2="124.58"/><line class="cls-1" x1="41.52" y1="118.7" x2="40.02" y2="121.3"/><line class="cls-1" x1="35.54" y1="117.1" x2="35.54" y2="120.1"/><line class="cls-1" x1="29.56" y1="118.7" x2="31.06" y2="121.3"/><line class="cls-1" x1="25.19" y1="123.08" x2="27.79" y2="124.58"/><line class="cls-1" x1="10.97" y1="136.77" x2="13.9" y2="136.15"/><line class="cls-1" x1="12.1" y1="141.02" x2="14.95" y2="140.09"/><line class="cls-1" x1="13.68" y1="145.12" x2="16.42" y2="143.9"/><line class="cls-1" x1="18.06" y1="152.73" x2="20.49" y2="150.96"/><line class="cls-1" x1="20.83" y1="156.14" x2="23.06" y2="154.14"/><line class="cls-1" x1="23.94" y1="159.25" x2="25.94" y2="157.02"/><line class="cls-1" x1="27.35" y1="162.02" x2="29.12" y2="159.59"/><line class="cls-1" x1="34.96" y1="166.41" x2="36.18" y2="163.67"/><line class="cls-1" x1="39.06" y1="167.99" x2="39.99" y2="165.14"/><line class="cls-1" x1="43.3" y1="169.13" x2="43.93" y2="166.2"/><line class="cls-1" x1="47.65" y1="169.82" x2="47.96" y2="166.83"/><line class="cls-1" x1="56.43" y1="169.82" x2="56.11" y2="166.84"/><line class="cls-1" x1="60.77" y1="169.13" x2="60.15" y2="166.2"/><line class="cls-1" x1="65.02" y1="168" x2="64.09" y2="165.15"/><line class="cls-1" x1="69.12" y1="166.42" x2="67.9" y2="163.68"/><line class="cls-1" x1="76.73" y1="162.04" x2="74.96" y2="159.61"/><line class="cls-1" x1="80.14" y1="159.27" x2="78.14" y2="157.04"/><line class="cls-1" x1="83.25" y1="156.16" x2="81.02" y2="154.16"/><line class="cls-1" x1="86.02" y1="152.75" x2="83.59" y2="150.98"/><line class="cls-1" x1="90.41" y1="145.14" x2="87.67" y2="143.92"/><line class="cls-1" x1="91.99" y1="141.04" x2="89.14" y2="140.11"/><line class="cls-1" x1="93.13" y1="136.8" x2="90.2" y2="136.17"/><line class="cls-1" x1="93.82" y1="132.45" x2="90.83" y2="132.14"/><line class="cls-1" x1="93.82" y1="123.67" x2="90.84" y2="123.99"/><line class="cls-1" x1="93.13" y1="119.33" x2="90.2" y2="119.95"/><line class="cls-1" x1="92" y1="115.08" x2="89.15" y2="116.01"/><line class="cls-1" x1="90.42" y1="110.98" x2="87.68" y2="112.2"/><line class="cls-1" x1="86.04" y1="103.37" x2="83.61" y2="105.14"/><line class="cls-1" x1="83.27" y1="99.96" x2="81.04" y2="101.96"/><line class="cls-1" x1="80.16" y1="96.85" x2="78.16" y2="99.08"/><line class="cls-1" x1="76.75" y1="94.08" x2="74.98" y2="96.51"/><line class="cls-1" x1="69.14" y1="89.69" x2="67.92" y2="92.43"/><line class="cls-1" x1="65.04" y1="88.11" x2="64.11" y2="90.96"/><line class="cls-1" x1="60.8" y1="86.97" x2="60.17" y2="89.9"/><line class="cls-1" x1="56.45" y1="86.28" x2="56.14" y2="89.27"/><rect class="cls-2" x="50.06" y="86.06" width="4" height="12"/><rect class="cls-2" x="51.06" y="89.06" width="2" height="6"/><line class="cls-2" x1="53.06" y1="89.06" x2="54.06" y2="86.06"/><line class="cls-2" x1="51.06" y1="89.06" x2="50.06" y2="86.06"/><path class="cls-2" d="M127,95l-1,3m3-3,1,3m-3-3h2m-3,3h4" transform="translate(-75.95 0.05)"/><path class="cls-2" d="M126,86l1,3m3-3-1,3m0,0h-2m3-3h-4" transform="translate(-75.95 0.05)"/><path class="cls-2" d="M126,98l1-3m0,0V89m0,0-1-3m0,0V98" transform="translate(-75.95 0.05)"/><path class="cls-2" d="M129,95l1,3m-1-9v6m1-9-1,3m1,9V86" transform="translate(-75.95 0.05)"/><rect class="cls-2" x="108.02" y="90.82" width="4" height="12" transform="translate(-109.62 68.03) rotate(-30)"/><rect class="cls-2" x="109.02" y="93.82" width="2" height="6" transform="translate(-109.62 68.03) rotate(-30)"/><line class="cls-2" x1="33.43" y1="93.78" x2="32.8" y2="90.68"/><line class="cls-2" x1="31.7" y1="94.78" x2="29.33" y2="92.68"/><path class="cls-2" d="M110.65,99.92l.63,3.1m1.1-4.1,2.37,2.1m-4.1-1.1,1.73-1m-1.1,4.1,3.47-2" transform="translate(-75.95 0.05)"/><path class="cls-2" d="M105.28,92.63l2.37,2.1m1.1-4.1.63,3.1m0,0-1.73,1m1.1-4.1-3.47,2" transform="translate(-75.95 0.05)"/><path class="cls-2" d="M111.28,103l-.63-3.1m0,0-3-5.19m0,0-2.37-2.1m0,0,6,10.39" transform="translate(-75.95 0.05)"/><path class="cls-2" d="M112.38,98.92l2.37,2.1m-5.37-7.29,3,5.19m-3.63-8.29.63,3.1m5.37,7.29-6-10.39" transform="translate(-75.95 0.05)"/><rect class="cls-2" x="94.84" y="103.99" width="4" height="12" transform="translate(-122.79 138.91) rotate(-60)"/><rect class="cls-2" x="95.84" y="106.99" width="2" height="6" transform="translate(-122.79 138.91) rotate(-60)"/><line class="cls-2" x1="18.79" y1="107.68" x2="16.69" y2="105.31"/><line class="cls-2" x1="17.79" y1="109.41" x2="14.69" y2="108.78"/><path class="cls-2" d="M98.94,112.36l2.09,2.37m-1.09-4.1,3.09.63m-4.09,1.1,1-1.73m1.09,4.1,2-3.47" transform="translate(-75.95 0.05)"/><path class="cls-2" d="M90.64,108.73l3.1.63m-1.1-4.1,2.1,2.37m0,0-1,1.73m-1.1-4.1-2,3.47" transform="translate(-75.95 0.05)"/><path class="cls-2" d="M101,114.73l-2.09-2.37m0,0-5.2-3m0,0-3.1-.63m0,0,10.39,6" transform="translate(-75.95 0.05)"/><path class="cls-2" d="M99.94,110.63l3.09.63m-8.29-3.63,5.2,3m-7.3-5.37,2.1,2.37m8.29,3.63-10.39-6" transform="translate(-75.95 0.05)"/><rect class="cls-2" x="90.01" y="121.99" width="4" height="12" transform="translate(-111.93 220.05) rotate(-90)"/><rect class="cls-2" x="91.01" y="124.99" width="2" height="6" transform="translate(-111.93 220.05) rotate(-90)"/><line class="cls-2" x1="13.06" y1="127.04" x2="10.06" y2="126.04"/><line class="cls-2" x1="13.06" y1="129.04" x2="10.06" y2="130.04"/><path class="cls-2" d="M95,129l3,1m-3-3,3-1m-3,3v-2m3,3v-4" transform="translate(-75.95 0.05)"/><path class="cls-2" d="M86,130l3-1m-3-3,3,1m0,0v2m-3-3v4" transform="translate(-75.95 0.05)"/><path class="cls-2" d="M98,130l-3-1m0,0H89m0,0-3,1m0,0H98" transform="translate(-75.95 0.05)"/><path class="cls-2" d="M95,127l3-1m-9,1h6m-9-1,3,1m9-1H86" transform="translate(-75.95 0.05)"/><rect class="cls-2" x="94.82" y="139.98" width="4" height="12" transform="translate(-57.14 302.88) rotate(-120)"/><rect class="cls-2" x="95.82" y="142.98" width="2" height="6" transform="translate(-57.14 302.88) rotate(-120)"/><line class="cls-2" x1="17.78" y1="146.67" x2="14.68" y2="147.3"/><line class="cls-2" x1="18.78" y1="148.4" x2="16.68" y2="150.77"/><path class="cls-2" d="M99.92,145.35l3.1-.63m-4.1-1.1,2.1-2.37m-1.1,4.1-1-1.73m4.1,1.1-2-3.47" transform="translate(-75.95 0.05)"/><path class="cls-2" d="M92.63,150.72l2.1-2.37m-4.1-1.1,3.1-.63m0,0,1,1.73m-4.1-1.1,2,3.47" transform="translate(-75.95 0.05)"/><path class="cls-2" d="M103,144.72l-3.1.63m0,0-5.19,3m0,0-2.1,2.37m0,0,10.39-6" transform="translate(-75.95 0.05)"/><path class="cls-2" d="M98.92,143.62l2.1-2.37m-7.29,5.37,5.19-3m-8.29,3.63,3.1-.63m7.29-5.37-10.39,6" transform="translate(-75.95 0.05)"/><rect class="cls-2" x="107.99" y="153.16" width="4" height="12" transform="translate(49.72 352.05) rotate(-150)"/><rect class="cls-2" x="108.99" y="156.16" width="2" height="6" transform="translate(49.72 352.05) rotate(-150)"/><line class="cls-2" x1="31.68" y1="161.31" x2="29.31" y2="163.41"/><line class="cls-2" x1="33.41" y1="162.31" x2="32.78" y2="165.41"/><path class="cls-2" d="M112.36,157.06l2.37-2.09m-4.1,1.09.63-3.09m1.1,4.09-1.73-1m4.1-1.09-3.47-2" transform="translate(-75.95 0.05)"/><path class="cls-2" d="M108.73,165.36l.63-3.1m-4.1,1.1,2.37-2.1m0,0,1.73,1m-4.1,1.1,3.47,2" transform="translate(-75.95 0.05)"/><path class="cls-2" d="M114.73,155l-2.37,2.09m0,0-3,5.2m0,0-.63,3.1m0,0,6-10.39" transform="translate(-75.95 0.05)"/><path class="cls-2" d="M110.63,156.06l.63-3.09m-3.63,8.29,3-5.2m-5.37,7.3,2.37-2.1m3.63-8.29-6,10.39" transform="translate(-75.95 0.05)"/><rect class="cls-2" x="125.99" y="157.99" width="4" height="12" transform="translate(180.02 328.03) rotate(-180)"/><rect class="cls-2" x="126.99" y="160.99" width="2" height="6" transform="translate(180.02 328.03) rotate(-180)"/><line class="cls-2" x1="51.04" y1="167.04" x2="50.04" y2="170.04"/><line class="cls-2" x1="53.04" y1="167.04" x2="54.04" y2="170.04"/><path class="cls-2" d="M129,161l1-3m-3,3-1-3m3,3h-2m3-3h-4" transform="translate(-75.95 0.05)"/><path class="cls-2" d="M130,170l-1-3m-3,3,1-3m0,0h2m-3,3h4" transform="translate(-75.95 0.05)"/><path class="cls-2" d="M130,158l-1,3m0,0v6m0,0,1,3m0,0V158" transform="translate(-75.95 0.05)"/><path class="cls-2" d="M127,161l-1-3m1,9v-6m-1,9,1-3m-1-9v12" transform="translate(-75.95 0.05)"/><rect class="cls-2" x="143.98" y="153.18" width="4" height="12" transform="translate(276.05 224.08) rotate(150)"/><rect class="cls-2" x="144.98" y="156.18" width="2" height="6" transform="translate(276.05 224.08) rotate(150)"/><line class="cls-2" x1="70.67" y1="162.32" x2="71.3" y2="165.42"/><line class="cls-2" x1="72.4" y1="161.32" x2="74.77" y2="163.42"/><path class="cls-2" d="M145.35,156.08l-.63-3.1m-1.1,4.1-2.37-2.1m4.1,1.1-1.73,1m1.1-4.1-3.47,2" transform="translate(-75.95 0.05)"/><path class="cls-2" d="M150.72,163.37l-2.37-2.1m-1.1,4.1-.63-3.1m0,0,1.73-1m-1.1,4.1,3.47-2" transform="translate(-75.95 0.05)"/><path class="cls-2" d="M144.72,153l.63,3.1m0,0,3,5.19m0,0,2.37,2.1m0,0-6-10.39" transform="translate(-75.95 0.05)"/><path class="cls-2" d="M143.62,157.08l-2.37-2.1m5.37,7.29-3-5.19m3.63,8.29-.63-3.1M141.25,155l6,10.39" transform="translate(-75.95 0.05)"/><rect class="cls-2" x="157.16" y="140.01" width="4" height="12" transform="translate(289.24 81.22) rotate(120)"/><rect class="cls-2" x="158.16" y="143.01" width="2" height="6" transform="translate(289.24 81.22) rotate(120)"/><line class="cls-2" x1="85.31" y1="148.42" x2="87.41" y2="150.79"/><line class="cls-2" x1="86.31" y1="146.69" x2="89.41" y2="147.32"/><path class="cls-2" d="M157.06,143.64,155,141.27m1.09,4.1-3.09-.63m4.09-1.1-1,1.73m-1.09-4.1-2,3.47" transform="translate(-75.95 0.05)"/><path class="cls-2" d="M165.36,147.27l-3.1-.63m1.1,4.1-2.1-2.37m0,0,1-1.73m1.1,4.1,2-3.47" transform="translate(-75.95 0.05)"/><path class="cls-2" d="M155,141.27l2.09,2.37m0,0,5.2,3m0,0,3.1.63m0,0-10.39-6" transform="translate(-75.95 0.05)"/><path class="cls-2" d="M156.06,145.37l-3.09-.63m8.29,3.63-5.2-3m7.3,5.37-2.1-2.37M153,144.74l10.39,6" transform="translate(-75.95 0.05)"/><rect class="cls-2" x="161.99" y="122.01" width="4" height="12" transform="translate(216.05 -35.93) rotate(90)"/><rect class="cls-2" x="162.99" y="125.01" width="2" height="6" transform="translate(216.05 -35.93) rotate(90)"/><line class="cls-2" x1="91.04" y1="129.06" x2="94.04" y2="130.06"/><line class="cls-2" x1="91.04" y1="127.06" x2="94.04" y2="126.06"/><path class="cls-2" d="M161,127l-3-1m3,3-3,1m3-3v2m-3-3v4" transform="translate(-75.95 0.05)"/><path class="cls-2" d="M170,126l-3,1m3,3-3-1m0,0v-2m3,3v-4" transform="translate(-75.95 0.05)"/><path class="cls-2" d="M158,126l3,1m0,0h6m0,0,3-1m0,0H158" transform="translate(-75.95 0.05)"/><path class="cls-2" d="M161,129l-3,1m9-1h-6m9,1-3-1m-9,1h12" transform="translate(-75.95 0.05)"/><rect class="cls-2" x="157.18" y="104.02" width="4" height="12" transform="translate(98.91 -82.79) rotate(60)"/><rect class="cls-2" x="158.18" y="107.02" width="2" height="6" transform="translate(98.91 -82.79) rotate(60)"/><line class="cls-2" x1="86.32" y1="109.43" x2="89.42" y2="108.8"/><line class="cls-2" x1="85.32" y1="107.7" x2="87.42" y2="105.33"/><path class="cls-2" d="M156.08,110.65l-3.1.63m4.1,1.1-2.1,2.37m1.1-4.1,1,1.73m-4.1-1.1,2,3.47" transform="translate(-75.95 0.05)"/><path class="cls-2" d="M163.37,105.28l-2.1,2.37m4.1,1.1-3.1.63m0,0-1-1.73m4.1,1.1-2-3.47" transform="translate(-75.95 0.05)"/><path class="cls-2" d="M153,111.28l3.1-.63m0,0,5.19-3m0,0,2.1-2.37m0,0-10.39,6" transform="translate(-75.95 0.05)"/><path class="cls-2" d="M157.08,112.38l-2.1,2.37m7.29-5.37-5.19,3m8.29-3.63-3.1.63M155,114.75l10.39-6" transform="translate(-75.95 0.05)"/><rect class="cls-2" x="144.01" y="90.84" width="4" height="12" transform="translate(-7.97 -59.98) rotate(30)"/><rect class="cls-2" x="145.01" y="93.84" width="2" height="6" transform="translate(-7.97 -59.98) rotate(30)"/><line class="cls-2" x1="72.42" y1="94.79" x2="74.79" y2="92.69"/><line class="cls-2" x1="70.69" y1="93.79" x2="71.32" y2="90.69"/><path class="cls-2" d="M143.64,98.94,141.27,101m4.1-1.09-.63,3.09m-1.1-4.09,1.73,1m-4.1,1.09,3.47,2" transform="translate(-75.95 0.05)"/><path class="cls-2" d="M147.27,90.64l-.63,3.1m4.1-1.1-2.37,2.1m0,0-1.73-1m4.1-1.1-3.47-2" transform="translate(-75.95 0.05)"/><path class="cls-2" d="M141.27,101l2.37-2.09m0,0,3-5.2m0,0,.63-3.1m0,0-6,10.39" transform="translate(-75.95 0.05)"/><path class="cls-2" d="M145.37,99.94l-.63,3.09m3.63-8.29-3,5.2m5.37-7.3-2.37,2.1M144.74,103l6-10.39" transform="translate(-75.95 0.05)"/><circle class="cls-1" cx="35.54" cy="129.06" r="12"/><circle class="cls-1" cx="52.04" cy="141.44" r="12"/><circle class="cls-1" cx="68.56" cy="129.06" r="12"/><path class="cls-1" d="M104,174a52.28,52.28,0,0,1-11.81-8.47m0,0s6.55,18.76,6.76,22.54l5.08,1.81V174" transform="translate(-75.95 0.05)"/><path class="cls-1" d="M92.09,90.3a51.89,51.89,0,0,1,11.81-8.47m0,0V65.93l-5.08,1.81c-.21,3.77-6.77,22.53-6.77,22.53" transform="translate(-75.95 0.05)"/><path class="cls-1" d="M163.87,165.62a52.51,52.51,0,0,1-11.81,8.47m0,0V190l5.08-1.81c.21-3.78,6.77-22.54,6.77-22.54" transform="translate(-75.95 0.05)"/><path class="cls-1" d="M152,81.83A51.45,51.45,0,0,1,163.8,90.3m0,0s-6.56-18.76-6.77-22.53L152,65.93V81.86" transform="translate(-75.95 0.05)"/><path class="cls-2" d="M171.84,156.16l2.46,1.42,2.85-4.93-2.46-1.42,0,0a53.55,53.55,0,0,1-2.82,4.95" transform="translate(-75.95 0.05)"/><rect class="cls-2" x="173.51" y="154.41" width="7.28" height="3.34" transform="matrix(0.5, -0.87, 0.87, 0.5, -122.54, 231.51)"/><path class="cls-2" d="M171.84,99.87l2.46-1.43,2.85,4.94-2.46,1.42,0,0a53.72,53.72,0,0,0-2.82-5" transform="translate(-75.95 0.05)"/><rect class="cls-2" x="173.51" y="98.28" width="7.28" height="3.34" transform="translate(99.18 -103.4) rotate(60)"/><rect class="cls-1" x="104.27" y="122.14" width="8" height="8" rx="1" ry="1"/><path class="cls-1" d="M181,122.5h6.39l.69.41-.69.49H181l-.67-.48Z" transform="translate(-75.95 0.05)"/><path class="cls-1" d="M181,123.4h6.39l.69.41-.69.48H181l-.67-.47Z" transform="translate(-75.95 0.05)"/><path class="cls-1" d="M181,124.29h6.39l.69.42-.69.48H181l-.67-.47Z" transform="translate(-75.95 0.05)"/><path class="cls-1" d="M181,125.19h6.39l.69.42-.69.48H181l-.67-.47Z" transform="translate(-75.95 0.05)"/><path class="cls-1" d="M181,126.09h6.39l.69.42-.69.48H181l-.67-.47Z" transform="translate(-75.95 0.05)"/><path class="cls-1" d="M181,127h6.39l.69.42-.69.48H181l-.67-.47Z" transform="translate(-75.95 0.05)"/><path class="cls-1" d="M181,127.89h6.39l.69.41-.69.49H181l-.67-.47Z" transform="translate(-75.95 0.05)"/><path class="cls-1" d="M181,128.79h6.39l.69.41-.69.49H181l-.67-.48Z" transform="translate(-75.95 0.05)"/><text class="cls-3" transform="translate(50.06 83.34)">60</text><text class="cls-3" transform="translate(33.1 87.5) rotate(-22.5)"><tspan class="cls-4">6</tspan><tspan x="1.77" y="0">5</tspan></text><text class="cls-3" transform="translate(19.03 97.84) rotate(-45)">70</text><text class="cls-3" transform="translate(9.98 112.78) rotate(-67.5)">75</text><text class="cls-3" transform="translate(7.34 130.04) rotate(-90)">80</text><text class="cls-3" transform="matrix(0.07, 1, -1, 0.07, 96.51, 122.95)">250</text><text class="cls-3" transform="matrix(0.27, 0.96, -0.96, 0.27, 94.54, 114)">300</text><text class="cls-3" transform="matrix(0.63, 0.77, -0.77, 0.63, 85.42, 98.22)">400</text><text class="cls-3" transform="translate(78.64 92.05) rotate(39)">500</text><text class="cls-3" transform="translate(50.06 175.2)">120</text><text class="cls-3" transform="translate(59.71 174.62) rotate(-11.75)">130</text><text class="cls-3" transform="translate(69.03 172.08) rotate(-23.5)">140</text><text class="cls-3" transform="matrix(0.82, -0.58, 0.58, 0.82, 77.64, 167.7)">150</text><text class="cls-3" transform="matrix(0.68, -0.73, 0.73, 0.68, 85.18, 161.66)">160</text><text class="cls-3" transform="translate(91.33 154.21) rotate(-58.75)">180</text><text class="cls-3" transform="translate(95.83 145.66) rotate(-70.5)">200</text><text class="cls-3" transform="translate(98.5 136.38) rotate(-82.25)">220</text><text class="cls-3" transform="translate(32.17 170.85) rotate(22.5)">110</text><text class="cls-3" transform="translate(17.31 159.99) rotate(45)">100</text><text class="cls-3" transform="translate(7.73 144.26) rotate(67.5)">90</text><text class="cls-3" transform="translate(33.77 122.32)">60</text><text class="cls-3" transform="translate(33.77 137.83)">30</text><text class="cls-3" transform="translate(26.59 130.04)">45</text><text class="cls-3" transform="translate(41.01 130.04)">15</text><line class="cls-1" x1="56.59" y1="129.06" x2="59.59" y2="129.06"/><line class="cls-1" x1="58.19" y1="135.03" x2="60.79" y2="133.53"/><line class="cls-1" x1="62.56" y1="139.41" x2="64.06" y2="136.81"/><line class="cls-1" x1="68.54" y1="141.01" x2="68.54" y2="138.01"/><line class="cls-1" x1="74.52" y1="139.41" x2="73.02" y2="136.81"/><line class="cls-1" x1="78.89" y1="135.03" x2="76.29" y2="133.53"/><line class="cls-1" x1="80.49" y1="129.06" x2="77.49" y2="129.06"/><line class="cls-1" x1="78.89" y1="123.08" x2="76.29" y2="124.58"/><line class="cls-1" x1="74.52" y1="118.7" x2="73.02" y2="121.3"/><line class="cls-1" x1="68.54" y1="117.1" x2="68.54" y2="120.1"/><line class="cls-1" x1="62.56" y1="118.7" x2="64.06" y2="121.3"/><line class="cls-1" x1="58.19" y1="123.08" x2="60.79" y2="124.58"/><circle class="cls-1" cx="68.54" cy="129.06" r="12"/><text class="cls-3" transform="translate(66.77 122.32)">60</text><text class="cls-3" transform="translate(66.77 137.83)">30</text><text class="cls-3" transform="translate(59.59 130.04)">45</text><text class="cls-3" transform="translate(74.01 130.04)">15</text><line class="cls-1" x1="40.08" y1="141.44" x2="43.08" y2="141.44"/><line class="cls-1" x1="41.69" y1="147.42" x2="44.28" y2="145.92"/><line class="cls-1" x1="46.06" y1="151.79" x2="47.56" y2="149.2"/><line class="cls-1" x1="52.04" y1="153.4" x2="52.04" y2="150.4"/><line class="cls-1" x1="58.01" y1="151.79" x2="56.51" y2="149.2"/><line class="cls-1" x1="62.39" y1="147.42" x2="59.79" y2="145.92"/><line class="cls-1" x1="63.99" y1="141.44" x2="60.99" y2="141.44"/><line class="cls-1" x1="62.39" y1="135.47" x2="59.79" y2="136.97"/><line class="cls-1" x1="58.01" y1="131.09" x2="56.51" y2="133.69"/><line class="cls-1" x1="52.04" y1="129.49" x2="52.04" y2="132.49"/><line class="cls-1" x1="46.06" y1="131.09" x2="47.56" y2="133.69"/><line class="cls-1" x1="41.69" y1="135.47" x2="44.28" y2="136.97"/><circle class="cls-1" cx="52.04" cy="141.44" r="12"/><text class="cls-3" transform="translate(50.27 134.71)">60</text><text class="cls-3" transform="translate(50.27 150.22)">30</text><text class="cls-3" transform="translate(43.08 142.42)">45</text><text class="cls-3" transform="translate(57.5 142.42)">15</text><circle class="cls-2" cx="52.09" cy="127.94" r="2"/><circle class="cls-2" cx="52.09" cy="127.94" r="4"/><rect class="cls-2" x="51.59" y="110.32" width="1" height="30"/><path class="cls-2" d="M116.09,125.91c-1.09-.18-2.85-.53-3.92-.77l-14.49-3.26c-1.07-.24-1.06-.29,0-.1l14.64,2.52c1.08.18,2.84.54,3.92.79l11,2.55c1.07.25,1.06.3,0,.12Z" transform="translate(-75.95 0.05)"/><path class="cls-2" d="M128.82,127.5c-.95.55-1,.5-.06-.11l9.43-6.25c.91-.6,2.44-1.56,3.39-2.11l12.83-7.49c1-.55,1-.51.05.09L142,119.76c-.92.6-2.45,1.55-3.4,2.09Z" transform="translate(-75.95 0.05)"/></svg>