<svg id="Layer_1" data-name="Layer 1" xmlns="http://www.w3.org/2000/svg" viewBox="0 0 111.93 256.1"><defs><style>.cls-1,.cls-2,.cls-4,.cls-6,.cls-7{fill:none;stroke-miterlimit:10;}.cls-1,.cls-2,.cls-4,.cls-7{stroke:#666;}.cls-1{stroke-width:0.1px;}.cls-2,.cls-6{stroke-width:0.08px;}.cls-3{font-size:2.5px;font-family:KohinoorBangla-Regular, Kohinoor Bangla;}.cls-4{stroke-width:0.25px;}.cls-5{letter-spacing:0em;}.cls-6{stroke:#000;}.cls-7{stroke-width:0.08px;}</style></defs><title>breitling</title><circle class="cls-1" cx="52.69" cy="127.84" r="48"/><circle class="cls-1" cx="52.69" cy="127.84" r="51.94"/><circle class="cls-1" cx="52.69" cy="127.84" r="42"/><circle class="cls-1" cx="52.69" cy="127.84" r="34"/><path class="cls-1" d="M148,244c-2.05,6.87-10.22,12-20,12s-18-5.13-20-12h-4V180h48v64Z" transform="translate(-76.01 0.05)"/><path class="cls-1" d="M148,12C146,5.13,137.78,0,128,0s-18,5.13-20,12h-4V76h48V12Z" transform="translate(-76.01 0.05)"/><path class="cls-2" d="M176.91,138.4a2,2,0,0,1,2.32-1.55c.09-.48.17-.95.23-1.43a2,2,0,0,1,.41-4c0-.49.06-1,.08-1.46a2,2,0,0,1,0-4c0-.49,0-1-.08-1.46a2,2,0,0,1-.41-4c-.06-.48-.14-1-.23-1.43a2,2,0,0,1-.81-3.91c-.12-.47-.26-.93-.39-1.4a2,2,0,0,1-1.22-3.8c-.16-.46-.35-.9-.53-1.35a2,2,0,0,1-1.62-3.65c-.21-.43-.44-.86-.66-1.29a2,2,0,0,1-2-3.46c-.26-.41-.52-.82-.79-1.22a2,2,0,0,1-2.35-3.22c-.3-.38-.6-.76-.91-1.13a2,2,0,0,1-2.68-3c-.34-.35-.68-.69-1-1a2,2,0,0,1-3-2.68c-.37-.31-.75-.61-1.13-.91a2,2,0,0,1-3.22-2.35c-.4-.27-.81-.53-1.22-.79a2,2,0,0,1-3.46-2L151,81.34a2,2,0,0,1-3.65-1.62c-.45-.18-.89-.37-1.35-.53a2,2,0,0,1-3.8-1.22c-.47-.13-.93-.27-1.4-.39a2,2,0,0,1-3.91-.81c-.48-.09-.95-.17-1.43-.23a2,2,0,0,1-4-.41c-.49,0-1-.06-1.46-.08a2,2,0,0,1-4,0c-.49,0-1,0-1.46.08a2,2,0,0,1-4,.41c-.48.06-1,.14-1.43.23a2,2,0,0,1-3.91.81c-.47.12-.93.26-1.4.39a2,2,0,0,1-3.8,1.22c-.46.16-.9.35-1.35.53A2,2,0,0,1,105,81.34c-.43.21-.86.44-1.29.66a2,2,0,0,1-3.46,2c-.41.26-.82.52-1.22.79a2,2,0,0,1-3.22,2.35c-.38.3-.76.6-1.13.91a2,2,0,0,1-3,2.68c-.35.34-.69.68-1,1a2,2,0,0,1-2.68,3c-.31.37-.61.75-.91,1.13a2,2,0,0,1-2.35,3.22c-.27.4-.53.81-.79,1.22a2,2,0,0,1-2,3.46c-.22.43-.45.86-.66,1.29a2,2,0,0,1-1.62,3.65c-.18.45-.37.89-.53,1.35a2,2,0,0,1-1.22,3.8c-.13.47-.27.93-.39,1.4a2,2,0,0,1-.81,3.91c-.09.48-.17.95-.23,1.43a2,2,0,0,1-.41,4c0,.49-.06,1-.08,1.46a2,2,0,0,1,0,4c0,.49,0,1,.08,1.46a2,2,0,0,1,.41,4c.06.48.14,1,.23,1.43a2,2,0,0,1,.81,3.91c.12.47.26.93.39,1.4a2,2,0,0,1,1.22,3.8c.16.46.35.9.53,1.35A2,2,0,0,1,81.34,151c.21.43.44.86.66,1.29a2,2,0,0,1,2,3.46c.26.41.52.82.79,1.22a2,2,0,0,1,2.35,3.22c.3.38.6.76.91,1.13a2,2,0,0,1,2.68,3c.34.35.68.69,1,1a2,2,0,0,1,3,2.68c.37.31.75.61,1.13.91a2,2,0,0,1,3.22,2.35c.4.27.81.53,1.22.79a2,2,0,0,1,3.46,2l1.29.66a2,2,0,0,1,3.65,1.62c.45.18.89.37,1.35.53a2,2,0,0,1,3.8,1.22c.47.13.93.27,1.4.39a2,2,0,0,1,3.91.81c.48.09.95.17,1.43.23a2,2,0,0,1,4,.41c.49,0,1,.06,1.46.08a2,2,0,0,1,4,0c.49,0,1,0,1.46-.08a2,2,0,0,1,4-.41c.48-.06,1-.14,1.43-.23a2,2,0,0,1,3.91-.81c.47-.12.93-.26,1.4-.39a2,2,0,0,1,3.8-1.22c.46-.16.9-.35,1.35-.53a2,2,0,0,1,3.65-1.62l1.29-.66a2,2,0,0,1,3.46-2c.41-.26.82-.52,1.22-.79a2,2,0,0,1,3.22-2.35c.38-.3.76-.6,1.13-.91a2,2,0,0,1,3-2.68l1-1a2,2,0,0,1,2.68-3c.31-.37.61-.75.91-1.13a2,2,0,0,1,2.35-3.22c.27-.4.53-.81.79-1.22a2,2,0,0,1,2-3.46c.22-.43.45-.86.66-1.29a2,2,0,0,1,1.62-3.65c.18-.45.37-.89.53-1.35a2,2,0,0,1,1.22-3.8c.13-.47.27-.93.39-1.4A2,2,0,0,1,176.91,138.4Z" transform="translate(-76.01 0.05)"/><text class="cls-3" transform="translate(50.61 83)">60</text><line class="cls-4" x1="51.99" y1="83.97" x2="51.99" y2="85.95"/><line class="cls-4" x1="51.99" y1="86.23" x2="51.99" y2="87.63"/><line class="cls-4" x1="58.89" y1="84.52" x2="58.58" y2="86.47"/><line class="cls-4" x1="58.53" y1="86.74" x2="58.31" y2="88.12"/><line class="cls-4" x1="65.61" y1="86.13" x2="65" y2="88.01"/><line class="cls-4" x1="64.91" y1="88.27" x2="64.48" y2="89.6"/><line class="cls-4" x1="72" y1="88.78" x2="71.11" y2="90.54"/><line class="cls-4" x1="70.98" y1="90.78" x2="70.34" y2="92.03"/><line class="cls-4" x1="77.9" y1="92.39" x2="76.74" y2="93.99"/><line class="cls-4" x1="76.57" y1="94.21" x2="75.75" y2="95.35"/><line class="cls-4" x1="83.16" y1="96.89" x2="81.76" y2="98.28"/><line class="cls-4" x1="81.56" y1="98.48" x2="80.57" y2="99.47"/><line class="cls-4" x1="87.65" y1="102.15" x2="86.05" y2="103.3"/><line class="cls-4" x1="85.83" y1="103.47" x2="84.69" y2="104.29"/><line class="cls-4" x1="91.26" y1="108.04" x2="89.5" y2="108.94"/><line class="cls-4" x1="89.25" y1="109.06" x2="88.01" y2="109.7"/><line class="cls-4" x1="93.91" y1="114.43" x2="92.03" y2="115.04"/><line class="cls-4" x1="91.77" y1="115.13" x2="90.43" y2="115.56"/><line class="cls-4" x1="95.52" y1="121.16" x2="93.57" y2="121.47"/><line class="cls-4" x1="93.3" y1="121.51" x2="91.92" y2="121.73"/><line class="cls-4" x1="96.06" y1="128.05" x2="94.09" y2="128.05"/><line class="cls-4" x1="93.81" y1="128.05" x2="92.41" y2="128.05"/><line class="cls-4" x1="95.52" y1="134.95" x2="93.57" y2="134.64"/><line class="cls-4" x1="93.3" y1="134.59" x2="91.92" y2="134.37"/><line class="cls-4" x1="93.91" y1="141.67" x2="92.03" y2="141.06"/><line class="cls-4" x1="91.77" y1="140.97" x2="90.43" y2="140.54"/><line class="cls-4" x1="91.26" y1="148.06" x2="89.5" y2="147.17"/><line class="cls-4" x1="89.25" y1="147.04" x2="88.01" y2="146.4"/><line class="cls-4" x1="87.64" y1="153.96" x2="86.05" y2="152.8"/><line class="cls-4" x1="85.83" y1="152.63" x2="84.69" y2="151.81"/><line class="cls-4" x1="83.15" y1="159.22" x2="81.76" y2="157.82"/><line class="cls-4" x1="81.56" y1="157.62" x2="80.57" y2="156.63"/><line class="cls-4" x1="77.89" y1="163.71" x2="76.73" y2="162.11"/><line class="cls-4" x1="76.57" y1="161.89" x2="75.75" y2="160.75"/><line class="cls-4" x1="72" y1="167.32" x2="71.1" y2="165.57"/><line class="cls-4" x1="70.98" y1="165.32" x2="70.34" y2="164.07"/><line class="cls-4" x1="65.61" y1="169.97" x2="65" y2="168.09"/><line class="cls-4" x1="64.91" y1="167.83" x2="64.48" y2="166.5"/><line class="cls-4" x1="58.88" y1="171.58" x2="58.57" y2="169.64"/><line class="cls-4" x1="58.53" y1="169.36" x2="58.31" y2="167.98"/><line class="cls-4" x1="51.99" y1="172.13" x2="51.99" y2="170.15"/><line class="cls-4" x1="51.99" y1="169.87" x2="51.99" y2="168.47"/><line class="cls-4" x1="45.09" y1="171.58" x2="45.4" y2="169.63"/><line class="cls-4" x1="45.45" y1="169.36" x2="45.66" y2="167.98"/><line class="cls-4" x1="38.37" y1="169.97" x2="38.98" y2="168.09"/><line class="cls-4" x1="39.06" y1="167.83" x2="39.5" y2="166.5"/><line class="cls-4" x1="31.98" y1="167.32" x2="32.87" y2="165.56"/><line class="cls-4" x1="33" y1="165.32" x2="33.64" y2="164.07"/><line class="cls-4" x1="26.08" y1="163.71" x2="27.24" y2="162.11"/><line class="cls-4" x1="27.4" y1="161.89" x2="28.23" y2="160.75"/><line class="cls-4" x1="20.82" y1="159.21" x2="22.22" y2="157.82"/><line class="cls-4" x1="22.41" y1="157.62" x2="23.4" y2="156.63"/><line class="cls-4" x1="16.33" y1="153.95" x2="17.92" y2="152.8"/><line class="cls-4" x1="18.15" y1="152.63" x2="19.28" y2="151.81"/><line class="cls-2" x1="49.22" y1="84.06" x2="49.35" y2="86.03"/><line class="cls-2" x1="49.36" y1="86.31" x2="49.45" y2="87.71"/><line class="cls-2" x1="53.32" y1="85.97" x2="53.39" y2="84"/><line class="cls-2" x1="54.64" y1="86.03" x2="54.77" y2="84.06"/><line class="cls-2" x1="54.54" y1="87.7" x2="54.63" y2="86.31"/><line class="cls-2" x1="55.96" y1="86.13" x2="56.15" y2="84.17"/><line class="cls-2" x1="55.81" y1="87.8" x2="55.94" y2="86.41"/><line class="cls-2" x1="57.28" y1="86.28" x2="57.52" y2="84.32"/><line class="cls-2" x1="57.07" y1="87.94" x2="57.24" y2="86.55"/><line class="cls-2" x1="59.89" y1="86.69" x2="60.26" y2="84.76"/><line class="cls-2" x1="59.58" y1="88.34" x2="59.84" y2="86.96"/><line class="cls-2" x1="61.18" y1="86.96" x2="61.61" y2="85.04"/><line class="cls-2" x1="60.82" y1="88.6" x2="61.12" y2="87.23"/><line class="cls-2" x1="62.47" y1="87.27" x2="62.96" y2="85.36"/><line class="cls-2" x1="62.05" y1="88.89" x2="62.4" y2="87.54"/><line class="cls-2" x1="63.75" y1="87.62" x2="64.3" y2="85.73"/><line class="cls-2" x1="63.28" y1="89.23" x2="63.67" y2="87.89"/><line class="cls-2" x1="66.26" y1="88.44" x2="66.93" y2="86.58"/><line class="cls-2" x1="65.69" y1="90.02" x2="66.17" y2="88.7"/><line class="cls-2" x1="67.5" y1="88.91" x2="68.22" y2="87.07"/><line class="cls-2" x1="66.88" y1="90.47" x2="67.4" y2="89.16"/><line class="cls-2" x1="68.72" y1="89.41" x2="69.5" y2="87.6"/><line class="cls-2" x1="68.06" y1="90.95" x2="68.61" y2="89.67"/><line class="cls-2" x1="69.93" y1="89.96" x2="70.77" y2="88.17"/><line class="cls-2" x1="69.21" y1="91.47" x2="69.81" y2="90.21"/><line class="cls-2" x1="72.28" y1="91.16" x2="73.23" y2="89.43"/><line class="cls-2" x1="71.48" y1="92.63" x2="72.15" y2="91.4"/><line class="cls-2" x1="73.43" y1="91.82" x2="74.43" y2="90.12"/><line class="cls-2" x1="72.58" y1="93.26" x2="73.29" y2="92.05"/><line class="cls-2" x1="74.56" y1="92.51" x2="75.62" y2="90.84"/><line class="cls-2" x1="73.66" y1="93.92" x2="74.41" y2="92.74"/><line class="cls-2" x1="75.66" y1="93.23" x2="76.77" y2="91.6"/><line class="cls-2" x1="74.72" y1="94.62" x2="75.51" y2="93.46"/><line class="cls-2" x1="77.8" y1="94.79" x2="79.01" y2="93.23"/><line class="cls-2" x1="76.78" y1="96.11" x2="77.63" y2="95.01"/><line class="cls-2" x1="78.84" y1="95.62" x2="80.09" y2="94.1"/><line class="cls-2" x1="77.77" y1="96.91" x2="78.66" y2="95.83"/><line class="cls-2" x1="79.84" y1="96.48" x2="81.14" y2="95"/><line class="cls-2" x1="78.73" y1="97.73" x2="79.66" y2="96.68"/><line class="cls-2" x1="80.82" y1="97.37" x2="82.17" y2="95.93"/><line class="cls-2" x1="79.67" y1="98.59" x2="80.63" y2="97.57"/><line class="cls-2" x1="82.69" y1="99.24" x2="84.13" y2="97.89"/><line class="cls-2" x1="81.47" y1="100.38" x2="82.49" y2="99.43"/><line class="cls-2" x1="83.58" y1="100.22" x2="85.06" y2="98.91"/><line class="cls-2" x1="82.32" y1="101.32" x2="83.37" y2="100.4"/><line class="cls-2" x1="84.44" y1="101.22" x2="85.96" y2="99.96"/><line class="cls-2" x1="83.15" y1="102.29" x2="84.23" y2="101.4"/><line class="cls-2" x1="85.26" y1="102.25" x2="86.82" y2="101.05"/><line class="cls-2" x1="83.94" y1="103.28" x2="85.05" y2="102.42"/><line class="cls-2" x1="86.82" y1="104.39" x2="88.45" y2="103.29"/><line class="cls-2" x1="85.43" y1="105.34" x2="86.59" y2="104.55"/><line class="cls-2" x1="87.54" y1="105.5" x2="89.21" y2="104.44"/><line class="cls-2" x1="86.13" y1="106.4" x2="87.31" y2="105.65"/><line class="cls-2" x1="88.23" y1="106.63" x2="89.93" y2="105.62"/><line class="cls-2" x1="86.79" y1="107.48" x2="88" y2="106.77"/><line class="cls-2" x1="88.89" y1="107.78" x2="90.62" y2="106.83"/><line class="cls-2" x1="87.42" y1="108.58" x2="88.65" y2="107.91"/><line class="cls-2" x1="90.09" y1="110.13" x2="91.87" y2="109.29"/><line class="cls-2" x1="88.57" y1="110.85" x2="89.84" y2="110.25"/><line class="cls-2" x1="90.63" y1="111.34" x2="92.44" y2="110.56"/><line class="cls-2" x1="89.1" y1="112.01" x2="90.38" y2="111.45"/><line class="cls-2" x1="91.14" y1="112.56" x2="92.97" y2="111.84"/><line class="cls-2" x1="89.58" y1="113.18" x2="90.88" y2="112.66"/><line class="cls-2" x1="91.61" y1="113.8" x2="93.46" y2="113.13"/><line class="cls-2" x1="90.03" y1="114.37" x2="91.35" y2="113.89"/><line class="cls-2" x1="92.42" y1="116.32" x2="94.32" y2="115.77"/><line class="cls-2" x1="90.81" y1="116.78" x2="92.16" y2="116.39"/><line class="cls-2" x1="92.77" y1="117.59" x2="94.68" y2="117.1"/><line class="cls-2" x1="91.15" y1="118.01" x2="92.51" y2="117.66"/><line class="cls-2" x1="93.08" y1="118.88" x2="95" y2="118.45"/><line class="cls-2" x1="91.45" y1="119.24" x2="92.81" y2="118.94"/><line class="cls-2" x1="93.35" y1="120.17" x2="95.29" y2="119.8"/><line class="cls-2" x1="91.7" y1="120.49" x2="93.08" y2="120.22"/><line class="cls-2" x1="93.76" y1="122.79" x2="95.72" y2="122.54"/><line class="cls-2" x1="92.1" y1="123" x2="93.49" y2="122.82"/><line class="cls-2" x1="93.91" y1="124.1" x2="95.87" y2="123.91"/><line class="cls-2" x1="92.24" y1="124.26" x2="93.63" y2="124.13"/><line class="cls-2" x1="94.01" y1="125.42" x2="95.98" y2="125.29"/><line class="cls-2" x1="92.34" y1="125.52" x2="93.73" y2="125.44"/><line class="cls-2" x1="94.07" y1="126.74" x2="96.04" y2="126.68"/><line class="cls-2" x1="92.4" y1="126.79" x2="93.8" y2="126.75"/><line class="cls-2" x1="94.07" y1="129.53" x2="96.04" y2="129.6"/><line class="cls-2" x1="92.39" y1="129.47" x2="93.79" y2="129.52"/><line class="cls-2" x1="94" y1="130.85" x2="95.97" y2="130.98"/><line class="cls-2" x1="92.33" y1="130.74" x2="93.72" y2="130.83"/><line class="cls-2" x1="93.89" y1="132.17" x2="95.85" y2="132.36"/><line class="cls-2" x1="92.22" y1="132.01" x2="93.62" y2="132.14"/><line class="cls-2" x1="93.74" y1="133.48" x2="95.69" y2="133.74"/><line class="cls-2" x1="92.08" y1="133.27" x2="93.47" y2="133.45"/><line class="cls-2" x1="93.32" y1="136.1" x2="95.25" y2="136.47"/><line class="cls-2" x1="91.67" y1="135.78" x2="93.05" y2="136.04"/><line class="cls-2" x1="93.04" y1="137.39" x2="94.97" y2="137.83"/><line class="cls-2" x1="91.41" y1="137.02" x2="92.77" y2="137.33"/><line class="cls-2" x1="92.73" y1="138.67" x2="94.64" y2="139.17"/><line class="cls-2" x1="91.11" y1="138.25" x2="92.46" y2="138.61"/><line class="cls-2" x1="92.38" y1="139.95" x2="94.27" y2="140.51"/><line class="cls-2" x1="90.77" y1="139.48" x2="92.11" y2="139.87"/><line class="cls-2" x1="91.55" y1="142.46" x2="93.4" y2="143.14"/><line class="cls-2" x1="89.97" y1="141.89" x2="91.29" y2="142.37"/><line class="cls-2" x1="91.08" y1="143.7" x2="92.91" y2="144.43"/><line class="cls-2" x1="89.52" y1="143.08" x2="90.82" y2="143.59"/><line class="cls-2" x1="90.57" y1="144.92" x2="92.37" y2="145.71"/><line class="cls-2" x1="89.03" y1="144.25" x2="90.31" y2="144.81"/><line class="cls-2" x1="90.02" y1="146.12" x2="91.8" y2="146.97"/><line class="cls-2" x1="88.5" y1="145.4" x2="89.77" y2="146"/><line class="cls-2" x1="88.81" y1="148.47" x2="90.53" y2="149.43"/><line class="cls-2" x1="87.34" y1="147.66" x2="88.57" y2="148.34"/><line class="cls-2" x1="88.15" y1="149.62" x2="89.84" y2="150.63"/><line class="cls-2" x1="86.71" y1="148.76" x2="87.91" y2="149.48"/><line class="cls-2" x1="87.45" y1="150.74" x2="89.11" y2="151.81"/><line class="cls-2" x1="86.04" y1="149.84" x2="87.22" y2="150.6"/><line class="cls-2" x1="86.72" y1="151.85" x2="88.35" y2="152.96"/><line class="cls-2" x1="85.34" y1="150.9" x2="86.49" y2="151.69"/><line class="cls-2" x1="85.16" y1="153.98" x2="86.71" y2="155.19"/><line class="cls-2" x1="83.84" y1="152.95" x2="84.94" y2="153.81"/><line class="cls-2" x1="84.33" y1="155.01" x2="85.84" y2="156.27"/><line class="cls-2" x1="83.04" y1="153.94" x2="84.12" y2="154.83"/><line class="cls-2" x1="83.47" y1="156.01" x2="84.94" y2="157.32"/><line class="cls-2" x1="82.21" y1="154.9" x2="83.26" y2="155.83"/><line class="cls-2" x1="82.57" y1="156.99" x2="84" y2="158.34"/><line class="cls-2" x1="81.35" y1="155.84" x2="82.37" y2="156.8"/><line class="cls-2" x1="80.69" y1="158.85" x2="82.04" y2="160.29"/><line class="cls-2" x1="79.55" y1="157.63" x2="80.51" y2="158.65"/><line class="cls-2" x1="79.71" y1="159.74" x2="81.01" y2="161.22"/><line class="cls-2" x1="78.61" y1="158.48" x2="79.53" y2="159.53"/><line class="cls-2" x1="78.7" y1="160.59" x2="79.95" y2="162.12"/><line class="cls-2" x1="77.64" y1="159.3" x2="78.53" y2="160.38"/><line class="cls-2" x1="77.67" y1="161.42" x2="78.87" y2="162.98"/><line class="cls-2" x1="76.65" y1="160.09" x2="77.5" y2="161.2"/><line class="cls-2" x1="75.52" y1="162.96" x2="76.62" y2="164.6"/><line class="cls-2" x1="74.59" y1="161.57" x2="75.37" y2="162.73"/><line class="cls-2" x1="74.41" y1="163.68" x2="75.46" y2="165.35"/><line class="cls-2" x1="73.52" y1="162.27" x2="74.27" y2="163.45"/><line class="cls-2" x1="73.28" y1="164.37" x2="74.28" y2="166.07"/><line class="cls-2" x1="72.44" y1="162.93" x2="73.14" y2="164.13"/><line class="cls-2" x1="72.13" y1="165.02" x2="73.08" y2="166.75"/><line class="cls-2" x1="71.33" y1="163.55" x2="72" y2="164.78"/><line class="cls-2" x1="69.77" y1="166.21" x2="70.6" y2="168"/><line class="cls-2" x1="69.06" y1="164.7" x2="69.65" y2="165.96"/><line class="cls-2" x1="68.56" y1="166.75" x2="69.34" y2="168.57"/><line class="cls-2" x1="67.9" y1="165.21" x2="68.46" y2="166.5"/><line class="cls-2" x1="67.34" y1="167.25" x2="68.06" y2="169.09"/><line class="cls-2" x1="66.73" y1="165.7" x2="67.24" y2="167"/><line class="cls-2" x1="66.1" y1="167.72" x2="66.76" y2="169.58"/><line class="cls-2" x1="65.54" y1="166.14" x2="66.01" y2="167.46"/><line class="cls-2" x1="63.58" y1="168.53" x2="64.13" y2="170.42"/><line class="cls-2" x1="63.12" y1="166.92" x2="63.51" y2="168.26"/><line class="cls-2" x1="62.3" y1="168.87" x2="62.79" y2="170.78"/><line class="cls-2" x1="61.89" y1="167.25" x2="62.24" y2="168.6"/><line class="cls-2" x1="61.02" y1="169.17" x2="61.44" y2="171.1"/><line class="cls-2" x1="60.66" y1="167.54" x2="60.96" y2="168.91"/><line class="cls-2" x1="59.72" y1="169.44" x2="60.08" y2="171.38"/><line class="cls-2" x1="59.41" y1="167.79" x2="59.67" y2="169.17"/><line class="cls-2" x1="57.11" y1="169.84" x2="57.35" y2="171.8"/><line class="cls-2" x1="56.9" y1="168.18" x2="57.07" y2="169.57"/><line class="cls-2" x1="55.79" y1="169.98" x2="55.97" y2="171.94"/><line class="cls-2" x1="55.64" y1="168.31" x2="55.77" y2="169.71"/><line class="cls-2" x1="54.47" y1="170.08" x2="54.59" y2="172.05"/><line class="cls-2" x1="54.37" y1="168.41" x2="54.46" y2="169.81"/><line class="cls-2" x1="53.15" y1="170.14" x2="53.21" y2="172.11"/><line class="cls-2" x1="53.11" y1="168.46" x2="53.14" y2="169.86"/><line class="cls-2" x1="50.51" y1="170.13" x2="50.44" y2="172.1"/><line class="cls-2" x1="50.57" y1="168.45" x2="50.52" y2="169.85"/><line class="cls-2" x1="49.19" y1="170.06" x2="49.06" y2="172.03"/><line class="cls-2" x1="49.3" y1="168.39" x2="49.2" y2="169.79"/><line class="cls-2" x1="47.87" y1="169.95" x2="47.68" y2="171.91"/><line class="cls-2" x1="48.03" y1="168.28" x2="47.89" y2="169.68"/><line class="cls-2" x1="46.55" y1="169.8" x2="46.3" y2="171.76"/><line class="cls-2" x1="46.77" y1="168.14" x2="46.59" y2="169.53"/><line class="cls-2" x1="43.94" y1="169.38" x2="43.57" y2="171.31"/><line class="cls-2" x1="44.26" y1="167.73" x2="44" y2="169.11"/><line class="cls-2" x1="42.65" y1="169.1" x2="42.21" y2="171.03"/><line class="cls-2" x1="43.02" y1="167.47" x2="42.71" y2="168.84"/><line class="cls-2" x1="41.36" y1="168.79" x2="40.87" y2="170.7"/><line class="cls-2" x1="41.79" y1="167.17" x2="41.43" y2="168.52"/><line class="cls-2" x1="40.09" y1="168.44" x2="39.53" y2="170.33"/><line class="cls-2" x1="40.56" y1="166.83" x2="40.17" y2="168.17"/><line class="cls-2" x1="37.58" y1="167.61" x2="36.9" y2="169.46"/><line class="cls-2" x1="38.15" y1="166.04" x2="37.67" y2="167.35"/><line class="cls-2" x1="36.34" y1="167.14" x2="35.61" y2="168.97"/><line class="cls-2" x1="36.96" y1="165.58" x2="36.44" y2="166.88"/><line class="cls-2" x1="35.12" y1="166.63" x2="34.33" y2="168.43"/><line class="cls-2" x1="35.79" y1="165.09" x2="35.23" y2="166.37"/><line class="cls-2" x1="33.92" y1="166.08" x2="33.07" y2="167.86"/><line class="cls-2" x1="34.64" y1="164.56" x2="34.04" y2="165.83"/><line class="cls-2" x1="31.57" y1="164.87" x2="30.61" y2="166.59"/><line class="cls-2" x1="32.38" y1="163.4" x2="31.7" y2="164.63"/><line class="cls-2" x1="30.42" y1="164.21" x2="29.41" y2="165.9"/><line class="cls-2" x1="31.28" y1="162.77" x2="30.56" y2="163.97"/><line class="cls-2" x1="29.29" y1="163.51" x2="28.23" y2="165.17"/><line class="cls-2" x1="30.2" y1="162.1" x2="29.44" y2="163.28"/><line class="cls-2" x1="28.19" y1="162.78" x2="27.08" y2="164.41"/><line class="cls-2" x1="29.14" y1="161.4" x2="28.35" y2="162.56"/><line class="cls-2" x1="26.06" y1="161.22" x2="24.84" y2="162.77"/><line class="cls-2" x1="27.09" y1="159.9" x2="26.23" y2="161"/><line class="cls-2" x1="25.03" y1="160.39" x2="23.77" y2="161.9"/><line class="cls-2" x1="26.1" y1="159.1" x2="25.2" y2="160.18"/><line class="cls-2" x1="24.03" y1="159.53" x2="22.72" y2="161"/><line class="cls-2" x1="25.14" y1="158.27" x2="24.21" y2="159.32"/><line class="cls-2" x1="23.05" y1="158.63" x2="21.7" y2="160.07"/><line class="cls-2" x1="24.2" y1="157.42" x2="23.24" y2="158.43"/><line class="cls-2" x1="21.19" y1="156.76" x2="19.75" y2="158.1"/><line class="cls-2" x1="22.41" y1="155.61" x2="21.39" y2="156.57"/><line class="cls-2" x1="20.3" y1="155.77" x2="18.82" y2="157.07"/><line class="cls-2" x1="21.56" y1="154.67" x2="20.51" y2="155.59"/><line class="cls-2" x1="19.45" y1="154.76" x2="17.92" y2="156.02"/><line class="cls-2" x1="20.74" y1="153.7" x2="19.66" y2="154.59"/><line class="cls-2" x1="18.62" y1="153.73" x2="17.06" y2="154.93"/><line class="cls-2" x1="19.95" y1="152.71" x2="18.84" y2="153.56"/><line class="cls-2" x1="46.47" y1="84.32" x2="46.71" y2="86.28"/><line class="cls-2" x1="46.75" y1="86.56" x2="46.92" y2="87.94"/><line class="cls-2" x1="43.73" y1="84.76" x2="44.1" y2="86.69"/><line class="cls-2" x1="44.15" y1="86.97" x2="44.41" y2="88.34"/><line class="cls-2" x1="41.03" y1="85.36" x2="41.52" y2="87.27"/><line class="cls-2" x1="41.59" y1="87.54" x2="41.94" y2="88.9"/><line class="cls-2" x1="35.77" y1="87.07" x2="36.49" y2="88.9"/><line class="cls-2" x1="36.59" y1="89.16" x2="37.11" y2="90.46"/><line class="cls-2" x1="33.22" y1="88.17" x2="34.06" y2="89.95"/><line class="cls-2" x1="34.18" y1="90.21" x2="34.78" y2="91.47"/><line class="cls-2" x1="30.76" y1="89.43" x2="31.71" y2="91.15"/><line class="cls-2" x1="31.84" y1="91.4" x2="32.51" y2="92.63"/><line class="cls-2" x1="28.37" y1="90.83" x2="29.43" y2="92.5"/><line class="cls-2" x1="29.58" y1="92.74" x2="30.33" y2="93.92"/><line class="cls-2" x1="23.9" y1="94.09" x2="25.15" y2="95.61"/><line class="cls-2" x1="25.33" y1="95.82" x2="26.22" y2="96.9"/><line class="cls-2" x1="21.82" y1="95.92" x2="23.17" y2="97.36"/><line class="cls-2" x1="23.36" y1="97.56" x2="24.32" y2="98.58"/><line class="cls-2" x1="19.86" y1="97.88" x2="21.3" y2="99.23"/><line class="cls-2" x1="21.5" y1="99.42" x2="22.52" y2="100.38"/><line class="cls-2" x1="18.03" y1="99.95" x2="19.55" y2="101.21"/><line class="cls-2" x1="19.76" y1="101.39" x2="20.84" y2="102.28"/><line class="cls-2" x1="14.78" y1="104.43" x2="16.44" y2="105.49"/><line class="cls-2" x1="16.67" y1="105.64" x2="17.86" y2="106.39"/><line class="cls-2" x1="13.37" y1="106.81" x2="15.09" y2="107.76"/><line class="cls-2" x1="15.34" y1="107.9" x2="16.56" y2="108.58"/><line class="cls-2" x1="12.11" y1="109.28" x2="13.89" y2="110.12"/><line class="cls-2" x1="14.14" y1="110.24" x2="15.41" y2="110.84"/><line class="cls-2" x1="11.01" y1="111.82" x2="12.84" y2="112.55"/><line class="cls-2" x1="13.1" y1="112.65" x2="14.4" y2="113.17"/><line class="cls-2" x1="9.3" y1="117.09" x2="11.21" y2="117.58"/><line class="cls-2" x1="11.48" y1="117.65" x2="12.83" y2="118"/><line class="cls-2" x1="8.69" y1="119.79" x2="10.63" y2="120.16"/><line class="cls-2" x1="10.9" y1="120.21" x2="12.28" y2="120.48"/><line class="cls-2" x1="8.26" y1="122.52" x2="10.22" y2="122.77"/><line class="cls-2" x1="10.49" y1="122.81" x2="11.88" y2="122.98"/><line class="cls-2" x1="8" y1="125.28" x2="9.97" y2="125.4"/><line class="cls-2" x1="10.25" y1="125.42" x2="11.64" y2="125.51"/><line class="cls-2" x1="8" y1="130.81" x2="9.97" y2="130.69"/><line class="cls-2" x1="10.25" y1="130.68" x2="11.64" y2="130.59"/><line class="cls-2" x1="8.26" y1="133.57" x2="10.22" y2="133.32"/><line class="cls-2" x1="10.49" y1="133.29" x2="11.88" y2="133.12"/><line class="cls-2" x1="8.69" y1="136.31" x2="10.63" y2="135.94"/><line class="cls-2" x1="10.9" y1="135.89" x2="12.28" y2="135.62"/><line class="cls-2" x1="9.3" y1="139.01" x2="11.21" y2="138.52"/><line class="cls-2" x1="11.48" y1="138.45" x2="12.83" y2="138.1"/><line class="cls-2" x1="11.01" y1="144.27" x2="12.84" y2="143.55"/><line class="cls-2" x1="13.1" y1="143.45" x2="14.4" y2="142.93"/><line class="cls-2" x1="12.11" y1="146.81" x2="13.89" y2="145.97"/><line class="cls-2" x1="14.14" y1="145.86" x2="15.41" y2="145.26"/><line class="cls-2" x1="13.36" y1="149.28" x2="15.09" y2="148.33"/><line class="cls-2" x1="15.34" y1="148.2" x2="16.56" y2="147.52"/><line class="cls-2" x1="14.77" y1="151.66" x2="16.44" y2="150.61"/><line class="cls-2" x1="16.67" y1="150.46" x2="17.86" y2="149.71"/><line class="cls-2" x1="50.65" y1="84.97" x2="50.68" y2="85.97"/><line class="cls-2" x1="50.67" y1="86.25" x2="50.7" y2="86.95"/><line class="cls-2" x1="47.94" y1="85.14" x2="48.04" y2="86.13"/><line class="cls-2" x1="48.05" y1="86.41" x2="48.12" y2="87.11"/><line class="cls-2" x1="45.26" y1="85.48" x2="45.41" y2="86.46"/><line class="cls-2" x1="45.45" y1="86.74" x2="45.56" y2="87.43"/><line class="cls-2" x1="42.6" y1="85.98" x2="42.82" y2="86.96"/><line class="cls-2" x1="42.86" y1="87.23" x2="43.02" y2="87.92"/><line class="cls-2" x1="39.97" y1="86.65" x2="40.25" y2="87.62"/><line class="cls-2" x1="40.32" y1="87.89" x2="40.52" y2="88.56"/><line class="cls-2" x1="37.4" y1="87.49" x2="37.74" y2="88.43"/><line class="cls-2" x1="37.82" y1="88.7" x2="38.06" y2="89.36"/><line class="cls-2" x1="34.88" y1="88.49" x2="35.28" y2="89.4"/><line class="cls-2" x1="35.38" y1="89.67" x2="35.66" y2="90.31"/><line class="cls-2" x1="32.43" y1="89.64" x2="32.88" y2="90.53"/><line class="cls-2" x1="33" y1="90.78" x2="33.32" y2="91.41"/><line class="cls-2" x1="30.06" y1="90.94" x2="30.57" y2="91.8"/><line class="cls-2" x1="30.7" y1="92.05" x2="31.05" y2="92.65"/><line class="cls-2" x1="27.77" y1="92.39" x2="28.33" y2="93.22"/><line class="cls-2" x1="28.48" y1="93.46" x2="28.87" y2="94.04"/><line class="cls-2" x1="25.58" y1="93.98" x2="26.19" y2="94.77"/><line class="cls-2" x1="26.35" y1="95" x2="26.78" y2="95.56"/><line class="cls-2" x1="23.49" y1="95.71" x2="24.15" y2="96.46"/><line class="cls-2" x1="24.33" y1="96.68" x2="24.79" y2="97.2"/><line class="cls-2" x1="21.52" y1="97.56" x2="22.23" y2="98.27"/><line class="cls-2" x1="22.41" y1="98.48" x2="22.91" y2="98.97"/><line class="cls-2" x1="19.66" y1="99.54" x2="20.41" y2="100.2"/><line class="cls-2" x1="20.62" y1="100.39" x2="21.14" y2="100.85"/><line class="cls-2" x1="17.94" y1="101.62" x2="18.73" y2="102.24"/><line class="cls-2" x1="18.94" y1="102.42" x2="19.49" y2="102.84"/><line class="cls-2" x1="16.35" y1="103.81" x2="17.17" y2="104.37"/><line class="cls-2" x1="17.4" y1="104.54" x2="17.98" y2="104.93"/><line class="cls-2" x1="14.89" y1="106.1" x2="15.75" y2="106.61"/><line class="cls-2" x1="15.99" y1="106.76" x2="16.59" y2="107.12"/><line class="cls-2" x1="13.59" y1="108.47" x2="14.48" y2="108.92"/><line class="cls-2" x1="14.72" y1="109.06" x2="15.35" y2="109.38"/><line class="cls-2" x1="12.44" y1="110.92" x2="13.35" y2="111.32"/><line class="cls-2" x1="13.6" y1="111.44" x2="14.25" y2="111.72"/><line class="cls-2" x1="11.44" y1="113.44" x2="12.38" y2="113.78"/><line class="cls-2" x1="12.64" y1="113.88" x2="13.3" y2="114.12"/><line class="cls-2" x1="10.6" y1="116.01" x2="11.56" y2="116.29"/><line class="cls-2" x1="11.82" y1="116.38" x2="12.5" y2="116.58"/><line class="cls-2" x1="9.93" y1="118.64" x2="10.9" y2="118.85"/><line class="cls-2" x1="11.17" y1="118.93" x2="11.85" y2="119.08"/><line class="cls-2" x1="9.42" y1="121.3" x2="10.41" y2="121.45"/><line class="cls-2" x1="10.68" y1="121.51" x2="11.37" y2="121.62"/><line class="cls-2" x1="9.08" y1="123.98" x2="10.07" y2="124.08"/><line class="cls-2" x1="10.35" y1="124.11" x2="11.05" y2="124.18"/><line class="cls-2" x1="8.91" y1="126.68" x2="9.91" y2="126.72"/><line class="cls-2" x1="10.18" y1="126.74" x2="10.88" y2="126.76"/><line class="cls-2" x1="8.91" y1="129.39" x2="9.91" y2="129.36"/><line class="cls-2" x1="10.18" y1="129.36" x2="10.88" y2="129.34"/><line class="cls-2" x1="9.08" y1="132.09" x2="10.07" y2="132"/><line class="cls-2" x1="10.35" y1="131.99" x2="11.05" y2="131.92"/><line class="cls-2" x1="9.41" y1="134.78" x2="10.4" y2="134.62"/><line class="cls-2" x1="10.68" y1="134.59" x2="11.37" y2="134.48"/><line class="cls-2" x1="9.92" y1="137.44" x2="10.9" y2="137.22"/><line class="cls-2" x1="11.17" y1="137.17" x2="11.85" y2="137.02"/><line class="cls-2" x1="10.59" y1="140.06" x2="11.55" y2="139.78"/><line class="cls-2" x1="11.82" y1="139.72" x2="12.5" y2="139.52"/><line class="cls-2" x1="11.43" y1="142.64" x2="12.37" y2="142.3"/><line class="cls-2" x1="12.64" y1="142.22" x2="13.3" y2="141.98"/><line class="cls-2" x1="12.43" y1="145.16" x2="13.34" y2="144.76"/><line class="cls-2" x1="13.6" y1="144.66" x2="14.25" y2="144.38"/><line class="cls-2" x1="13.58" y1="147.61" x2="14.47" y2="147.15"/><line class="cls-2" x1="14.72" y1="147.04" x2="15.35" y2="146.72"/><line class="cls-2" x1="14.88" y1="149.98" x2="15.74" y2="149.47"/><line class="cls-2" x1="15.99" y1="149.34" x2="16.59" y2="148.98"/><line class="cls-2" x1="16.33" y1="152.27" x2="17.16" y2="151.71"/><line class="cls-2" x1="17.4" y1="151.56" x2="17.98" y2="151.17"/><text class="cls-3" transform="translate(50.61 89.63)">60</text><text class="cls-3" transform="translate(57.68 83.34) rotate(9)"><tspan class="cls-5">6</tspan><tspan x="1.25" y="0">5</tspan></text><text class="cls-3" transform="translate(56.64 89.89) rotate(9)">60</text><text class="cls-3" transform="matrix(0.95, 0.31, -0.31, 0.95, 64.6, 84.78)">70</text><text class="cls-3" transform="matrix(0.95, 0.31, -0.31, 0.95, 62.55, 91.08)">60</text><text class="cls-3" transform="matrix(0.89, 0.45, -0.45, 0.89, 71.22, 87.28)">75</text><text class="cls-3" transform="matrix(0.89, 0.45, -0.45, 0.89, 68.2, 93.19)">60</text><text class="cls-3" transform="matrix(0.81, 0.59, -0.59, 0.81, 77.36, 90.79)">80</text><text class="cls-3" transform="matrix(0.81, 0.59, -0.59, 0.81, 73.46, 96.16)">60</text><text class="cls-3" transform="translate(82.87 95.22) rotate(45)">85</text><text class="cls-3" transform="translate(78.18 99.91) rotate(45)">60</text><text class="cls-3" transform="matrix(0.59, 0.81, -0.81, 0.59, 87.63, 100.45)">90</text><text class="cls-3" transform="matrix(0.59, 0.81, -0.81, 0.59, 82.26, 104.35)">60</text><text class="cls-3" transform="matrix(0.45, 0.89, -0.89, 0.45, 91.51, 106.37)">95</text><text class="cls-3" transform="matrix(0.45, 0.89, -0.89, 0.45, 85.6, 109.38)">60</text><text class="cls-3" transform="translate(94.41 112.82) rotate(72)">10</text><text class="cls-3" transform="translate(88.1 114.87) rotate(72)">60</text><text class="cls-3" transform="translate(89.72 120.68) rotate(81)">60</text><text class="cls-3" transform="translate(97.04 126.67) rotate(90)">11</text><text class="cls-3" transform="translate(90.41 126.67) rotate(90)">60</text><text class="cls-3" transform="matrix(-0.45, 0.89, -0.89, -0.45, 92.76, 147.28)">12</text><text class="cls-3" transform="matrix(-0.45, 0.89, -0.89, -0.45, 86.85, 144.26)">60</text><text class="cls-3" transform="translate(89.25 153.42) rotate(126)">13</text><text class="cls-3" transform="translate(83.88 149.52) rotate(126)">60</text><text class="cls-3" transform="translate(84.82 158.93) rotate(135)">14</text><text class="cls-3" transform="translate(80.13 154.24) rotate(135)">60</text><text class="cls-3" transform="matrix(-0.81, 0.59, -0.59, -0.81, 79.58, 163.69)">15</text><text class="cls-3" transform="matrix(-0.81, 0.59, -0.59, -0.81, 75.69, 158.32)">60</text><text class="cls-3" transform="translate(73.67 167.57) rotate(153)">16</text><text class="cls-3" transform="translate(70.66 161.66) rotate(153)">60</text><text class="cls-3" transform="matrix(-0.95, 0.31, -0.31, -0.95, 67.22, 170.47)">17</text><text class="cls-3" transform="matrix(-0.95, 0.31, -0.31, -0.95, 65.17, 164.16)">60</text><text class="cls-3" transform="translate(60.39 172.33) rotate(171)">18</text><text class="cls-3" transform="translate(59.36 165.78) rotate(171)">60</text><text class="cls-3" transform="translate(53.36 173.1) rotate(180)">19</text><text class="cls-3" transform="translate(53.37 166.47) rotate(180)">60</text><text class="cls-3" transform="translate(46.3 172.76) rotate(-171)">20</text><text class="cls-3" transform="translate(47.34 166.21) rotate(-171)">60</text><text class="cls-3" transform="matrix(-0.95, -0.31, 0.31, -0.95, 39.37, 171.32)">21</text><text class="cls-3" transform="matrix(-0.95, -0.31, 0.31, -0.95, 41.43, 165.02)">60</text><text class="cls-3" transform="matrix(-0.89, -0.45, 0.45, -0.89, 32.76, 168.82)">22</text><text class="cls-3" transform="matrix(-0.89, -0.45, 0.45, -0.89, 35.77, 162.91)">60</text><text class="cls-3" transform="matrix(-0.81, -0.59, 0.59, -0.81, 26.62, 165.31)">23</text><text class="cls-3" transform="matrix(-0.81, -0.59, 0.59, -0.81, 30.52, 159.95)">60</text><text class="cls-3" transform="translate(21.1 160.88) rotate(-135)">24</text><text class="cls-3" transform="translate(25.79 156.2) rotate(-135)">60</text><text class="cls-3" transform="matrix(-0.59, -0.81, 0.81, -0.59, 16.35, 155.64)">25</text><text class="cls-3" transform="matrix(-0.59, -0.81, 0.81, -0.59, 21.71, 151.75)">60</text><text class="cls-3" transform="translate(36.81 85.63) rotate(-18)">55</text><line class="cls-4" x1="38.37" y1="86.13" x2="38.98" y2="88.01"/><line class="cls-4" x1="39.06" y1="88.27" x2="39.5" y2="89.6"/><text class="cls-3" transform="translate(38.86 91.94) rotate(-18)">55</text><text class="cls-3" transform="translate(24.46 92.4) rotate(-36)">50</text><line class="cls-4" x1="26.08" y1="92.39" x2="27.24" y2="93.99"/><line class="cls-4" x1="27.4" y1="94.21" x2="28.23" y2="95.35"/><text class="cls-3" transform="translate(28.35 97.76) rotate(-36)">50</text><text class="cls-3" transform="translate(14.79 102.7) rotate(-54)">45</text><line class="cls-4" x1="16.33" y1="102.14" x2="17.93" y2="103.3"/><line class="cls-4" x1="18.15" y1="103.47" x2="19.28" y2="104.29"/><text class="cls-3" transform="translate(20.16 106.6) rotate(-54)">45</text><text class="cls-3" transform="translate(8.77 115.43) rotate(-72)">40</text><line class="cls-4" x1="10.07" y1="114.43" x2="11.95" y2="115.04"/><line class="cls-4" x1="12.21" y1="115.13" x2="13.54" y2="115.56"/><text class="cls-3" transform="translate(15.07 117.48) rotate(-72)">40</text><text class="cls-3" transform="translate(6.94 129.43) rotate(-90)">35</text><line class="cls-4" x1="7.91" y1="128.05" x2="9.89" y2="128.05"/><line class="cls-4" x1="10.16" y1="128.05" x2="11.56" y2="128.05"/><text class="cls-3" transform="translate(13.57 129.43) rotate(-90)">35</text><text class="cls-3" transform="translate(9.57 143.23) rotate(-108)">30</text><line class="cls-4" x1="10.07" y1="141.67" x2="11.95" y2="141.06"/><line class="cls-4" x1="12.21" y1="140.97" x2="13.54" y2="140.54"/><text class="cls-3" transform="translate(15.88 141.18) rotate(-108)">30</text><rect class="cls-6" x="94.97" y="127" width="1" height="2" transform="translate(-108.54 223.52) rotate(-90)"/><rect class="cls-6" x="127.5" y="159.53" width="1" height="2" transform="translate(179.99 321.11) rotate(-180)"/><rect class="cls-6" x="160.03" y="127" width="1" height="2" transform="translate(212.52 -32.48) rotate(90)"/><rect class="cls-6" x="127.97" y="94.99" width="3.75" height="2.68" transform="translate(150.17 -33.46) rotate(90)"/><rect class="cls-6" x="124.85" y="101.87" width="10" height="2.68" transform="translate(157.04 -26.59) rotate(90)"/><rect class="cls-6" x="124.26" y="94.99" width="3.75" height="2.68" transform="translate(146.45 -29.75) rotate(90)"/><rect class="cls-6" x="121.13" y="101.87" width="10" height="2.68" transform="translate(153.33 -22.87) rotate(90)"/><rect class="cls-6" x="110.31" y="99.24" width="3.75" height="2.68" transform="translate(67.18 -46.81) rotate(60)"/><rect class="cls-6" x="110.62" y="105.19" width="10" height="2.68" transform="translate(74.06 -46.81) rotate(60)"/><rect class="cls-6" x="98.72" y="110.82" width="3.75" height="2.68" transform="translate(-6.45 -35.22) rotate(30)"/><rect class="cls-6" x="101.55" y="114.26" width="10" height="2.68" transform="matrix(0.87, 0.5, -0.5, 0.87, -3.94, -37.74)"/><rect class="cls-6" x="98.7" y="142.48" width="3.75" height="2.68" transform="translate(-134.44 69.61) rotate(-30)"/><rect class="cls-6" x="101.53" y="139.04" width="10" height="2.68" transform="translate(-131.93 72.12) rotate(-30)"/><rect class="cls-6" x="110.29" y="154.07" width="3.75" height="2.68" transform="translate(-154.52 174.89) rotate(-60)"/><rect class="cls-6" x="110.6" y="148.11" width="10" height="2.68" transform="translate(-147.64 174.89) rotate(-60)"/><rect class="cls-6" x="141.94" y="154.08" width="3.75" height="2.68" transform="translate(5.12 357.73) rotate(-120)"/><rect class="cls-6" x="135.38" y="148.13" width="10" height="2.68" transform="translate(5.12 345.82) rotate(-120)"/><rect class="cls-6" x="153.53" y="142.5" width="3.75" height="2.68" transform="translate(142.06 346.16) rotate(-150)"/><rect class="cls-6" x="144.45" y="139.06" width="10" height="2.68" transform="translate(132.67 336.77) rotate(-150)"/><rect class="cls-6" x="153.55" y="110.84" width="3.75" height="2.68" transform="translate(270.1 131.68) rotate(150)"/><rect class="cls-6" x="144.47" y="114.28" width="10" height="2.68" transform="translate(260.71 141.07) rotate(150)"/><rect class="cls-6" x="141.96" y="99.25" width="3.75" height="2.68" transform="translate(226.86 26.37) rotate(120)"/><rect class="cls-6" x="135.4" y="105.21" width="10" height="2.68" transform="translate(226.86 38.28) rotate(120)"/><line class="cls-6" x1="47.61" y1="94.8" x2="47.74" y2="95.8"/><line class="cls-6" x1="46.74" y1="94.93" x2="46.9" y2="95.92"/><line class="cls-6" x1="45.88" y1="95.08" x2="46.06" y2="96.06"/><line class="cls-6" x1="44.16" y1="95.44" x2="44.39" y2="96.42"/><line class="cls-6" x1="43.31" y1="95.66" x2="43.57" y2="96.63"/><line class="cls-6" x1="42.46" y1="95.9" x2="42.75" y2="96.86"/><line class="cls-6" x1="40.79" y1="96.44" x2="41.13" y2="97.38"/><line class="cls-6" x1="39.97" y1="96.74" x2="40.33" y2="97.68"/><line class="cls-6" x1="39.16" y1="97.07" x2="39.54" y2="97.99"/><line class="cls-6" x1="37.55" y1="97.78" x2="37.98" y2="98.69"/><line class="cls-6" x1="36.76" y1="98.17" x2="37.22" y2="99.06"/><line class="cls-6" x1="33.72" y1="99.93" x2="34.27" y2="100.77"/><line class="cls-6" x1="32.99" y1="100.41" x2="33.56" y2="101.24"/><line class="cls-6" x1="31.57" y1="101.45" x2="32.18" y2="102.24"/><line class="cls-6" x1="30.89" y1="101.99" x2="31.51" y2="102.77"/><line class="cls-6" x1="30.21" y1="102.55" x2="30.86" y2="103.31"/><line class="cls-6" x1="28.91" y1="103.73" x2="29.59" y2="104.45"/><line class="cls-6" x1="28.28" y1="104.34" x2="28.98" y2="105.05"/><line class="cls-6" x1="27.66" y1="104.97" x2="28.39" y2="105.66"/><line class="cls-6" x1="26.49" y1="106.27" x2="27.25" y2="106.92"/><line class="cls-6" x1="25.93" y1="106.95" x2="26.71" y2="107.58"/><line class="cls-6" x1="25.38" y1="107.64" x2="26.18" y2="108.24"/><line class="cls-6" x1="24.35" y1="109.06" x2="25.18" y2="109.62"/><line class="cls-6" x1="23.87" y1="109.79" x2="24.7" y2="110.33"/><line class="cls-6" x1="22.11" y1="112.83" x2="23" y2="113.28"/><line class="cls-6" x1="21.72" y1="113.61" x2="22.62" y2="114.04"/><line class="cls-6" x1="21.01" y1="115.22" x2="21.93" y2="115.6"/><line class="cls-6" x1="20.68" y1="116.03" x2="21.62" y2="116.39"/><line class="cls-6" x1="20.38" y1="116.86" x2="21.32" y2="117.19"/><line class="cls-6" x1="19.84" y1="118.53" x2="20.79" y2="118.81"/><line class="cls-6" x1="19.6" y1="119.37" x2="20.56" y2="119.63"/><line class="cls-6" x1="19.38" y1="120.22" x2="20.35" y2="120.46"/><line class="cls-6" x1="19.02" y1="121.94" x2="20" y2="122.12"/><line class="cls-6" x1="18.87" y1="122.8" x2="19.86" y2="122.96"/><line class="cls-6" x1="18.74" y1="123.67" x2="19.73" y2="123.8"/><line class="cls-6" x1="18.56" y1="125.42" x2="19.56" y2="125.5"/><line class="cls-6" x1="18.5" y1="126.3" x2="19.5" y2="126.35"/><line class="cls-6" x1="18.47" y1="127.17" x2="19.47" y2="127.2"/><line class="cls-6" x1="18.47" y1="128.93" x2="19.47" y2="128.9"/><line class="cls-6" x1="18.5" y1="129.8" x2="19.5" y2="129.75"/><line class="cls-6" x1="18.56" y1="130.68" x2="19.56" y2="130.6"/><line class="cls-6" x1="18.74" y1="132.43" x2="19.73" y2="132.3"/><line class="cls-6" x1="18.87" y1="133.3" x2="19.86" y2="133.14"/><line class="cls-6" x1="19.02" y1="134.16" x2="20" y2="133.98"/><line class="cls-6" x1="19.38" y1="135.88" x2="20.35" y2="135.64"/><line class="cls-6" x1="19.6" y1="136.73" x2="20.56" y2="136.47"/><line class="cls-6" x1="19.84" y1="137.57" x2="20.79" y2="137.29"/><line class="cls-6" x1="20.38" y1="139.24" x2="21.32" y2="138.91"/><line class="cls-6" x1="20.68" y1="140.07" x2="21.62" y2="139.71"/><line class="cls-6" x1="21.01" y1="140.88" x2="21.93" y2="140.5"/><line class="cls-6" x1="21.72" y1="142.49" x2="22.62" y2="142.06"/><line class="cls-6" x1="22.11" y1="143.27" x2="23" y2="142.82"/><line class="cls-6" x1="23.87" y1="146.31" x2="24.7" y2="145.77"/><line class="cls-6" x1="24.35" y1="147.04" x2="25.18" y2="146.48"/><line class="cls-6" x1="25.38" y1="148.46" x2="26.18" y2="147.86"/><line class="cls-6" x1="25.93" y1="149.15" x2="26.71" y2="148.52"/><line class="cls-6" x1="26.49" y1="149.83" x2="27.25" y2="149.18"/><line class="cls-6" x1="27.66" y1="151.13" x2="28.39" y2="150.44"/><line class="cls-6" x1="28.28" y1="151.76" x2="28.98" y2="151.05"/><line class="cls-6" x1="28.91" y1="152.37" x2="29.59" y2="151.65"/><line class="cls-6" x1="30.21" y1="153.55" x2="30.86" y2="152.79"/><line class="cls-6" x1="30.89" y1="154.11" x2="31.51" y2="153.33"/><line class="cls-6" x1="31.57" y1="154.65" x2="32.18" y2="153.86"/><line class="cls-6" x1="32.99" y1="155.69" x2="33.56" y2="154.86"/><line class="cls-6" x1="33.72" y1="156.17" x2="34.27" y2="155.33"/><line class="cls-6" x1="36.76" y1="157.93" x2="37.22" y2="157.04"/><line class="cls-6" x1="37.55" y1="158.32" x2="37.98" y2="157.41"/><line class="cls-6" x1="39.16" y1="159.03" x2="39.54" y2="158.11"/><line class="cls-6" x1="39.97" y1="159.36" x2="40.33" y2="158.42"/><line class="cls-6" x1="40.79" y1="159.66" x2="41.13" y2="158.72"/><line class="cls-6" x1="42.46" y1="160.2" x2="42.75" y2="159.24"/><line class="cls-6" x1="43.31" y1="160.44" x2="43.57" y2="159.47"/><line class="cls-6" x1="44.16" y1="160.66" x2="44.39" y2="159.68"/><line class="cls-6" x1="45.88" y1="161.02" x2="46.06" y2="160.04"/><line class="cls-6" x1="46.74" y1="161.17" x2="46.9" y2="160.18"/><line class="cls-6" x1="47.61" y1="161.3" x2="47.74" y2="160.3"/><line class="cls-6" x1="49.36" y1="161.48" x2="49.44" y2="160.48"/><line class="cls-6" x1="50.23" y1="161.54" x2="50.29" y2="160.54"/><line class="cls-6" x1="51.11" y1="161.57" x2="51.14" y2="160.57"/><line class="cls-6" x1="52.87" y1="161.57" x2="52.84" y2="160.57"/><line class="cls-6" x1="53.74" y1="161.54" x2="53.69" y2="160.54"/><line class="cls-6" x1="54.62" y1="161.48" x2="54.54" y2="160.48"/><line class="cls-6" x1="56.37" y1="161.3" x2="56.23" y2="160.3"/><line class="cls-6" x1="57.23" y1="161.17" x2="57.08" y2="160.18"/><line class="cls-6" x1="58.1" y1="161.02" x2="57.92" y2="160.04"/><line class="cls-6" x1="59.82" y1="160.66" x2="59.58" y2="159.68"/><line class="cls-6" x1="60.67" y1="160.44" x2="60.41" y2="159.47"/><line class="cls-6" x1="61.51" y1="160.2" x2="61.23" y2="159.24"/><line class="cls-6" x1="63.18" y1="159.66" x2="62.85" y2="158.72"/><line class="cls-6" x1="64.01" y1="159.36" x2="63.65" y2="158.42"/><line class="cls-6" x1="64.82" y1="159.03" x2="64.44" y2="158.11"/><line class="cls-6" x1="66.42" y1="158.32" x2="65.99" y2="157.41"/><line class="cls-6" x1="67.21" y1="157.93" x2="66.76" y2="157.04"/><line class="cls-6" x1="70.25" y1="156.17" x2="69.71" y2="155.33"/><line class="cls-6" x1="70.98" y1="155.69" x2="70.42" y2="154.86"/><line class="cls-6" x1="72.4" y1="154.65" x2="71.79" y2="153.86"/><line class="cls-6" x1="73.09" y1="154.11" x2="72.46" y2="153.33"/><line class="cls-6" x1="73.77" y1="153.55" x2="73.12" y2="152.79"/><line class="cls-6" x1="75.07" y1="152.37" x2="74.38" y2="151.65"/><line class="cls-6" x1="75.7" y1="151.76" x2="74.99" y2="151.05"/><line class="cls-6" x1="76.31" y1="151.13" x2="75.59" y2="150.44"/><line class="cls-6" x1="77.49" y1="149.83" x2="76.73" y2="149.18"/><line class="cls-6" x1="78.05" y1="149.15" x2="77.27" y2="148.52"/><line class="cls-6" x1="78.59" y1="148.46" x2="77.8" y2="147.86"/><line class="cls-6" x1="79.62" y1="147.04" x2="78.8" y2="146.48"/><line class="cls-6" x1="80.11" y1="146.31" x2="79.27" y2="145.77"/><line class="cls-6" x1="81.87" y1="143.27" x2="80.98" y2="142.82"/><line class="cls-6" x1="82.26" y1="142.49" x2="81.35" y2="142.06"/><line class="cls-6" x1="82.97" y1="140.88" x2="82.05" y2="140.5"/><line class="cls-6" x1="83.29" y1="140.07" x2="82.36" y2="139.71"/><line class="cls-6" x1="83.6" y1="139.24" x2="82.66" y2="138.91"/><line class="cls-6" x1="84.14" y1="137.57" x2="83.18" y2="137.29"/><line class="cls-6" x1="84.38" y1="136.73" x2="83.41" y2="136.47"/><line class="cls-6" x1="84.6" y1="135.88" x2="83.62" y2="135.64"/><line class="cls-6" x1="84.96" y1="134.16" x2="83.98" y2="133.98"/><line class="cls-6" x1="85.11" y1="133.3" x2="84.12" y2="133.14"/><line class="cls-6" x1="85.23" y1="132.43" x2="84.24" y2="132.3"/><line class="cls-6" x1="85.42" y1="130.68" x2="84.42" y2="130.6"/><line class="cls-6" x1="85.48" y1="129.8" x2="84.48" y2="129.75"/><line class="cls-6" x1="85.51" y1="128.93" x2="84.51" y2="128.9"/><line class="cls-6" x1="85.51" y1="127.17" x2="84.51" y2="127.2"/><line class="cls-6" x1="85.48" y1="126.3" x2="84.48" y2="126.35"/><line class="cls-6" x1="85.42" y1="125.42" x2="84.42" y2="125.5"/><line class="cls-6" x1="85.23" y1="123.67" x2="84.24" y2="123.8"/><line class="cls-6" x1="85.11" y1="122.8" x2="84.12" y2="122.96"/><line class="cls-6" x1="84.96" y1="121.94" x2="83.98" y2="122.12"/><line class="cls-6" x1="84.6" y1="120.22" x2="83.62" y2="120.46"/><line class="cls-6" x1="84.38" y1="119.37" x2="83.41" y2="119.63"/><line class="cls-6" x1="84.14" y1="118.53" x2="83.18" y2="118.81"/><line class="cls-6" x1="83.6" y1="116.86" x2="82.66" y2="117.19"/><line class="cls-6" x1="83.29" y1="116.03" x2="82.36" y2="116.39"/><line class="cls-6" x1="82.97" y1="115.22" x2="82.05" y2="115.6"/><line class="cls-6" x1="82.26" y1="113.61" x2="81.35" y2="114.04"/><line class="cls-6" x1="81.87" y1="112.83" x2="80.98" y2="113.28"/><line class="cls-6" x1="80.11" y1="109.79" x2="79.27" y2="110.33"/><line class="cls-6" x1="79.62" y1="109.06" x2="78.8" y2="109.62"/><line class="cls-6" x1="78.59" y1="107.64" x2="77.8" y2="108.24"/><line class="cls-6" x1="78.05" y1="106.95" x2="77.27" y2="107.58"/><line class="cls-6" x1="77.49" y1="106.27" x2="76.73" y2="106.92"/><line class="cls-6" x1="76.31" y1="104.97" x2="75.59" y2="105.66"/><line class="cls-6" x1="75.7" y1="104.34" x2="74.99" y2="105.05"/><line class="cls-6" x1="75.07" y1="103.73" x2="74.38" y2="104.45"/><line class="cls-6" x1="73.77" y1="102.55" x2="73.12" y2="103.31"/><line class="cls-6" x1="73.09" y1="101.99" x2="72.46" y2="102.77"/><line class="cls-6" x1="72.4" y1="101.45" x2="71.79" y2="102.24"/><line class="cls-6" x1="70.98" y1="100.41" x2="70.42" y2="101.24"/><line class="cls-6" x1="70.25" y1="99.93" x2="69.71" y2="100.77"/><line class="cls-6" x1="67.21" y1="98.17" x2="66.76" y2="99.06"/><line class="cls-6" x1="66.42" y1="97.78" x2="65.99" y2="98.69"/><line class="cls-6" x1="64.82" y1="97.07" x2="64.44" y2="97.99"/><line class="cls-6" x1="64.01" y1="96.74" x2="63.65" y2="97.68"/><line class="cls-6" x1="63.18" y1="96.44" x2="62.85" y2="97.38"/><line class="cls-6" x1="61.51" y1="95.9" x2="61.23" y2="96.86"/><line class="cls-6" x1="60.67" y1="95.66" x2="60.41" y2="96.63"/><line class="cls-6" x1="59.82" y1="95.44" x2="59.58" y2="96.42"/><line class="cls-6" x1="58.1" y1="95.08" x2="57.92" y2="96.06"/><line class="cls-6" x1="57.23" y1="94.93" x2="57.08" y2="95.92"/><line class="cls-6" x1="56.37" y1="94.8" x2="56.23" y2="95.8"/><line class="cls-6" x1="48.48" y1="94.7" x2="48.69" y2="96.69"/><line class="cls-6" x1="45.02" y1="95.25" x2="45.43" y2="97.21"/><line class="cls-6" x1="41.63" y1="96.16" x2="42.24" y2="98.06"/><line class="cls-6" x1="38.35" y1="97.42" x2="39.16" y2="99.24"/><line class="cls-6" x1="32.28" y1="100.92" x2="33.45" y2="102.54"/><line class="cls-6" x1="29.55" y1="103.13" x2="30.89" y2="104.62"/><line class="cls-6" x1="27.07" y1="105.61" x2="28.55" y2="106.95"/><line class="cls-6" x1="24.86" y1="108.34" x2="26.48" y2="109.52"/><line class="cls-6" x1="21.35" y1="114.41" x2="23.18" y2="115.22"/><line class="cls-6" x1="20.1" y1="117.69" x2="22" y2="118.31"/><line class="cls-6" x1="19.19" y1="121.08" x2="21.14" y2="121.49"/><line class="cls-6" x1="18.64" y1="124.54" x2="20.63" y2="124.75"/><line class="cls-6" x1="18.64" y1="131.56" x2="20.63" y2="131.35"/><line class="cls-6" x1="19.19" y1="135.02" x2="21.14" y2="134.61"/><line class="cls-6" x1="20.1" y1="138.41" x2="22" y2="137.79"/><line class="cls-6" x1="21.35" y1="141.69" x2="23.18" y2="140.88"/><line class="cls-6" x1="24.86" y1="147.76" x2="26.48" y2="146.58"/><line class="cls-6" x1="27.07" y1="150.49" x2="28.55" y2="149.15"/><line class="cls-6" x1="29.55" y1="152.97" x2="30.89" y2="151.48"/><line class="cls-6" x1="32.28" y1="155.18" x2="33.45" y2="153.56"/><line class="cls-6" x1="38.35" y1="158.68" x2="39.16" y2="156.86"/><line class="cls-6" x1="41.63" y1="159.94" x2="42.24" y2="158.04"/><line class="cls-6" x1="45.02" y1="160.85" x2="45.43" y2="158.89"/><line class="cls-6" x1="48.48" y1="161.4" x2="48.69" y2="159.41"/><line class="cls-6" x1="55.49" y1="161.4" x2="55.28" y2="159.41"/><line class="cls-6" x1="58.96" y1="160.85" x2="58.54" y2="158.89"/><line class="cls-6" x1="62.35" y1="159.94" x2="61.73" y2="158.04"/><line class="cls-6" x1="65.63" y1="158.68" x2="64.81" y2="156.86"/><line class="cls-6" x1="71.7" y1="155.18" x2="70.52" y2="153.56"/><line class="cls-6" x1="74.43" y1="152.97" x2="73.09" y2="151.48"/><line class="cls-6" x1="76.91" y1="150.49" x2="75.42" y2="149.15"/><line class="cls-6" x1="79.12" y1="147.76" x2="77.5" y2="146.58"/><line class="cls-6" x1="82.62" y1="141.69" x2="80.8" y2="140.88"/><line class="cls-6" x1="83.88" y1="138.41" x2="81.98" y2="137.79"/><line class="cls-6" x1="84.79" y1="135.02" x2="82.83" y2="134.61"/><line class="cls-6" x1="85.34" y1="131.56" x2="83.35" y2="131.35"/><line class="cls-6" x1="85.34" y1="124.54" x2="83.35" y2="124.75"/><line class="cls-6" x1="84.79" y1="121.08" x2="82.83" y2="121.49"/><line class="cls-6" x1="83.88" y1="117.69" x2="81.98" y2="118.31"/><line class="cls-6" x1="82.62" y1="114.41" x2="80.8" y2="115.22"/><line class="cls-6" x1="79.12" y1="108.34" x2="77.5" y2="109.52"/><line class="cls-6" x1="76.91" y1="105.61" x2="75.42" y2="106.95"/><line class="cls-6" x1="74.43" y1="103.13" x2="73.09" y2="104.62"/><line class="cls-6" x1="71.7" y1="100.92" x2="70.52" y2="102.54"/><line class="cls-6" x1="65.63" y1="97.42" x2="64.81" y2="99.24"/><line class="cls-6" x1="62.35" y1="96.16" x2="61.73" y2="98.06"/><line class="cls-6" x1="58.96" y1="95.25" x2="58.54" y2="97.21"/><line class="cls-6" x1="55.49" y1="94.7" x2="55.28" y2="96.69"/><path class="cls-1" d="M104,174.09a51.89,51.89,0,0,1-11.81-8.47m0,0s6.56,18.77,6.77,22.54L104,190V174.06" transform="translate(-76.01 0.05)"/><path class="cls-1" d="M163.86,165.7a51.89,51.89,0,0,1-11.81,8.47m0,0v15.93l5.08-1.81c.21-3.77,6.77-22.53,6.77-22.53" transform="translate(-76.01 0.05)"/><path class="cls-1" d="M92.14,90.5A52.19,52.19,0,0,1,104,82m0,0V66.13l-5.08,1.81c-.21,3.77-6.77,22.54-6.77,22.54" transform="translate(-76.01 0.05)"/><path class="cls-1" d="M152.05,82a51.89,51.89,0,0,1,11.81,8.47m0,0s-6.56-18.76-6.77-22.53L152,66.05V82" transform="translate(-76.01 0.05)"/><path class="cls-6" d="M171.51,156.26l2.47,1.43,2.84-4.94-2.46-1.42,0,0a51.51,51.51,0,0,1-2.82,5" transform="translate(-76.01 0.05)"/><rect class="cls-6" x="173.18" y="154.52" width="7.28" height="3.34" transform="translate(-122.86 231.28) rotate(-60)"/><path class="cls-6" d="M171.51,100,174,98.55l2.84,4.93-2.46,1.43,0,0a50.33,50.33,0,0,0-2.82-5" transform="translate(-76.01 0.05)"/><rect class="cls-6" x="173.18" y="98.38" width="7.28" height="3.34" transform="translate(99.05 -103.06) rotate(60)"/><rect class="cls-1" x="103.88" y="122.25" width="8" height="8" rx="1" ry="1"/><path class="cls-1" d="M180.69,122.6h6.39l.69.42-.69.48h-6.39L180,123Z" transform="translate(-76.01 0.05)"/><path class="cls-1" d="M180.69,123.5h6.39l.69.42-.69.48h-6.39l-.67-.47Z" transform="translate(-76.01 0.05)"/><path class="cls-1" d="M180.69,124.4h6.39l.69.41-.69.49h-6.39l-.67-.47Z" transform="translate(-76.01 0.05)"/><path class="cls-1" d="M180.69,125.3h6.39l.69.41-.69.49h-6.39l-.67-.48Z" transform="translate(-76.01 0.05)"/><path class="cls-1" d="M180.69,126.2h6.39l.69.41-.69.49h-6.39l-.67-.48Z" transform="translate(-76.01 0.05)"/><path class="cls-1" d="M180.69,127.1h6.39l.69.41-.69.48h-6.39l-.67-.47Z" transform="translate(-76.01 0.05)"/><path class="cls-1" d="M180.69,128h6.39l.69.42-.69.48h-6.39l-.67-.47Z" transform="translate(-76.01 0.05)"/><path class="cls-1" d="M180.69,128.89h6.39l.69.42-.69.48h-6.39l-.67-.47Z" transform="translate(-76.01 0.05)"/><line class="cls-1" x1="31.99" y1="244.05" x2="31.99" y2="191.83"/><line class="cls-1" x1="71.99" y1="244.05" x2="71.99" y2="191.83"/><line class="cls-1" x1="31.99" y1="64.05" x2="31.99" y2="11.83"/><line class="cls-1" x1="71.99" y1="64.05" x2="71.99" y2="11.83"/><circle class="cls-1" cx="68.35" cy="128.05" r="7.99"/><circle class="cls-6" cx="52.21" cy="128.36" r="2"/><circle class="cls-6" cx="52.21" cy="128.36" r="4"/><rect class="cls-6" x="51.71" y="110.74" width="1" height="30"/><path class="cls-6" d="M116.27,126.33c-1.09-.18-2.85-.53-3.92-.77L97.86,122.3c-1.07-.24-1.06-.29,0-.1l14.64,2.52c1.08.18,2.84.54,3.92.79l11,2.55c1.07.25,1.06.3,0,.12Z" transform="translate(-76.01 0.05)"/><path class="cls-6" d="M129,127.92c-.95.55-1,.5-.06-.11l9.43-6.25c.91-.61,2.44-1.56,3.39-2.11L154.59,112c.95-.55,1-.51,0,.09l-12.42,8.13c-.93.6-2.46,1.54-3.41,2.09Z" transform="translate(-76.01 0.05)"/><circle class="cls-7" cx="35.51" cy="128.34" r="7.94"/><line class="cls-4" x1="28.23" y1="128.33" x2="30.61" y2="128.33"/><line class="cls-4" x1="29.21" y1="131.97" x2="31.27" y2="130.78"/><line class="cls-4" x1="31.87" y1="134.64" x2="33.06" y2="132.57"/><line class="cls-4" x1="35.51" y1="135.61" x2="35.51" y2="133.23"/><line class="cls-4" x1="39.15" y1="134.64" x2="37.96" y2="132.57"/><line class="cls-4" x1="41.82" y1="131.97" x2="39.76" y2="130.78"/><line class="cls-4" x1="42.79" y1="128.33" x2="40.41" y2="128.33"/><line class="cls-4" x1="41.82" y1="124.69" x2="39.76" y2="125.88"/><line class="cls-4" x1="39.15" y1="122.02" x2="37.96" y2="124.09"/><line class="cls-4" x1="35.51" y1="121.05" x2="35.51" y2="123.43"/><line class="cls-4" x1="31.87" y1="122.02" x2="33.06" y2="124.09"/><line class="cls-4" x1="29.21" y1="124.69" x2="31.27" y2="125.88"/><line class="cls-4" x1="61.23" y1="128.33" x2="63.61" y2="128.33"/><line class="cls-4" x1="62.21" y1="131.97" x2="64.27" y2="130.78"/><line class="cls-4" x1="64.87" y1="134.64" x2="66.06" y2="132.57"/><line class="cls-4" x1="68.51" y1="135.61" x2="68.51" y2="133.23"/><line class="cls-4" x1="72.15" y1="134.64" x2="70.96" y2="132.57"/><line class="cls-4" x1="74.82" y1="131.97" x2="72.76" y2="130.78"/><line class="cls-4" x1="75.79" y1="128.33" x2="73.41" y2="128.33"/><line class="cls-4" x1="74.82" y1="124.69" x2="72.76" y2="125.88"/><line class="cls-4" x1="72.15" y1="122.02" x2="70.96" y2="124.09"/><line class="cls-4" x1="68.51" y1="121.05" x2="68.51" y2="123.43"/><line class="cls-4" x1="64.87" y1="122.02" x2="66.06" y2="124.09"/><line class="cls-4" x1="62.21" y1="124.69" x2="64.27" y2="125.88"/><circle class="cls-1" cx="51.87" cy="146.05" r="7.99"/><line class="cls-4" x1="44.74" y1="146.33" x2="47.13" y2="146.33"/><line class="cls-4" x1="45.72" y1="149.97" x2="47.78" y2="148.78"/><line class="cls-4" x1="48.39" y1="152.64" x2="49.58" y2="150.57"/><line class="cls-4" x1="52.03" y1="153.61" x2="52.03" y2="151.23"/><line class="cls-4" x1="55.67" y1="152.64" x2="54.48" y2="150.57"/><line class="cls-4" x1="58.33" y1="149.97" x2="56.27" y2="148.78"/><line class="cls-4" x1="59.31" y1="146.33" x2="56.93" y2="146.33"/><line class="cls-4" x1="58.33" y1="142.69" x2="56.27" y2="143.88"/><line class="cls-4" x1="55.67" y1="140.02" x2="54.48" y2="142.09"/><line class="cls-4" x1="52.03" y1="139.05" x2="52.03" y2="141.43"/><line class="cls-4" x1="48.39" y1="140.02" x2="49.58" y2="142.09"/><line class="cls-4" x1="45.72" y1="142.69" x2="47.78" y2="143.88"/></svg>