<svg id="Layer_1" data-name="Layer 1" xmlns="http://www.w3.org/2000/svg" viewBox="0 0 149.46 256.1"><defs><style>.cls-1{fill:#fff;}.cls-1,.cls-2,.cls-9{stroke:#666;}.cls-1,.cls-2,.cls-5,.cls-9{stroke-miterlimit:10;}.cls-1,.cls-2{stroke-width:0.1px;}.cls-2,.cls-5,.cls-9{fill:none;}.cls-3,.cls-7{font-size:2px;}.cls-10,.cls-3,.cls-4,.cls-6,.cls-7{font-family:EngraversLT-Roman, Engravers LT;}.cls-4{font-size:4px;}.cls-5{stroke:#000;stroke-width:0.08px;}.cls-6{font-size:2.17px;}.cls-7{letter-spacing:0.14em;}.cls-8{letter-spacing:0.19em;}.cls-9{stroke-width:0.25px;}.cls-10{font-size:9px;}</style></defs><title>lange</title><path class="cls-1" d="M104,187a52.28,52.28,0,0,1-11.81-8.47m0,0s6.55,18.76,6.76,22.54l5.08,1.81V187" transform="translate(-53.22 0.05)"/><path class="cls-1" d="M163.83,178.54A52.51,52.51,0,0,1,152,187m0,0v15.93l5.08-1.81c.21-3.78,6.77-22.54,6.77-22.54" transform="translate(-53.22 0.05)"/><path class="cls-1" d="M92.16,76.91A51.67,51.67,0,0,1,104,68.44m0,0V52.54L98.9,54.35c-.21,3.77-6.76,22.53-6.76,22.53" transform="translate(-53.22 0.05)"/><path class="cls-1" d="M152,68.44a51.89,51.89,0,0,1,11.81,8.47m0,0s-6.56-18.76-6.77-22.53L152,52.54V68.47" transform="translate(-53.22 0.05)"/><path class="cls-2" d="M104,252.25V196H152v56.25m-48,0c0,2.07,10.76,3.75,24,3.75s24-1.68,24-3.75" transform="translate(-53.22 0.05)"/><path class="cls-2" d="M152,4V64H104V4m48.1,0c0-2.21-10.76-4-24-4s-24,1.79-24,4" transform="translate(-53.22 0.05)"/><circle class="cls-1" cx="74.78" cy="128.05" r="64"/><circle class="cls-2" cx="74.78" cy="128.05" r="56"/><circle class="cls-2" cx="74.72" cy="127.99" r="47"/><text class="cls-3" transform="translate(80.7 78.72) rotate(-174.26)">K</text><text class="cls-3" transform="translate(77.91 78.47) rotate(-177.31)">A</text><text class="cls-3" transform="matrix(-1, 0.01, -0.01, -1, 75.48, 78.37)">R</text><text class="cls-3" transform="translate(72.76 78.4) rotate(176.7)">A</text><text class="cls-3" transform="translate(70.42 78.55) rotate(174.06)">C</text><text class="cls-3" transform="translate(68.11 78.8) rotate(171.05)">H</text><text class="cls-3" transform="translate(65.3 79.28) rotate(168.37)">I</text><text class="cls-3" transform="matrix(-0.97, 0.23, -0.23, -0.97, 63.52, 79.66)"> </text><text class="cls-3" transform="translate(62.44 79.92) rotate(165.35)"> </text><text class="cls-3" transform="translate(61.32 80.22) rotate(164.03)"> </text><text class="cls-3" transform="matrix(-0.95, 0.3, -0.3, -0.95, 60.21, 80.55)"> </text><text class="cls-3" transform="translate(59.13 80.89) rotate(161.39)"> </text><text class="cls-3" transform="translate(58.05 81.26) rotate(160.09)"> </text><text class="cls-3" transform="translate(56.97 81.66) rotate(158.76)"> </text><text class="cls-3" transform="translate(55.89 82.08) rotate(156.63)">B</text><text class="cls-3" transform="translate(53.52 83.13) rotate(153.75)">A</text><text class="cls-3" transform="matrix(-0.87, 0.49, -0.49, -0.87, 51.35, 84.21)">N</text><text class="cls-3" transform="matrix(-0.85, 0.53, -0.53, -0.85, 48.97, 85.57)">G</text><text class="cls-3" transform="translate(46.85 86.92) rotate(144.73)">K</text><text class="cls-3" transform="matrix(-0.79, 0.62, -0.62, -0.79, 44.69, 88.47)">O</text><text class="cls-3" transform="translate(42.75 90.01) rotate(138.81)">K</text><text class="cls-3" transform="matrix(-0.73, 0.69, -0.69, -0.73, 40.7, 91.84)"> </text><text class="cls-3" transform="matrix(-0.71, 0.7, -0.7, -0.71, 39.86, 92.65)"> </text><text class="cls-3" transform="translate(39.06 93.46) rotate(133.87)"> </text><text class="cls-3" transform="matrix(-0.68, 0.74, -0.74, -0.68, 38.28, 94.28)"> </text><text class="cls-3" transform="matrix(-0.66, 0.75, -0.75, -0.66, 37.5, 95.14)"> </text><text class="cls-3" transform="translate(36.74 96.01) rotate(129.86)"> </text><text class="cls-3" transform="matrix(-0.62, 0.78, -0.78, -0.62, 36.01, 96.9)"> </text><text class="cls-3" transform="matrix(-0.6, 0.8, -0.8, -0.6, 35.31, 97.8)"> </text><text class="cls-3" transform="matrix(-0.59, 0.81, -0.81, -0.59, 34.63, 98.7)"> </text><text class="cls-3" transform="translate(33.95 99.65) rotate(123.88)">T</text><text class="cls-3" transform="matrix(-0.52, 0.86, -0.86, -0.52, 32.67, 101.58)">O</text><text class="cls-3" transform="translate(31.4 103.71) rotate(118.06)">K</text><text class="cls-3" transform="translate(30.12 106.16) rotate(115.12)">Y</text><text class="cls-3" transform="translate(29.15 108.26) rotate(112.42)">O</text><text class="cls-3" transform="translate(28.23 110.56) rotate(109.97)"> </text><text class="cls-3" transform="translate(27.85 111.6) rotate(109.09)"> </text><text class="cls-3" transform="translate(27.48 112.69) rotate(107.77)"> </text><text class="cls-3" transform="translate(27.14 113.79) rotate(106.46)"> </text><text class="cls-3" transform="translate(26.82 114.89) rotate(105.15)"> </text><text class="cls-3" transform="translate(26.53 115.99) rotate(103.84)"> </text><text class="cls-3" transform="matrix(-0.22, 0.98, -0.98, -0.22, 26.26, 117.11)"> </text><text class="cls-3" transform="translate(26.02 118.23) rotate(101.18)"> </text><text class="cls-3" transform="translate(25.8 119.36) rotate(99.85)"> </text><text class="cls-3" transform="translate(25.62 120.48) rotate(98.53)"> </text><text class="cls-3" transform="translate(25.45 121.63) rotate(97.19)"> </text><text class="cls-3" transform="translate(25.3 122.79) rotate(94.87)">N</text><text class="cls-3" transform="matrix(-0.03, 1, -1, -0.03, 25.09, 125.5)">O</text><text class="cls-3" transform="translate(25.02 127.97) rotate(88.85)">U</text><text class="cls-3" transform="translate(25.1 130.79) rotate(85.48)">M</text><text class="cls-3" transform="translate(25.35 133.74) rotate(82.26)">E</text><text class="cls-3" transform="translate(25.73 136.36) rotate(79.32)">A</text><text class="cls-3" transform="translate(26.2 138.71) rotate(77.27)"> </text><text class="cls-3" transform="translate(26.46 139.82) rotate(75.96)"> </text><text class="cls-3" transform="matrix(0.27, 0.96, -0.96, 0.27, 26.74, 140.94)"> </text><text class="cls-3" transform="matrix(0.29, 0.96, -0.96, 0.29, 27.05, 142.04)"> </text><text class="cls-3" transform="translate(27.39 143.12) rotate(72.01)"> </text><text class="cls-3" transform="translate(27.75 144.22) rotate(70.68)"> </text><text class="cls-3" transform="translate(28.14 145.31) rotate(69.36)"> </text><text class="cls-3" transform="matrix(0.37, 0.93, -0.93, 0.37, 28.55, 146.37)"> </text><text class="cls-3" transform="matrix(0.39, 0.92, -0.92, 0.39, 28.98, 147.42)"> </text><text class="cls-3" transform="matrix(0.43, 0.9, -0.9, 0.43, 29.44, 148.5)">M</text><text class="cls-3" transform="translate(30.75 151.17) rotate(61.63)">I</text><text class="cls-3" transform="translate(31.61 152.75) rotate(59.11)">D</text><text class="cls-3" transform="translate(32.93 154.93) rotate(56.1)">W</text><text class="cls-3" transform="matrix(0.6, 0.8, -0.8, 0.6, 34.39, 157.07)">A</text><text class="cls-3" transform="translate(35.84 158.99) rotate(50.56)">Y</text><text class="cls-3" transform="matrix(0.66, 0.75, -0.75, 0.66, 37.34, 160.78)"> </text><text class="cls-3" transform="matrix(0.68, 0.73, -0.73, 0.68, 38.12, 161.65)"> </text><text class="cls-3" transform="translate(38.89 162.47) rotate(45.89)"> </text><text class="cls-3" transform="translate(39.7 163.3) rotate(44.55)"> </text><text class="cls-3" transform="translate(40.53 164.1) rotate(43.21)"> </text><text class="cls-3" transform="matrix(0.74, 0.67, -0.67, 0.74, 41.36, 164.87)"> </text><text class="cls-3" transform="matrix(0.77, 0.64, -0.64, 0.77, 42.22, 165.65)">A</text><text class="cls-3" transform="matrix(0.8, 0.6, -0.6, 0.8, 44.1, 167.2)">N</text><text class="cls-3" transform="translate(46.3 168.81) rotate(33.9)">C</text><text class="cls-3" transform="translate(48.22 170.09) rotate(30.89)">H</text><text class="cls-3" transform="translate(50.71 171.55) rotate(27.79)">O</text><text class="cls-3" transform="translate(52.9 172.69) rotate(24.8)">R</text><text class="cls-3" transform="translate(55.4 173.82) rotate(21.86)">A</text><text class="cls-3" transform="translate(57.56 174.67) rotate(19.18)">G</text><text class="cls-3" transform="translate(59.94 175.48) rotate(16.23)">E</text><text class="cls-3" transform="matrix(0.97, 0.24, -0.24, 0.97, 62.46, 176.19)"> </text><text class="cls-3" transform="matrix(0.98, 0.22, -0.22, 0.98, 63.56, 176.46)"> </text><text class="cls-3" transform="translate(64.7 176.71) rotate(11.4)"> </text><text class="cls-3" transform="translate(65.81 176.92) rotate(10.1)"> </text><text class="cls-3" transform="translate(66.95 177.12) rotate(8.76)"> </text><text class="cls-3" transform="matrix(0.99, 0.13, -0.13, 0.99, 68.06, 177.28)"> </text><text class="cls-3" transform="translate(69.2 177.43) rotate(6.12)"> </text><text class="cls-3" transform="translate(70.35 177.55) rotate(3.94)">D</text><text class="cls-3" transform="matrix(1, 0.02, -0.02, 1, 72.97, 177.71)">E</text><text class="cls-3" transform="translate(75.62 177.74) rotate(-2.31)">N</text><text class="cls-3" transform="translate(78.44 177.6) rotate(-5.35)">V</text><text class="cls-3" transform="translate(80.84 177.36) rotate(-8.26)">E</text><text class="cls-3" transform="translate(83.46 176.96) rotate(-11.37)">R</text><text class="cls-3" transform="translate(86.12 176.4) rotate(-13.61)"> </text><text class="cls-3" transform="matrix(0.97, -0.26, 0.26, 0.97, 87.23, 176.12)"> </text><text class="cls-3" transform="translate(88.32 175.82) rotate(-16.23)"> </text><text class="cls-3" transform="translate(89.43 175.49) rotate(-17.56)"> </text><text class="cls-3" transform="translate(90.53 175.14) rotate(-18.89)"> </text><text class="cls-3" transform="translate(91.58 174.77) rotate(-20.17)"> </text><text class="cls-3" transform="matrix(0.93, -0.37, 0.37, 0.93, 92.67, 174.36)"> </text><text class="cls-3" transform="translate(93.74 173.93) rotate(-22.82)"> </text><text class="cls-3" transform="translate(94.8 173.49) rotate(-25.08)">N</text><text class="cls-3" transform="matrix(0.88, -0.47, 0.47, 0.88, 97.38, 172.26)">E</text><text class="cls-3" transform="translate(99.68 171) rotate(-31.32)">W</text><text class="cls-3" transform="matrix(0.83, -0.55, 0.55, 0.83, 101.99, 169.56)"> </text><text class="cls-3" transform="matrix(0.81, -0.58, 0.58, 0.81, 102.96, 168.92)">Y</text><text class="cls-3" transform="translate(104.82 167.57) rotate(-38.29)">O</text><text class="cls-3" transform="matrix(0.75, -0.66, 0.66, 0.75, 106.75, 166.03)">R</text><text class="cls-3" transform="matrix(0.71, -0.7, 0.7, 0.71, 108.8, 164.21)">K</text><text class="cls-3" transform="translate(110.75 162.25) rotate(-46.77)"> </text><text class="cls-3" transform="matrix(0.67, -0.74, 0.74, 0.67, 111.53, 161.4)"> </text><text class="cls-3" transform="translate(112.29 160.55) rotate(-49.43)"> </text><text class="cls-3" transform="matrix(0.63, -0.77, 0.77, 0.63, 113.03, 159.68)"> </text><text class="cls-3" transform="matrix(0.61, -0.79, 0.79, 0.61, 113.74, 158.79)"> </text><text class="cls-3" transform="matrix(0.6, -0.8, 0.8, 0.6, 114.44, 157.88)"> </text><text class="cls-3" transform="translate(115.12 156.95) rotate(-54.76)"> </text><text class="cls-3" transform="matrix(0.55, -0.84, 0.84, 0.55, 115.79, 156.01)">B</text><text class="cls-3" transform="translate(117.17 153.85) rotate(-59.15)">.</text><text class="cls-3" transform="matrix(0.48, -0.88, 0.88, 0.48, 117.84, 152.72)">A</text><text class="cls-3" transform="translate(118.98 150.58) rotate(-63.75)">I</text><text class="cls-3" transform="translate(119.78 148.96) rotate(-66.33)">R</text><text class="cls-3" transform="translate(120.87 146.44) rotate(-70.03)">E</text><text class="cls-3" transform="translate(121.76 143.98) rotate(-72.22)">S</text><text class="cls-3" transform="translate(122.46 141.73) rotate(-74.24)"> </text><text class="cls-3" transform="translate(122.77 140.61) rotate(-75.58)"> </text><text class="cls-3" transform="matrix(0.23, -0.97, 0.97, 0.23, 123.05, 139.51)"> </text><text class="cls-3" transform="translate(123.3 138.4) rotate(-78.19)"> </text><text class="cls-3" transform="translate(123.53 137.26) rotate(-79.54)"> </text><text class="cls-3" transform="translate(123.72 136.16) rotate(-80.84)"> </text><text class="cls-3" transform="matrix(0.14, -0.99, 0.99, 0.14, 123.9, 135.01)"> </text><text class="cls-3" transform="matrix(0.11, -0.99, 0.99, 0.11, 124.05, 133.87)"> </text><text class="cls-3" transform="matrix(0.09, -1, 1, 0.09, 124.17, 132.74)"> </text><text class="cls-3" transform="translate(124.27 131.6) rotate(-86.91)">A</text><text class="cls-3" transform="translate(124.39 129.15) rotate(-89.65)">Z</text><text class="cls-3" transform="translate(124.39 126.91) rotate(-92.37)">O</text><text class="cls-3" transform="translate(124.27 124.44) rotate(-95.39)">R</text><text class="cls-3" transform="translate(123.99 121.7) rotate(-98.52)">E</text><text class="cls-3" transform="translate(123.58 119.12) rotate(-101.4)">S</text><text class="cls-3" transform="matrix(-0.23, -0.97, 0.97, -0.23, 123.09, 116.79)"> </text><text class="cls-3" transform="translate(122.83 115.69) rotate(-105.5)">G</text><text class="cls-3" transform="translate(122.14 113.26) rotate(-108.67)">M</text><text class="cls-3" transform="translate(121.16 110.45) rotate(-111.71)">T</text><text class="cls-3" transform="translate(120.3 108.34) rotate(-113.67)"> </text><text class="cls-3" transform="translate(119.83 107.29) rotate(-114.99)"> </text><text class="cls-3" transform="translate(119.34 106.24) rotate(-117.13)">B</text><text class="cls-3" transform="translate(118.15 103.94) rotate(-120.12)">E</text><text class="cls-3" transform="translate(116.81 101.67) rotate(-123.21)">R</text><text class="cls-3" transform="translate(115.29 99.39) rotate(-126.22)">L</text><text class="cls-3" transform="translate(113.82 97.42) rotate(-128.68)">I</text><text class="cls-3" transform="translate(112.69 96.01) rotate(-131.35)">N</text><text class="cls-3" transform="translate(110.82 93.93) rotate(-133.63)"> </text><text class="cls-3" transform="translate(110.01 93.09) rotate(-134.99)"> </text><text class="cls-3" transform="translate(109.2 92.29) rotate(-136.3)"> </text><text class="cls-3" transform="translate(108.37 91.51) rotate(-137.62)"> </text><text class="cls-3" transform="matrix(-0.75, -0.66, 0.66, -0.75, 107.51, 90.74)"> </text><text class="cls-3" transform="matrix(-0.77, -0.64, 0.64, -0.77, 106.63, 89.98)"> </text><text class="cls-3" transform="translate(105.75 89.26) rotate(-141.64)"> </text><text class="cls-3" transform="matrix(-0.8, -0.6, 0.6, -0.8, 104.84, 88.55)"> </text><text class="cls-3" transform="translate(103.92 87.87) rotate(-144.31)"> </text><text class="cls-3" transform="translate(102.99 87.19) rotate(-146.55)">R</text><text class="cls-3" transform="translate(100.69 85.71) rotate(-149.2)">I</text><text class="cls-3" transform="translate(99.15 84.8) rotate(-151.58)">Y</text><text class="cls-3" transform="translate(97.09 83.7) rotate(-154.29)">A</text><text class="cls-3" transform="matrix(-0.92, -0.39, 0.39, -0.92, 94.91, 82.66)">D</text><text class="cls-3" transform="translate(92.49 81.66) rotate(-160.28)">H</text><text class="cls-3" transform="translate(89.77 80.72) rotate(-162.59)"> </text><text class="cls-4" transform="translate(89.14 78.78) rotate(-164.17)"> </text><text class="cls-4" transform="translate(50.86 95.87) rotate(-34.16)">A</text><text class="cls-4" transform="translate(53.99 93.81) rotate(-30.36)">.</text><text class="cls-4" transform="translate(55.18 93.07) rotate(-26.67)">L</text><text class="cls-4" transform="translate(58.75 91.3) rotate(-21.07)">A</text><text class="cls-4" transform="translate(62.13 89.99) rotate(-15.4)">N</text><text class="cls-4" transform="matrix(0.99, -0.17, 0.17, 0.99, 66.18, 88.88)">G</text><text class="cls-4" transform="matrix(1, -0.07, 0.07, 1, 69.9, 88.23)">E</text><text class="cls-4" transform="matrix(1, -0.01, 0.01, 1, 73.92, 87.98)"> </text><text class="cls-4" transform="translate(75.06 87.92) rotate(3.48)">&amp;</text><text class="cls-4" transform="matrix(0.99, 0.13, -0.13, 0.99, 79.49, 88.25)"> </text><text class="cls-4" transform="translate(80.62 88.37) rotate(10.86)">S</text><text class="cls-4" transform="translate(84.11 89.04) rotate(16.09)">Ö</text><text class="cls-4" transform="translate(87.66 90.05) rotate(21.91)">H</text><text class="cls-4" transform="translate(91.85 91.75) rotate(28.28)">N</text><text class="cls-4" transform="matrix(0.83, 0.56, -0.56, 0.83, 95.72, 93.85)">E</text><circle class="cls-5" cx="92.16" cy="151.66" r="14.39"/><text class="cls-6" transform="translate(91.36 76.85) rotate(-163.08)">D</text><text class="cls-6" transform="translate(88.63 76.04) rotate(-166.24)">U</text><text class="cls-6" transform="matrix(-0.98, -0.18, 0.18, -0.98, 85.68, 75.34)">B</text><text class="cls-6" transform="translate(82.91 74.84) rotate(-172.29)">A</text><text class="cls-6" transform="translate(80.32 74.52) rotate(-174.73)">I</text><text class="cls-6" transform="translate(78.39 74.35) rotate(-176.43)"> </text><text class="cls-6" transform="translate(77.13 74.28) rotate(-177.77)"> </text><text class="cls-6" transform="translate(75.9 74.24) rotate(-179.09)"> </text><text class="cls-6" transform="translate(74.66 74.23) rotate(179.59)"> </text><text class="cls-6" transform="translate(73.4 74.25) rotate(178.25)"> </text><text class="cls-6" transform="matrix(-1, 0.05, -0.05, -1, 72.17, 74.29)"> </text><text class="cls-6" transform="matrix(-1, 0.08, -0.08, -1, 70.94, 74.37)"> </text><text class="cls-6" transform="translate(69.69 74.47) rotate(174.3)"> </text><text class="cls-6" transform="matrix(-0.99, 0.12, -0.12, -0.99, 68.47, 74.6)"> </text><text class="cls-6" transform="translate(67.25 74.76) rotate(171.69)"> </text><text class="cls-6" transform="translate(66 74.94) rotate(169.64)">A</text><text class="cls-6" transform="matrix(-0.97, 0.23, -0.23, -0.97, 63.41, 75.43)">L</text><text class="cls-6" transform="translate(60.77 76.07) rotate(163.66)">M</text><text class="cls-6" transform="translate(57.71 76.99) rotate(160.58)">A</text><text class="cls-6" transform="translate(55.25 77.88) rotate(157.89)">T</text><text class="cls-6" transform="translate(52.85 78.87) rotate(155.09)">Y</text><text class="cls-6" transform="translate(50.55 79.97) rotate(153.06)"> </text><text class="cls-6" transform="translate(49.47 80.53) rotate(151.76)"> </text><text class="cls-6" transform="translate(48.36 81.13) rotate(150.42)"> </text><text class="cls-6" transform="matrix(-0.86, 0.51, -0.51, -0.86, 47.31, 81.74)"> </text><text class="cls-6" transform="translate(46.23 82.4) rotate(147.76)"> </text><text class="cls-6" transform="matrix(-0.83, 0.55, -0.55, -0.83, 45.19, 83.06)"> </text><text class="cls-6" transform="translate(44.11 83.77) rotate(144.09)">H</text><text class="cls-6" transform="matrix(-0.78, 0.63, -0.63, -0.78, 41.62, 85.6)">O</text><text class="cls-6" transform="translate(39.53 87.32) rotate(137.89)">N</text><text class="cls-6" transform="translate(37.36 89.31) rotate(134.93)">G</text><text class="cls-6" transform="translate(35.47 91.24) rotate(132.8)"> </text><text class="cls-6" transform="matrix(-0.65, 0.76, -0.76, -0.65, 34.63, 92.15)">K</text><text class="cls-6" transform="translate(32.76 94.36) rotate(127.63)">O</text><text class="cls-6" transform="translate(31.12 96.51) rotate(124.58)">N</text><text class="cls-6" transform="translate(29.44 98.96) rotate(121.07)">G</text><text class="cls-6" transform="matrix(-0.49, 0.87, -0.87, -0.49, 28.09, 101.23)"> </text><text class="cls-6" transform="matrix(-0.47, 0.88, -0.88, -0.47, 27.48, 102.31)"> </text><text class="cls-6" transform="translate(26.9 103.41) rotate(117.01)"> </text><text class="cls-6" transform="translate(26.34 104.52) rotate(115.7)"> </text><text class="cls-6" transform="translate(25.8 105.67) rotate(114.35)"> </text><text class="cls-6" transform="translate(25.3 106.79) rotate(113.04)"> </text><text class="cls-6" transform="translate(24.81 107.93) rotate(111.02)">S</text><text class="cls-6" transform="matrix(-0.31, 0.95, -0.95, -0.31, 23.9, 110.36)">Y</text><text class="cls-6" transform="translate(23.11 112.8) rotate(105.34)">D</text><text class="cls-6" transform="translate(22.38 115.55) rotate(102.17)">N</text><text class="cls-6" transform="translate(21.75 118.57) rotate(98.98)">E</text><text class="cls-6" transform="matrix(-0.11, 0.99, -0.99, -0.11, 21.33, 121.37)">Y</text><text class="cls-6" transform="translate(21.08 123.92) rotate(94.05)"> </text><text class="cls-6" transform="matrix(-0.05, 1, -1, -0.05, 21, 125.14)"> </text><text class="cls-6" transform="translate(20.95 126.39) rotate(91.4)"> </text><text class="cls-6" transform="translate(20.93 127.61) rotate(90.11)"> </text><text class="cls-6" transform="translate(20.93 128.87) rotate(88.77)"> </text><text class="cls-6" transform="translate(20.97 130.12) rotate(87.44)"> </text><text class="cls-6" transform="translate(21.03 131.33) rotate(86.15)"> </text><text class="cls-6" transform="matrix(0.09, 1, -1, 0.09, 21.12, 132.58)"> </text><text class="cls-6" transform="matrix(0.13, 0.99, -0.99, 0.13, 21.24, 133.84)">A</text><text class="cls-6" transform="translate(21.56 136.28) rotate(79.94)">U</text><text class="cls-6" transform="translate(22.12 139.28) rotate(77)">C</text><text class="cls-6" transform="translate(22.69 141.7) rotate(74.09)">K</text><text class="cls-6" transform="matrix(0.32, 0.95, -0.95, 0.32, 23.54, 144.6)">L</text><text class="cls-6" transform="matrix(0.37, 0.93, -0.93, 0.37, 24.47, 147.26)">A</text><text class="cls-6" transform="translate(25.48 149.72) rotate(65.05)">N</text><text class="cls-6" transform="translate(26.79 152.47) rotate(61.92)">D</text><text class="cls-6" transform="translate(28.15 154.96) rotate(59.73)"> </text><text class="cls-6" transform="matrix(0.52, 0.85, -0.85, 0.52, 28.77, 156.01)"> </text><text class="cls-6" transform="matrix(0.54, 0.84, -0.84, 0.54, 29.44, 157.08)"> </text><text class="cls-6" transform="translate(30.11 158.11) rotate(55.76)"> </text><text class="cls-6" transform="matrix(0.6, 0.8, -0.8, 0.6, 30.81, 159.15)">H</text><text class="cls-6" transform="matrix(0.64, 0.77, -0.77, 0.64, 32.71, 161.65)">O</text><text class="cls-6" transform="translate(34.42 163.69) rotate(47.23)">N</text><text class="cls-6" transform="matrix(0.72, 0.7, -0.7, 0.72, 36.46, 165.87)">O</text><text class="cls-6" transform="matrix(0.75, 0.66, -0.66, 0.75, 38.4, 167.73)">L</text><text class="cls-6" transform="translate(40.34 169.42) rotate(38.43)">U</text><text class="cls-6" transform="translate(42.73 171.29) rotate(35.4)">L</text><text class="cls-6" transform="translate(44.85 172.77) rotate(32.93)">U</text><text class="cls-6" transform="matrix(0.86, 0.5, -0.5, 0.86, 47.4, 174.37)"> </text><text class="cls-6" transform="translate(48.48 174.99) rotate(28.96)"> </text><text class="cls-6" transform="translate(49.58 175.58) rotate(27.64)"> </text><text class="cls-6" transform="translate(50.68 176.15) rotate(26.33)"> </text><text class="cls-6" transform="translate(51.79 176.69) rotate(25.02)"> </text><text class="cls-6" transform="translate(52.92 177.21) rotate(23.69)"> </text><text class="cls-6" transform="matrix(0.93, 0.37, -0.37, 0.93, 54.07, 177.72)">L</text><text class="cls-6" transform="translate(56.58 178.68) rotate(19.4)">.</text><text class="cls-6" transform="translate(57.89 179.14) rotate(17.25)">A</text><text class="cls-6" transform="translate(60.42 179.91) rotate(14.18)">N</text><text class="cls-6" transform="translate(63.28 180.61) rotate(11.22)">G</text><text class="cls-6" transform="translate(65.95 181.13) rotate(8.23)">E</text><text class="cls-6" transform="translate(68.78 181.51) rotate(5.26)">L</text><text class="cls-6" transform="matrix(1, 0.04, -0.04, 1, 71.45, 181.74)">E</text><text class="cls-6" transform="translate(74.3 181.84) rotate(-0.58)">S</text><text class="cls-6" transform="translate(76.86 181.79) rotate(-2.61)"> </text><text class="cls-6" transform="matrix(1, -0.07, 0.07, 1, 78.11, 181.72)"> </text><text class="cls-6" transform="translate(79.32 181.63) rotate(-5.23)"> </text><text class="cls-6" transform="translate(80.56 181.51) rotate(-6.55)"> </text><text class="cls-6" transform="translate(81.8 181.36) rotate(-7.88)"> </text><text class="cls-6" transform="matrix(0.99, -0.16, 0.16, 0.99, 83.02, 181.18)"> </text><text class="cls-6" transform="translate(84.24 180.98) rotate(-10.49)"> </text><text class="cls-6" transform="matrix(0.97, -0.22, 0.22, 0.97, 85.51, 180.75)">M</text><text class="cls-6" transform="matrix(0.96, -0.28, 0.28, 0.96, 88.63, 180.01)">E</text><text class="cls-6" transform="translate(91.36 179.2) rotate(-19.11)">X</text><text class="cls-6" transform="translate(94.07 178.23) rotate(-21.69)">I</text><text class="cls-6" transform="translate(95.89 177.49) rotate(-24.05)">C</text><text class="cls-6" transform="translate(98.17 176.46) rotate(-26.81)">O</text><text class="cls-6" transform="translate(100.55 175.23) rotate(-28.93)"> </text><text class="cls-6" transform="matrix(0.86, -0.5, 0.5, 0.86, 101.62, 174.63)"> </text><text class="cls-6" transform="matrix(0.85, -0.52, 0.52, 0.85, 102.7, 173.99)"> </text><text class="cls-6" transform="translate(103.74 173.34) rotate(-32.89)"> </text><text class="cls-6" transform="translate(104.79 172.66) rotate(-34.22)"> </text><text class="cls-6" transform="matrix(0.81, -0.58, 0.58, 0.81, 105.81, 171.95)"> </text><text class="cls-6" transform="matrix(0.8, -0.6, 0.6, 0.8, 106.81, 171.22)"> </text><text class="cls-6" transform="translate(107.79 170.48) rotate(-38.2)"> </text><text class="cls-6" transform="translate(108.79 169.69) rotate(-40.26)">S</text><text class="cls-6" transform="translate(110.73 168.02) rotate(-43.04)">A</text><text class="cls-6" transform="matrix(0.69, -0.72, 0.72, 0.69, 112.67, 166.19)">N</text><text class="cls-6" transform="translate(114.76 163.97) rotate(-49.09)">T</text><text class="cls-6" transform="matrix(0.62, -0.78, 0.78, 0.62, 116.38, 162.08)">I</text><text class="cls-6" transform="translate(117.59 160.55) rotate(-53.88)">A</text><text class="cls-6" transform="translate(119.09 158.47) rotate(-56.62)">G</text><text class="cls-6" transform="matrix(0.51, -0.86, 0.86, 0.51, 120.56, 156.2)">O</text><text class="cls-6" transform="translate(121.89 153.9) rotate(-61.49)"> </text><text class="cls-6" transform="translate(122.48 152.8) rotate(-62.81)"> </text><text class="cls-6" transform="matrix(0.44, -0.9, 0.9, 0.44, 123.03, 151.7)"> </text><text class="cls-6" transform="translate(123.57 150.59) rotate(-65.43)"> </text><text class="cls-6" transform="translate(124.09 149.43) rotate(-66.78)"> </text><text class="cls-6" transform="matrix(0.36, -0.93, 0.93, 0.36, 124.57, 148.29)">S</text><text class="cls-6" transform="translate(125.47 145.9) rotate(-70.91)">.</text><text class="cls-6" transform="matrix(0.29, -0.96, 0.96, 0.29, 125.94, 144.56)">G</text><text class="cls-6" transform="translate(126.71 141.95) rotate(-76.12)">E</text><text class="cls-6" transform="translate(127.37 139.18) rotate(-79.08)">O</text><text class="cls-6" transform="translate(127.86 136.54) rotate(-82.11)">R</text><text class="cls-6" transform="translate(128.24 133.73) rotate(-85.02)">G</text><text class="cls-6" transform="matrix(0.04, -1, 1, 0.04, 128.45, 131.03)">I</text><text class="cls-6" transform="translate(128.52 129.09) rotate(-89.94)">A</text><text class="cls-6" transform="translate(128.5 126.47) rotate(-92)"> </text><text class="cls-6" transform="translate(128.45 125.21) rotate(-93.34)"> </text><text class="cls-6" transform="translate(128.37 123.98) rotate(-94.65)"> </text><text class="cls-6" transform="translate(128.26 122.76) rotate(-95.95)"> </text><text class="cls-6" transform="matrix(-0.13, -0.99, 0.99, -0.13, 128.12, 121.51)"> </text><text class="cls-6" transform="translate(127.96 120.27) rotate(-98.61)"> </text><text class="cls-6" transform="matrix(-0.17, -0.99, 0.99, -0.17, 127.77, 119.08)"> </text><text class="cls-6" transform="translate(127.55 117.82) rotate(-101.98)">L</text><text class="cls-6" transform="matrix(-0.26, -0.97, 0.97, -0.26, 126.96, 115.14)">O</text><text class="cls-6" transform="matrix(-0.31, -0.95, 0.95, -0.31, 126.26, 112.56)">N</text><text class="cls-6" transform="translate(125.3 109.66) rotate(-111.04)">D</text><text class="cls-6" transform="translate(124.25 107.01) rotate(-113.98)">O</text><text class="cls-6" transform="translate(123.15 104.56) rotate(-117.05)">N</text><text class="cls-6" transform="matrix(-0.49, -0.87, 0.87, -0.49, 121.73, 101.86)"> </text><text class="cls-6" transform="matrix(-0.51, -0.86, 0.86, -0.51, 121.12, 100.79)"> </text><text class="cls-6" transform="matrix(-0.53, -0.85, 0.85, -0.53, 120.48, 99.72)"> </text><text class="cls-6" transform="matrix(-0.55, -0.84, 0.84, -0.55, 119.81, 98.67)"> </text><text class="cls-6" transform="matrix(-0.57, -0.82, 0.82, -0.57, 119.13, 97.65)"> </text><text class="cls-6" transform="matrix(-0.59, -0.81, 0.81, -0.59, 118.41, 96.63)"> </text><text class="cls-6" transform="translate(117.67 95.62) rotate(-127.32)"> </text><text class="cls-6" transform="matrix(-0.62, -0.78, 0.78, -0.62, 116.92, 94.64)"> </text><text class="cls-6" transform="matrix(-0.64, -0.77, 0.77, -0.64, 116.14, 93.68)"> </text><text class="cls-6" transform="matrix(-0.67, -0.74, 0.74, -0.67, 115.32, 92.71)">B</text><text class="cls-6" transform="translate(113.43 90.64) rotate(-135.19)">E</text><text class="cls-6" transform="translate(111.41 88.67) rotate(-137.74)">I</text><text class="cls-6" transform="translate(109.94 87.34) rotate(-140.38)">R</text><text class="cls-6" transform="matrix(-0.8, -0.6, 0.6, -0.8, 107.78, 85.57)">U</text><text class="cls-6" transform="translate(105.31 83.77) rotate(-146.33)">T</text><text class="cls-7" transform="translate(61.56 94.89)">G<tspan class="cls-8" x="2.09" y="0">L</tspan><tspan x="4.27" y="0">ASHUTTE</tspan></text><rect class="cls-5" x="81.78" y="99.43" width="19.48" height="11.12"/><rect class="cls-5" x="82.49" y="100.75" width="8.56" height="8.56"/><rect class="cls-5" x="91.95" y="100.71" width="8.56" height="8.56"/><circle class="cls-9" cx="56.28" cy="127.63" r="25.42"/><line class="cls-9" x1="32.98" y1="127.63" x2="40.6" y2="127.63"/><line class="cls-9" x1="36.1" y1="139.28" x2="42.7" y2="135.47"/><line class="cls-9" x1="44.63" y1="147.81" x2="48.44" y2="141.21"/><line class="cls-9" x1="56.28" y1="150.94" x2="56.28" y2="143.31"/><line class="cls-9" x1="67.93" y1="147.81" x2="64.12" y2="141.21"/><line class="cls-9" x1="76.46" y1="139.28" x2="69.86" y2="135.47"/><line class="cls-9" x1="79.58" y1="127.63" x2="71.96" y2="127.63"/><line class="cls-9" x1="76.46" y1="115.98" x2="69.86" y2="119.79"/><line class="cls-9" x1="67.93" y1="107.45" x2="64.12" y2="114.06"/><line class="cls-9" x1="56.28" y1="104.33" x2="56.28" y2="111.96"/><line class="cls-9" x1="44.63" y1="107.45" x2="48.44" y2="114.06"/><line class="cls-9" x1="36.1" y1="115.98" x2="42.7" y2="119.79"/><circle class="cls-5" cx="56.14" cy="126.94" r="0.86"/><circle class="cls-5" cx="56.14" cy="126.94" r="1.73"/><rect class="cls-5" x="55.93" y="119.33" width="0.43" height="12.96"/><path class="cls-5" d="M105.32,126.22c-1.08-.18-2.85-.52-3.92-.76l-4-.91c-1.08-.25-1.07-.29,0-.1l4.08.7c1.08.19,2.85.54,3.92.79l2.55.59c1.07.25,1.06.3,0,.12Z" transform="translate(-53.22 0.05)"/><path class="cls-5" d="M110.69,126.16c-1,.55-1,.5-.07-.11l2.18-1.44c.92-.61,2.44-1.56,3.39-2.12l3.58-2.08c1-.56,1-.52.06.08l-3.47,2.27c-.92.6-2.45,1.54-3.41,2.09Z" transform="translate(-53.22 0.05)"/><text class="cls-10" transform="translate(83.88 108.14)">2</text><text class="cls-10" transform="translate(92.88 108.14)">5</text><circle class="cls-9" cx="92.24" cy="151.59" r="14.46"/><line class="cls-9" x1="78.98" y1="151.59" x2="83.32" y2="151.59"/><line class="cls-9" x1="80.76" y1="158.22" x2="84.51" y2="156.05"/><line class="cls-9" x1="85.61" y1="163.07" x2="87.78" y2="159.31"/><line class="cls-9" x1="92.24" y1="164.85" x2="92.24" y2="160.51"/><line class="cls-9" x1="98.87" y1="163.07" x2="96.7" y2="159.31"/><line class="cls-9" x1="103.72" y1="158.22" x2="99.97" y2="156.05"/><line class="cls-9" x1="105.5" y1="151.59" x2="101.16" y2="151.59"/><line class="cls-9" x1="103.72" y1="144.96" x2="99.97" y2="147.13"/><line class="cls-9" x1="98.87" y1="140.1" x2="96.7" y2="143.86"/><line class="cls-9" x1="92.24" y1="138.33" x2="92.24" y2="142.67"/><line class="cls-9" x1="85.61" y1="140.1" x2="87.78" y2="143.86"/><line class="cls-9" x1="80.76" y1="144.96" x2="84.51" y2="147.13"/></svg>