<svg id="Layer_1" data-name="Layer 1" xmlns="http://www.w3.org/2000/svg" viewBox="0 0 112.1 256.1"><defs><style>.cls-1,.cls-3,.cls-4{fill:none;stroke-miterlimit:10;}.cls-1,.cls-4{stroke:#666;}.cls-1{stroke-width:0.1px;}.cls-2{font-size:1.5px;}.cls-2,.cls-5,.cls-6{font-family:ArialMT, Arial;}.cls-3{stroke:#000;}.cls-3,.cls-4{stroke-width:0.08px;}.cls-5{font-size:5px;}.cls-6{font-size:3px;}.cls-7{letter-spacing:-0.07em;}.cls-8{letter-spacing:-0.06em;}</style></defs><title>patek</title><rect class="cls-1" x="28.05" y="180.05" width="48" height="76"/><rect class="cls-1" x="28.05" y="0.05" width="48" height="76"/><circle class="cls-1" cx="52.05" cy="128.05" r="52"/><circle class="cls-1" cx="52.05" cy="128.05" r="48"/><circle class="cls-1" cx="52.05" cy="128.05" r="46"/><text class="cls-2" transform="matrix(0.98, 0.21, -0.21, 0.98, 42.47, 170.98)">S</text><text class="cls-2" transform="matrix(0.98, 0.18, -0.18, 0.98, 43.45, 171.19)">W</text><text class="cls-2" transform="matrix(0.99, 0.16, -0.16, 0.99, 44.87, 171.44)">I</text><text class="cls-2" transform="matrix(0.99, 0.14, -0.14, 0.99, 45.28, 171.51)">S</text><text class="cls-2" transform="matrix(0.99, 0.12, -0.12, 0.99, 46.29, 171.65)">S</text><text class="cls-2" transform="matrix(0.99, 0.1, -0.1, 0.99, 47.29, 171.77)"> </text><text class="cls-2" transform="matrix(1, 0.09, -0.09, 1, 47.7, 171.81)"> </text><text class="cls-2" transform="matrix(1, 0.08, -0.08, 1, 48.14, 171.85)"> </text><text class="cls-2" transform="matrix(1, 0.07, -0.07, 1, 48.55, 171.89)"> </text><text class="cls-2" transform="matrix(1, 0.06, -0.06, 1, 48.96, 171.92)"> </text><text class="cls-2" transform="matrix(1, 0.05, -0.05, 1, 49.4, 171.95)"> </text><text class="cls-2" transform="matrix(1, 0.04, -0.04, 1, 49.81, 171.97)"> </text><text class="cls-2" transform="matrix(1, 0.04, -0.04, 1, 50.22, 171.99)"> </text><text class="cls-2" transform="matrix(1, 0.03, -0.03, 1, 50.67, 172)"> </text><text class="cls-2" transform="matrix(1, 0.02, -0.02, 1, 51.08, 172.01)"> </text><text class="cls-2" transform="matrix(1, 0.01, -0.01, 1, 51.5, 172.02)"> </text><text class="cls-2" transform="matrix(1, 0, 0, 1, 51.91, 172.02)"> </text><text class="cls-2" transform="matrix(1, -0.01, 0.01, 1, 52.34, 172.02)"> </text><text class="cls-2" transform="matrix(1, -0.02, 0.02, 1, 52.78, 172.02)"> </text><text class="cls-2" transform="matrix(1, -0.03, 0.03, 1, 53.19, 172.01)"> </text><text class="cls-2" transform="matrix(1, -0.04, 0.04, 1, 53.61, 171.99)"> </text><text class="cls-2" transform="matrix(1, -0.05, 0.05, 1, 54.03, 171.98)"> </text><text class="cls-2" transform="matrix(1, -0.06, 0.06, 1, 54.45, 171.95)"> </text><text class="cls-2" transform="matrix(1, -0.07, 0.07, 1, 54.87, 171.93)"> </text><text class="cls-2" transform="matrix(1, -0.08, 0.08, 1, 55.29, 171.9)"> </text><text class="cls-2" transform="matrix(1, -0.09, 0.09, 1, 55.71, 171.87)"> </text><text class="cls-2" transform="matrix(1, -0.1, 0.1, 1, 56.13, 171.83)"> </text><text class="cls-2" transform="matrix(0.99, -0.11, 0.11, 0.99, 56.55, 171.79)"> </text><text class="cls-2" transform="matrix(0.99, -0.13, 0.13, 0.99, 56.98, 171.74)">M</text><text class="cls-2" transform="matrix(0.99, -0.16, 0.16, 0.99, 58.23, 171.59)">A</text><text class="cls-2" transform="matrix(0.98, -0.18, 0.18, 0.98, 59.24, 171.43)">D</text><text class="cls-2" transform="matrix(0.98, -0.2, 0.2, 0.98, 60.33, 171.23)">E</text><polygon class="cls-3" points="53 96.04 51.17 96.04 50.44 84.04 53.72 84.04 53 96.04"/><polygon class="cls-3" points="36.91 99.83 35.33 100.74 28.69 90.71 31.54 89.07 36.91 99.83"/><polygon class="cls-3" points="24.82 111.18 23.91 112.76 13.15 107.39 14.79 104.55 24.82 111.18"/><polygon class="cls-3" points="20.04 127.05 20.04 128.88 8.04 129.61 8.04 126.33 20.04 127.05"/><polygon class="cls-3" points="23.83 143.19 24.74 144.78 14.71 151.41 13.07 148.56 23.83 143.19"/><polygon class="cls-3" points="35.18 155.28 36.76 156.19 31.39 166.95 28.55 165.31 35.18 155.28"/><polygon class="cls-3" points="51.21 160.22 53.03 160.22 53.77 172.22 50.48 172.22 51.21 160.22"/><polygon class="cls-3" points="67.19 156.27 68.78 155.36 75.41 165.39 72.56 167.03 67.19 156.27"/><polygon class="cls-3" points="79.28 144.92 80.19 143.34 90.95 148.71 89.31 151.55 79.28 144.92"/><polygon class="cls-3" points="92.93 129.05 92.93 127.22 96.06 126.49 96.06 129.77 92.93 129.05"/><polygon class="cls-3" points="80.27 112.91 79.36 111.33 89.39 104.69 91.03 107.53 80.27 112.91"/><polygon class="cls-3" points="68.92 100.82 67.34 99.91 72.7 89.15 75.55 90.8 68.92 100.82"/><g id="Seconds"><circle class="cls-3" cx="47.5" cy="84.78" r="0.5"/><circle class="cls-3" cx="43" cy="85.49" r="0.5"/><circle class="cls-3" cx="38.6" cy="86.67" r="0.5"/><circle class="cls-3" cx="34.35" cy="88.3" r="0.5"/><circle class="cls-3" cx="26.47" cy="92.85" r="0.5"/><circle class="cls-3" cx="22.93" cy="95.71" r="0.5"/><circle class="cls-3" cx="19.71" cy="98.93" r="0.5"/><circle class="cls-3" cx="16.85" cy="102.47" r="0.5"/><circle class="cls-3" cx="12.3" cy="110.35" r="0.5"/><circle class="cls-3" cx="10.67" cy="114.6" r="0.5"/><circle class="cls-3" cx="9.49" cy="119" r="0.5"/><circle class="cls-3" cx="8.78" cy="123.5" r="0.5"/><circle class="cls-3" cx="8.78" cy="132.6" r="0.5"/><circle class="cls-3" cx="9.49" cy="137.1" r="0.5"/><circle class="cls-3" cx="10.67" cy="141.5" r="0.5"/><circle class="cls-3" cx="12.3" cy="145.75" r="0.5"/><circle class="cls-3" cx="16.85" cy="153.63" r="0.5"/><circle class="cls-3" cx="19.71" cy="157.17" r="0.5"/><circle class="cls-3" cx="22.93" cy="160.39" r="0.5"/><circle class="cls-3" cx="26.47" cy="163.25" r="0.5"/><circle class="cls-3" cx="34.35" cy="167.8" r="0.5"/><circle class="cls-3" cx="38.6" cy="169.43" r="0.5"/><circle class="cls-3" cx="65.5" cy="169.43" r="0.5"/><circle class="cls-3" cx="69.75" cy="167.8" r="0.5"/><circle class="cls-3" cx="77.63" cy="163.25" r="0.5"/><circle class="cls-3" cx="81.17" cy="160.39" r="0.5"/><circle class="cls-3" cx="84.39" cy="157.17" r="0.5"/><circle class="cls-3" cx="87.25" cy="153.63" r="0.5"/><circle class="cls-3" cx="91.8" cy="145.75" r="0.5"/><circle class="cls-3" cx="93.43" cy="141.5" r="0.5"/><circle class="cls-3" cx="94.61" cy="137.1" r="0.5"/><circle class="cls-3" cx="95.32" cy="132.6" r="0.5"/><circle class="cls-3" cx="95.32" cy="123.5" r="0.5"/><circle class="cls-3" cx="94.61" cy="119" r="0.5"/><circle class="cls-3" cx="93.43" cy="114.6" r="0.5"/><circle class="cls-3" cx="91.8" cy="110.35" r="0.5"/><circle class="cls-3" cx="87.25" cy="102.47" r="0.5"/><circle class="cls-3" cx="84.39" cy="98.93" r="0.5"/><circle class="cls-3" cx="81.17" cy="95.71" r="0.5"/><circle class="cls-3" cx="77.63" cy="92.85" r="0.5"/><circle class="cls-3" cx="69.75" cy="88.3" r="0.5"/><circle class="cls-3" cx="65.5" cy="86.67" r="0.5"/><circle class="cls-3" cx="61.1" cy="85.49" r="0.5"/><circle class="cls-3" cx="56.6" cy="84.78" r="0.5"/></g><circle class="cls-3" cx="52.12" cy="128.13" r="2.02"/><path class="cls-1" d="M104,174.05a52.19,52.19,0,0,1-11.81-8.47m0,0s6.56,18.77,6.77,22.54L104,190V174" transform="translate(-75.95 0.05)"/><path class="cls-1" d="M163.86,165.66a51.89,51.89,0,0,1-11.81,8.47m0,0V190l5.08-1.81c.21-3.77,6.77-22.54,6.77-22.54" transform="translate(-75.95 0.05)"/><path class="cls-1" d="M92.14,90.26A51.89,51.89,0,0,1,104,81.79m0,0V65.89L98.89,67.7c-.21,3.77-6.77,22.53-6.77,22.53" transform="translate(-75.95 0.05)"/><path class="cls-1" d="M152.05,81.71a51.89,51.89,0,0,1,11.81,8.47m0,0s-6.56-18.76-6.77-22.53L152,65.81V81.74" transform="translate(-75.95 0.05)"/><rect class="cls-1" x="104.05" y="124.13" width="8" height="8" rx="1" ry="1"/><path class="cls-1" d="M180.8,124.49h6.39l.69.41-.69.48H180.8l-.67-.47Z" transform="translate(-75.95 0.05)"/><path class="cls-1" d="M180.8,125.38h6.39l.69.42-.69.48H180.8l-.67-.47Z" transform="translate(-75.95 0.05)"/><path class="cls-1" d="M180.8,126.28h6.39l.69.42-.69.48H180.8l-.67-.47Z" transform="translate(-75.95 0.05)"/><path class="cls-1" d="M180.8,127.18h6.39l.69.42-.69.48H180.8l-.67-.47Z" transform="translate(-75.95 0.05)"/><path class="cls-1" d="M180.8,128.08h6.39l.69.42-.69.48H180.8l-.67-.47Z" transform="translate(-75.95 0.05)"/><path class="cls-1" d="M180.8,129h6.39l.69.41-.69.49H180.8l-.67-.47Z" transform="translate(-75.95 0.05)"/><path class="cls-1" d="M180.8,129.88h6.39l.69.41-.69.49H180.8l-.67-.48Z" transform="translate(-75.95 0.05)"/><path class="cls-1" d="M180.8,130.78h6.39l.69.41-.69.49H180.8l-.67-.48Z" transform="translate(-75.95 0.05)"/><polygon class="cls-4" points="52.23 127.87 52.41 125.85 78.83 105.45 54.24 128.13 52.23 127.87"/><polygon class="cls-4" points="52.25 112.76 53.09 114.66 52.29 158.79 51.37 114.57 52.25 112.76"/><polygon class="cls-4" points="51.26 126.03 51.7 128.01 49.74 128.53 33.31 117.47 51.26 126.03"/><rect class="cls-3" x="79.92" y="123.57" width="8" height="8"/><rect class="cls-3" x="80.92" y="124.57" width="6" height="6"/><text class="cls-5" transform="translate(80.92 129.45)">18</text><text class="cls-6" transform="translate(40.37 107.5)"><tspan class="cls-7">PA</tspan><tspan x="3.56" y="0">TEK PHILIPPE</tspan><tspan x="5.81" y="3.6">GENE</tspan><tspan class="cls-7" x="14.31" y="3.6">V</tspan><tspan class="cls-8" x="16.09" y="3.6">A</tspan></text></svg>