<svg id="Layer_1" data-name="Layer 1" xmlns="http://www.w3.org/2000/svg" viewBox="0 0 104.08 256.08"><defs><style>.cls-1,.cls-3{fill:none;stroke-miterlimit:10;stroke-width:0.08px;}.cls-1{stroke:#666;}.cls-2{font-size:11.02px;font-family:Rajdhani-Medium, Rajdhani;}.cls-3{stroke:#000;}</style></defs><title>rolex</title><rect class="cls-1" x="28.04" y="236.04" width="12" height="20"/><rect class="cls-1" x="64.04" y="236.04" width="12" height="20"/><rect class="cls-1" x="40.04" y="244.04" width="24" height="12"/><rect class="cls-1" x="28.04" y="220.04" width="12" height="16"/><rect class="cls-1" x="64.04" y="220.04" width="12" height="16"/><rect class="cls-1" x="40.04" y="232.04" width="24" height="12"/><rect class="cls-1" x="28.04" y="204.04" width="12" height="16"/><rect class="cls-1" x="64.04" y="204.04" width="12" height="16"/><rect class="cls-1" x="28.04" y="188.04" width="12" height="16"/><rect class="cls-1" x="64.04" y="188.04" width="12" height="16"/><polygon class="cls-1" points="40.04 188.04 28.04 188.04 28.04 172.04 40.04 176.04 40.04 188.04"/><polygon class="cls-1" points="76.04 188.04 64.04 188.04 64.04 176.04 76.04 172.04 76.04 188.04"/><rect class="cls-1" x="40.04" y="220.04" width="24" height="12"/><rect class="cls-1" x="40.04" y="208.04" width="24" height="12"/><rect class="cls-1" x="40.04" y="196.04" width="24" height="12"/><rect class="cls-1" x="40.04" y="184.04" width="24" height="12"/><rect class="cls-1" x="40.04" y="176.04" width="24" height="8"/><rect class="cls-1" x="28.04" y="0.04" width="12" height="20"/><rect class="cls-1" x="64.04" y="0.04" width="12" height="20"/><rect class="cls-1" x="40.04" y="0.04" width="24" height="12"/><rect class="cls-1" x="28.04" y="20.04" width="12" height="16"/><rect class="cls-1" x="64.04" y="20.04" width="12" height="16"/><rect class="cls-1" x="40.04" y="12.04" width="24" height="12"/><rect class="cls-1" x="28.04" y="36.04" width="12" height="16"/><rect class="cls-1" x="64.04" y="36.04" width="12" height="16"/><rect class="cls-1" x="28.04" y="52.04" width="12" height="16"/><rect class="cls-1" x="64.04" y="52.04" width="12" height="16"/><polygon class="cls-1" points="40.04 68.04 28.04 68.04 28.04 84.04 40.04 80.04 40.04 68.04"/><polygon class="cls-1" points="76.04 68.04 64.04 68.04 64.04 80.04 76.04 84.04 76.04 68.04"/><rect class="cls-1" x="40.04" y="24.04" width="24" height="12"/><rect class="cls-1" x="40.04" y="36.04" width="24" height="12"/><rect class="cls-1" x="40.04" y="48.04" width="24" height="12"/><rect class="cls-1" x="40.04" y="60.04" width="24" height="12"/><rect class="cls-1" x="40.04" y="72.04" width="24" height="8"/><circle class="cls-1" cx="52.04" cy="128.04" r="52"/><circle class="cls-1" cx="52.04" cy="128.04" r="40"/><circle class="cls-1" cx="52.04" cy="128.04" r="38"/><circle class="cls-1" cx="52.04" cy="128.04" r="50"/><path class="cls-1" d="M128,76" transform="translate(-75.96 0.04)"/><path class="cls-1" d="M177,138.45a2,2,0,0,1,2.33-1.55c.08-.48.16-1,.23-1.43a2,2,0,0,1,.4-4c0-.49.06-1,.08-1.45a2,2,0,0,1,0-4c0-.49,0-1-.08-1.46a2,2,0,0,1-.4-4c-.07-.48-.15-.95-.23-1.43a2,2,0,0,1-.82-3.91c-.12-.47-.26-.93-.39-1.4a2,2,0,0,1-1.22-3.8c-.16-.46-.35-.9-.53-1.35a2,2,0,0,1-1.62-3.65c-.21-.43-.44-.86-.66-1.29a2,2,0,0,1-2-3.45c-.26-.41-.52-.83-.79-1.23a2,2,0,0,1-2.35-3.22c-.3-.38-.6-.76-.91-1.13a2,2,0,0,1-2.68-3c-.34-.35-.68-.69-1-1a2,2,0,0,1-3-2.68c-.37-.31-.75-.6-1.13-.9A2,2,0,0,1,157,84.84c-.4-.27-.81-.53-1.22-.79a2,2,0,0,1-3.46-2L151,81.39a2,2,0,0,1-3.65-1.62c-.45-.18-.89-.36-1.35-.53a2,2,0,0,1-3.8-1.22c-.47-.13-.93-.27-1.4-.39a2,2,0,0,1-3.91-.81c-.48-.09-1-.17-1.43-.23a2,2,0,0,1-4-.41l-1.45-.08a2,2,0,0,1-4,0l-1.46.08a2,2,0,0,1-4,.41c-.48.06-.95.14-1.43.23a2,2,0,0,1-3.91.81c-.47.12-.93.26-1.4.39a2,2,0,0,1-3.8,1.22c-.46.17-.9.35-1.35.53a2,2,0,0,1-3.65,1.62l-1.29.66a2,2,0,0,1-3.45,2c-.41.26-.83.52-1.23.79A2,2,0,0,1,95.9,87.2c-.38.3-.76.59-1.13.9a2,2,0,0,1-3,2.68c-.35.34-.69.68-1,1a2,2,0,0,1-2.68,3c-.31.37-.6.75-.9,1.13a2,2,0,0,1-2.36,3.22c-.27.4-.53.82-.79,1.23a2,2,0,0,1-2,3.45l-.66,1.29a2,2,0,0,1-1.62,3.65c-.18.45-.36.89-.53,1.35a2,2,0,0,1-1.22,3.8c-.13.47-.27.93-.39,1.4a2,2,0,0,1-.81,3.91c-.09.48-.17,1-.23,1.43a2,2,0,0,1-.41,4c0,.49-.06,1-.08,1.46a2,2,0,0,1,0,4c0,.48.05,1,.08,1.45a2,2,0,0,1,.41,4c.06.48.14.95.23,1.43a2,2,0,0,1,.81,3.91c.12.47.26.93.39,1.4a2,2,0,0,1,1.22,3.8c.17.46.35.9.53,1.35A2,2,0,0,1,81.39,151l.66,1.29a2,2,0,0,1,2,3.46c.26.41.52.82.79,1.22a2,2,0,0,1,2.36,3.22c.3.38.59.76.9,1.13a2,2,0,0,1,2.68,3c.34.35.68.69,1,1a2,2,0,0,1,3,2.68c.37.31.75.61,1.13.91a2,2,0,0,1,3.22,2.35c.4.27.82.53,1.23.79a2,2,0,0,1,3.45,2l1.29.66a2,2,0,0,1,3.65,1.62c.45.18.89.37,1.35.53a2,2,0,0,1,3.8,1.22c.47.13.93.27,1.4.39a2,2,0,0,1,3.91.82l1.43.23a2,2,0,0,1,4,.4c.49,0,1,.06,1.46.08a2,2,0,0,1,4,0c.48,0,1,0,1.45-.08a2,2,0,0,1,4-.4l1.43-.23a2,2,0,0,1,3.91-.82c.47-.12.93-.26,1.4-.39a2,2,0,0,1,3.8-1.22c.46-.16.9-.35,1.35-.53a2,2,0,0,1,3.65-1.62l1.29-.66a2,2,0,0,1,3.46-2c.41-.26.82-.52,1.22-.79a2,2,0,0,1,3.22-2.35c.38-.3.76-.6,1.13-.91a2,2,0,0,1,3-2.68l1-1a2,2,0,0,1,2.68-3c.31-.37.61-.75.91-1.13a2,2,0,0,1,2.35-3.22c.27-.4.53-.81.79-1.22a2,2,0,0,1,2-3.46c.22-.43.45-.86.66-1.29a2,2,0,0,1,1.62-3.65c.18-.45.37-.89.53-1.35a2,2,0,0,1,1.22-3.8c.13-.47.27-.93.39-1.4A2,2,0,0,1,177,138.45Z" transform="translate(-75.96 0.04)"/><rect class="cls-1" x="99" y="123" width="4" height="10" transform="translate(-102.96 229.04) rotate(-90)"/><rect class="cls-1" x="126" y="150" width="4" height="10" transform="translate(180.04 310.04) rotate(-180)"/><rect class="cls-1" x="153" y="123" width="4" height="10" transform="translate(207.04 -26.96) rotate(90)"/><rect class="cls-1" x="82" y="124" width="2" height="8" transform="translate(-120.96 211.04) rotate(-90)"/><rect class="cls-1" x="172" y="124" width="2" height="8" transform="translate(225.04 -44.96) rotate(90)"/><rect class="cls-1" x="104.5" y="85.03" width="2" height="8" transform="matrix(0.87, -0.5, 0.5, 0.87, -106.34, 64.72)"/><rect class="cls-1" x="82" y="124" width="2" height="8" transform="matrix(0, -1, 1, 0, -120.96, 211.04)"/><rect class="cls-1" x="104.5" y="162.97" width="2" height="8" transform="translate(37.42 364.36) rotate(-150)"/><rect class="cls-1" x="149.5" y="162.97" width="2" height="8" transform="matrix(-0.87, 0.5, -0.5, -0.87, 288.36, 236.36)"/><rect class="cls-1" x="172" y="124" width="2" height="8" transform="translate(225.04 -44.96) rotate(90)"/><rect class="cls-1" x="149.5" y="85.03" width="2" height="8" transform="translate(-11.29 -63.28) rotate(30)"/><rect class="cls-1" x="131.99" y="83.24" width="1" height="4" transform="translate(-66.33 -13.34) rotate(6)"/><rect class="cls-1" x="136.44" y="83.94" width="1" height="4" transform="translate(-55.1 -26.56) rotate(12)"/><rect class="cls-1" x="140.79" y="85.1" width="1" height="4" transform="translate(-42.13 -39.36) rotate(18)"/><rect class="cls-1" x="144.99" y="86.72" width="1" height="4" transform="translate(-27.3 -51.47) rotate(24)"/><rect class="cls-1" x="152.77" y="91.21" width="1" height="4" transform="translate(8.1 -72.25) rotate(36)"/><rect class="cls-1" x="156.27" y="94.04" width="1" height="4" transform="translate(28.57 -80.19) rotate(42)"/><rect class="cls-1" x="159.46" y="97.23" width="1" height="4" transform="translate(50.7 -86) rotate(48)"/><rect class="cls-1" x="162.29" y="100.73" width="1" height="4" transform="matrix(0.59, 0.81, -0.81, 0.59, 74.25, -89.32)"/><rect class="cls-1" x="166.78" y="108.51" width="1" height="4" transform="translate(124.24 -87.22) rotate(66)"/><rect class="cls-1" x="168.4" y="112.71" width="1" height="4" transform="translate(149.84 -81.33) rotate(72)"/><rect class="cls-1" x="169.56" y="117.06" width="1" height="4" transform="translate(175.2 -72) rotate(78)"/><rect class="cls-1" x="170.26" y="121.51" width="1" height="4" transform="translate(199.78 -59.2) rotate(84)"/><text class="cls-2" transform="translate(14.57 110.96) rotate(-60) scale(0.73 1)">50</text><text class="cls-2" transform="translate(18.57 151.96) rotate(-120) scale(0.73 1)">40</text><text class="cls-2" transform="translate(56.04 169.04) rotate(180) scale(0.73 1)">30</text><text class="cls-2" transform="translate(89.51 145.11) rotate(120) scale(0.73 1)">20</text><text class="cls-2" transform="translate(85.51 104.11) rotate(60) scale(0.73 1)">10</text><line class="cls-1" x1="52.04" y1="91.44" x2="52.04" y2="94.44"/><line class="cls-1" x1="52.04" y1="91.44" x2="52.04" y2="93.94"/><line class="cls-1" x1="48.21" y1="91.64" x2="48.47" y2="94.12"/><line class="cls-1" x1="44.43" y1="92.24" x2="44.95" y2="94.68"/><line class="cls-1" x1="40.73" y1="93.23" x2="41.5" y2="95.61"/><line class="cls-1" x1="37.15" y1="94.6" x2="38.17" y2="96.89"/><line class="cls-1" x1="30.52" y1="98.43" x2="31.99" y2="100.45"/><line class="cls-1" x1="27.55" y1="100.84" x2="29.22" y2="102.7"/><line class="cls-1" x1="24.84" y1="103.55" x2="26.7" y2="105.22"/><line class="cls-1" x1="22.43" y1="106.52" x2="24.45" y2="107.99"/><line class="cls-1" x1="18.6" y1="113.15" x2="20.89" y2="114.17"/><line class="cls-1" x1="17.23" y1="116.73" x2="19.61" y2="117.5"/><line class="cls-1" x1="16.24" y1="120.43" x2="18.68" y2="120.95"/><line class="cls-1" x1="15.64" y1="124.21" x2="18.12" y2="124.47"/><line class="cls-1" x1="15.64" y1="131.86" x2="18.12" y2="131.6"/><line class="cls-1" x1="16.24" y1="135.65" x2="18.68" y2="135.13"/><line class="cls-1" x1="17.23" y1="139.35" x2="19.61" y2="138.58"/><line class="cls-1" x1="18.6" y1="142.92" x2="20.89" y2="141.91"/><line class="cls-1" x1="22.43" y1="149.55" x2="24.45" y2="148.08"/><line class="cls-1" x1="24.84" y1="152.53" x2="26.7" y2="150.86"/><line class="cls-1" x1="27.55" y1="155.24" x2="29.22" y2="153.38"/><line class="cls-1" x1="30.52" y1="157.65" x2="31.99" y2="155.63"/><line class="cls-1" x1="37.15" y1="161.47" x2="38.17" y2="159.19"/><line class="cls-1" x1="40.73" y1="162.85" x2="41.5" y2="160.47"/><line class="cls-1" x1="44.43" y1="163.84" x2="44.95" y2="161.39"/><line class="cls-1" x1="48.21" y1="164.44" x2="48.47" y2="161.95"/><line class="cls-1" x1="55.86" y1="164.44" x2="55.6" y2="161.95"/><line class="cls-1" x1="59.65" y1="163.84" x2="59.13" y2="161.39"/><line class="cls-1" x1="63.35" y1="162.85" x2="62.58" y2="160.47"/><line class="cls-1" x1="66.92" y1="161.47" x2="65.91" y2="159.19"/><line class="cls-1" x1="73.55" y1="157.65" x2="72.08" y2="155.63"/><line class="cls-1" x1="76.53" y1="155.24" x2="74.86" y2="153.38"/><line class="cls-1" x1="79.24" y1="152.53" x2="77.38" y2="150.86"/><line class="cls-1" x1="81.65" y1="149.55" x2="79.63" y2="148.08"/><line class="cls-1" x1="85.47" y1="142.92" x2="83.19" y2="141.91"/><line class="cls-1" x1="86.85" y1="139.35" x2="84.47" y2="138.58"/><line class="cls-1" x1="87.84" y1="135.65" x2="85.39" y2="135.13"/><line class="cls-1" x1="88.44" y1="131.86" x2="85.95" y2="131.6"/><line class="cls-1" x1="88.44" y1="124.21" x2="85.95" y2="124.47"/><line class="cls-1" x1="87.84" y1="120.43" x2="85.39" y2="120.95"/><line class="cls-1" x1="86.85" y1="116.73" x2="84.47" y2="117.5"/><line class="cls-1" x1="85.47" y1="113.15" x2="83.19" y2="114.17"/><line class="cls-1" x1="81.65" y1="106.52" x2="79.63" y2="107.99"/><line class="cls-1" x1="79.24" y1="103.55" x2="77.38" y2="105.22"/><line class="cls-1" x1="76.53" y1="100.84" x2="74.86" y2="102.7"/><line class="cls-1" x1="73.55" y1="98.43" x2="72.08" y2="100.45"/><line class="cls-1" x1="66.92" y1="94.6" x2="65.91" y2="96.89"/><line class="cls-1" x1="63.35" y1="93.23" x2="62.58" y2="95.61"/><line class="cls-1" x1="59.65" y1="92.24" x2="59.13" y2="94.68"/><line class="cls-1" x1="55.86" y1="91.64" x2="55.6" y2="94.12"/><line class="cls-1" x1="33.74" y1="96.34" x2="35.24" y2="98.94"/><line class="cls-1" x1="20.34" y1="109.74" x2="22.94" y2="111.24"/><line class="cls-1" x1="15.44" y1="128.04" x2="18.44" y2="128.04"/><line class="cls-1" x1="20.34" y1="146.34" x2="22.94" y2="144.84"/><line class="cls-1" x1="33.74" y1="159.73" x2="35.24" y2="157.14"/><line class="cls-1" x1="52.04" y1="164.64" x2="52.04" y2="161.64"/><line class="cls-1" x1="70.34" y1="159.73" x2="68.84" y2="157.14"/><line class="cls-1" x1="83.73" y1="146.34" x2="81.14" y2="144.84"/><line class="cls-1" x1="88.64" y1="128.04" x2="85.64" y2="128.04"/><line class="cls-1" x1="83.73" y1="109.74" x2="81.14" y2="111.24"/><line class="cls-1" x1="70.34" y1="96.34" x2="68.84" y2="98.94"/><circle class="cls-1" cx="37.54" cy="102.92" r="3"/><circle class="cls-1" cx="26.92" cy="113.54" r="3"/><circle class="cls-1" cx="26.92" cy="142.54" r="3"/><circle class="cls-1" cx="37.54" cy="153.15" r="3"/><circle class="cls-1" cx="66.54" cy="153.15" r="3"/><circle class="cls-1" cx="77.15" cy="142.54" r="3"/><circle class="cls-1" cx="77.15" cy="113.54" r="3"/><circle class="cls-1" cx="66.54" cy="102.92" r="3"/><polygon class="cls-1" points="52.04 108.04 52.04 108.04 48.04 96.04 56.04 96.04 52.04 108.04"/><polygon class="cls-1" points="52.04 88.04 52.04 88.04 48.04 80.04 56.04 80.04 52.04 88.04"/><circle class="cls-1" cx="52.04" cy="84.04" r="3"/><circle class="cls-3" cx="52.38" cy="127.59" r="2"/><circle class="cls-3" cx="52.38" cy="127.59" r="4"/><rect class="cls-3" x="51.88" y="109.97" width="1" height="30"/><path class="cls-3" d="M116.39,125.57c-1.09-.18-2.85-.53-3.92-.77L98,121.54c-1.07-.24-1.06-.29,0-.1L112.63,124c1.09.18,2.85.54,3.92.79l11,2.55c1.07.25,1.06.3,0,.12Z" transform="translate(-75.96 0.04)"/><path class="cls-3" d="M129.12,127.16c-1,.55-1,.5-.07-.11l9.44-6.25c.91-.6,2.44-1.56,3.39-2.11l12.82-7.49c1-.55,1-.51.06.09l-12.43,8.13c-.92.6-2.45,1.55-3.4,2.09Z" transform="translate(-75.96 0.04)"/></svg>