<svg id="Layer_1" data-name="Layer 1" xmlns="http://www.w3.org/2000/svg" viewBox="0 0 136.1 256.1"><defs><style>.cls-1,.cls-2{fill:none;}.cls-1{stroke:#666;stroke-width:0.1px;}.cls-1,.cls-2,.cls-3{stroke-miterlimit:10;}.cls-2,.cls-3{stroke:#000;}.cls-2{stroke-width:0.08px;}.cls-3{fill:#fff;stroke-width:0.08px;}</style></defs><title>tag_heuer</title><path class="cls-1" d="M106,240" transform="translate(-55.95 0.05)"/><path class="cls-1" d="M108,242" transform="translate(-55.95 0.05)"/><path class="cls-1" d="M104,252V192H152v60m-48,0c0,2.21,10.76,4,24,4s24-1.79,24-4" transform="translate(-55.95 0.05)"/><path class="cls-1" d="M152,4V64H104V4m48.1,0c0-2.21-10.76-4-24-4s-24,1.79-24,4" transform="translate(-55.95 0.05)"/><line class="cls-1" x1="69.56" y1="80.11" x2="69.72" y2="83.11"/><line class="cls-1" x1="68.31" y1="80.2" x2="68.55" y2="83.19"/><line class="cls-1" x1="65.81" y1="80.46" x2="66.2" y2="83.43"/><line class="cls-1" x1="64.57" y1="80.64" x2="65.04" y2="83.6"/><line class="cls-1" x1="63.33" y1="80.85" x2="63.88" y2="83.8"/><line class="cls-1" x1="60.87" y1="81.37" x2="61.57" y2="84.29"/><line class="cls-1" x1="59.65" y1="81.68" x2="60.43" y2="84.58"/><line class="cls-1" x1="58.44" y1="82.02" x2="59.29" y2="84.9"/><line class="cls-1" x1="56.05" y1="82.79" x2="57.05" y2="85.62"/><line class="cls-1" x1="54.87" y1="83.23" x2="55.95" y2="86.03"/><line class="cls-1" x1="53.71" y1="83.69" x2="54.85" y2="86.47"/><line class="cls-1" x1="51.41" y1="84.71" x2="52.7" y2="87.42"/><line class="cls-1" x1="50.28" y1="85.27" x2="51.64" y2="87.94"/><line class="cls-1" x1="45.93" y1="87.78" x2="47.56" y2="90.3"/><line class="cls-1" x1="44.88" y1="88.48" x2="46.58" y2="90.95"/><line class="cls-1" x1="42.85" y1="89.95" x2="44.68" y2="92.33"/><line class="cls-1" x1="41.86" y1="90.73" x2="43.75" y2="93.06"/><line class="cls-1" x1="40.9" y1="91.53" x2="42.84" y2="93.81"/><line class="cls-1" x1="39.03" y1="93.21" x2="41.09" y2="95.39"/><line class="cls-1" x1="38.13" y1="94.09" x2="40.25" y2="96.21"/><line class="cls-1" x1="37.25" y1="94.99" x2="39.43" y2="97.06"/><line class="cls-1" x1="35.57" y1="96.86" x2="37.85" y2="98.8"/><line class="cls-1" x1="34.76" y1="97.82" x2="37.09" y2="99.71"/><line class="cls-1" x1="33.98" y1="98.81" x2="36.37" y2="100.63"/><line class="cls-1" x1="32.51" y1="100.84" x2="34.98" y2="102.54"/><line class="cls-1" x1="31.81" y1="101.89" x2="34.32" y2="103.52"/><line class="cls-1" x1="29.29" y1="106.24" x2="31.97" y2="107.6"/><line class="cls-1" x1="28.74" y1="107.36" x2="31.44" y2="108.65"/><line class="cls-1" x1="27.71" y1="109.66" x2="30.49" y2="110.81"/><line class="cls-1" x1="27.25" y1="110.82" x2="30.05" y2="111.9"/><line class="cls-1" x1="26.81" y1="112" x2="29.64" y2="113"/><line class="cls-1" x1="26.03" y1="114.39" x2="28.91" y2="115.24"/><line class="cls-1" x1="25.69" y1="115.6" x2="28.59" y2="116.38"/><line class="cls-1" x1="25.38" y1="116.82" x2="28.3" y2="117.52"/><line class="cls-1" x1="24.86" y1="119.28" x2="27.81" y2="119.82"/><line class="cls-1" x1="24.65" y1="120.52" x2="27.61" y2="120.98"/><line class="cls-1" x1="24.46" y1="121.76" x2="27.44" y2="122.15"/><line class="cls-1" x1="24.2" y1="124.26" x2="27.19" y2="124.49"/><line class="cls-1" x1="24.12" y1="125.51" x2="27.11" y2="125.67"/><line class="cls-1" x1="24.11" y1="130.54" x2="27.11" y2="130.38"/><line class="cls-1" x1="24.2" y1="131.79" x2="27.19" y2="131.55"/><line class="cls-1" x1="24.46" y1="134.29" x2="27.43" y2="133.9"/><line class="cls-1" x1="24.64" y1="135.53" x2="27.6" y2="135.06"/><line class="cls-1" x1="24.85" y1="136.77" x2="27.8" y2="136.22"/><line class="cls-1" x1="25.37" y1="139.23" x2="28.29" y2="138.53"/><line class="cls-1" x1="25.68" y1="140.45" x2="28.58" y2="139.67"/><line class="cls-1" x1="26.02" y1="141.66" x2="28.9" y2="140.81"/><line class="cls-1" x1="26.79" y1="144.05" x2="29.62" y2="143.05"/><line class="cls-1" x1="27.23" y1="145.23" x2="30.03" y2="144.15"/><line class="cls-1" x1="27.69" y1="146.39" x2="30.47" y2="145.25"/><line class="cls-1" x1="28.71" y1="148.69" x2="31.42" y2="147.4"/><line class="cls-1" x1="29.27" y1="149.82" x2="31.94" y2="148.46"/><line class="cls-1" x1="31.78" y1="154.17" x2="34.3" y2="152.54"/><line class="cls-1" x1="32.48" y1="155.22" x2="34.95" y2="153.52"/><line class="cls-1" x1="33.95" y1="157.25" x2="36.33" y2="155.42"/><line class="cls-1" x1="34.73" y1="158.24" x2="37.06" y2="156.35"/><line class="cls-1" x1="35.53" y1="159.2" x2="37.81" y2="157.26"/><line class="cls-1" x1="37.21" y1="161.07" x2="39.39" y2="159.01"/><line class="cls-1" x1="38.09" y1="161.97" x2="40.21" y2="159.85"/><line class="cls-1" x1="38.99" y1="162.85" x2="41.06" y2="160.67"/><line class="cls-1" x1="40.86" y1="164.53" x2="42.8" y2="162.25"/><line class="cls-1" x1="41.82" y1="165.34" x2="43.71" y2="163.01"/><line class="cls-1" x1="42.81" y1="166.12" x2="44.63" y2="163.73"/><line class="cls-1" x1="44.84" y1="167.59" x2="46.54" y2="165.12"/><line class="cls-1" x1="45.89" y1="168.29" x2="47.52" y2="165.78"/><line class="cls-1" x1="50.24" y1="170.81" x2="51.6" y2="168.13"/><line class="cls-1" x1="51.36" y1="171.36" x2="52.65" y2="168.66"/><line class="cls-1" x1="53.66" y1="172.39" x2="54.81" y2="169.61"/><line class="cls-1" x1="54.82" y1="172.85" x2="55.9" y2="170.05"/><line class="cls-1" x1="56" y1="173.29" x2="57" y2="170.46"/><line class="cls-1" x1="58.39" y1="174.07" x2="59.24" y2="171.19"/><line class="cls-1" x1="59.6" y1="174.41" x2="60.38" y2="171.51"/><line class="cls-1" x1="60.82" y1="174.72" x2="61.52" y2="171.8"/><line class="cls-1" x1="63.28" y1="175.24" x2="63.82" y2="172.29"/><line class="cls-1" x1="64.52" y1="175.45" x2="64.98" y2="172.49"/><line class="cls-1" x1="65.76" y1="175.64" x2="66.15" y2="172.66"/><line class="cls-1" x1="68.26" y1="175.9" x2="68.49" y2="172.91"/><line class="cls-1" x1="69.51" y1="175.98" x2="69.67" y2="172.99"/><line class="cls-1" x1="74.54" y1="175.99" x2="74.38" y2="172.99"/><line class="cls-1" x1="75.79" y1="175.9" x2="75.55" y2="172.91"/><line class="cls-1" x1="78.29" y1="175.64" x2="77.9" y2="172.67"/><line class="cls-1" x1="79.53" y1="175.46" x2="79.06" y2="172.5"/><line class="cls-1" x1="80.77" y1="175.25" x2="80.22" y2="172.3"/><line class="cls-1" x1="83.23" y1="174.73" x2="82.53" y2="171.81"/><line class="cls-1" x1="84.45" y1="174.42" x2="83.67" y2="171.52"/><line class="cls-1" x1="85.66" y1="174.08" x2="84.81" y2="171.2"/><line class="cls-1" x1="88.05" y1="173.31" x2="87.05" y2="170.48"/><line class="cls-1" x1="89.23" y1="172.87" x2="88.15" y2="170.07"/><line class="cls-1" x1="90.39" y1="172.41" x2="89.25" y2="169.63"/><line class="cls-1" x1="92.69" y1="171.39" x2="91.4" y2="168.68"/><line class="cls-1" x1="93.82" y1="170.83" x2="92.46" y2="168.16"/><line class="cls-1" x1="98.17" y1="168.32" x2="96.54" y2="165.8"/><line class="cls-1" x1="99.22" y1="167.62" x2="97.52" y2="165.15"/><line class="cls-1" x1="101.25" y1="166.15" x2="99.42" y2="163.77"/><line class="cls-1" x1="102.24" y1="165.37" x2="100.35" y2="163.04"/><line class="cls-1" x1="103.2" y1="164.57" x2="101.26" y2="162.29"/><line class="cls-1" x1="105.07" y1="162.89" x2="103.01" y2="160.71"/><line class="cls-1" x1="105.97" y1="162.01" x2="103.85" y2="159.89"/><line class="cls-1" x1="106.85" y1="161.11" x2="104.67" y2="159.04"/><line class="cls-1" x1="108.53" y1="159.24" x2="106.25" y2="157.3"/><line class="cls-1" x1="109.34" y1="158.28" x2="107.01" y2="156.39"/><line class="cls-1" x1="110.12" y1="157.29" x2="107.73" y2="155.47"/><line class="cls-1" x1="111.59" y1="155.26" x2="109.12" y2="153.56"/><line class="cls-1" x1="112.29" y1="154.21" x2="109.78" y2="152.58"/><line class="cls-1" x1="114.81" y1="149.86" x2="112.13" y2="148.5"/><line class="cls-1" x1="115.36" y1="148.74" x2="112.66" y2="147.45"/><line class="cls-1" x1="116.39" y1="146.44" x2="113.61" y2="145.29"/><line class="cls-1" x1="116.85" y1="145.28" x2="114.05" y2="144.2"/><line class="cls-1" x1="117.29" y1="144.1" x2="114.46" y2="143.1"/><line class="cls-1" x1="118.07" y1="141.71" x2="115.19" y2="140.86"/><line class="cls-1" x1="118.41" y1="140.5" x2="115.51" y2="139.72"/><line class="cls-1" x1="118.72" y1="139.28" x2="115.8" y2="138.58"/><line class="cls-1" x1="119.24" y1="136.82" x2="116.29" y2="136.28"/><line class="cls-1" x1="119.45" y1="135.58" x2="116.49" y2="135.12"/><line class="cls-1" x1="119.64" y1="134.34" x2="116.66" y2="133.95"/><line class="cls-1" x1="119.9" y1="131.84" x2="116.91" y2="131.61"/><line class="cls-1" x1="119.98" y1="130.59" x2="116.99" y2="130.43"/><line class="cls-1" x1="119.99" y1="125.56" x2="116.99" y2="125.72"/><line class="cls-1" x1="119.9" y1="124.31" x2="116.91" y2="124.55"/><line class="cls-1" x1="119.64" y1="121.81" x2="116.67" y2="122.2"/><line class="cls-1" x1="119.46" y1="120.57" x2="116.5" y2="121.04"/><line class="cls-1" x1="119.25" y1="119.33" x2="116.3" y2="119.88"/><line class="cls-1" x1="118.73" y1="116.87" x2="115.81" y2="117.57"/><line class="cls-1" x1="118.42" y1="115.65" x2="115.52" y2="116.43"/><line class="cls-1" x1="118.08" y1="114.44" x2="115.2" y2="115.29"/><line class="cls-1" x1="117.31" y1="112.05" x2="114.48" y2="113.05"/><line class="cls-1" x1="116.87" y1="110.87" x2="114.07" y2="111.95"/><line class="cls-1" x1="116.41" y1="109.71" x2="113.63" y2="110.85"/><line class="cls-1" x1="115.39" y1="107.41" x2="112.68" y2="108.7"/><line class="cls-1" x1="114.83" y1="106.28" x2="112.16" y2="107.64"/><line class="cls-1" x1="112.32" y1="101.93" x2="109.8" y2="103.56"/><line class="cls-1" x1="111.62" y1="100.88" x2="109.15" y2="102.58"/><line class="cls-1" x1="110.15" y1="98.85" x2="107.77" y2="100.68"/><line class="cls-1" x1="109.37" y1="97.86" x2="107.04" y2="99.75"/><line class="cls-1" x1="108.57" y1="96.9" x2="106.29" y2="98.84"/><line class="cls-1" x1="106.89" y1="95.03" x2="104.71" y2="97.09"/><line class="cls-1" x1="106.01" y1="94.13" x2="103.89" y2="96.25"/><line class="cls-1" x1="105.11" y1="93.25" x2="103.04" y2="95.43"/><line class="cls-1" x1="103.24" y1="91.57" x2="101.3" y2="93.85"/><line class="cls-1" x1="102.28" y1="90.76" x2="100.39" y2="93.09"/><line class="cls-1" x1="101.29" y1="89.98" x2="99.47" y2="92.37"/><line class="cls-1" x1="99.26" y1="88.51" x2="97.56" y2="90.98"/><line class="cls-1" x1="98.21" y1="87.81" x2="96.58" y2="90.32"/><line class="cls-1" x1="93.86" y1="85.29" x2="92.5" y2="87.97"/><line class="cls-1" x1="92.74" y1="84.74" x2="91.45" y2="87.44"/><line class="cls-1" x1="90.44" y1="83.71" x2="89.29" y2="86.49"/><line class="cls-1" x1="89.28" y1="83.25" x2="88.2" y2="86.05"/><line class="cls-1" x1="88.1" y1="82.81" x2="87.1" y2="85.64"/><line class="cls-1" x1="85.71" y1="82.03" x2="84.86" y2="84.91"/><line class="cls-1" x1="84.5" y1="81.69" x2="83.72" y2="84.59"/><line class="cls-1" x1="83.28" y1="81.38" x2="82.58" y2="84.3"/><line class="cls-1" x1="80.82" y1="80.86" x2="80.28" y2="83.81"/><line class="cls-1" x1="79.58" y1="80.65" x2="79.12" y2="83.61"/><line class="cls-1" x1="78.34" y1="80.46" x2="77.95" y2="83.44"/><line class="cls-1" x1="75.84" y1="80.2" x2="75.61" y2="83.19"/><line class="cls-1" x1="74.59" y1="80.12" x2="74.43" y2="83.11"/><line class="cls-1" x1="67.06" y1="80.31" x2="67.69" y2="86.28"/><line class="cls-1" x1="62.1" y1="81.09" x2="63.34" y2="86.96"/><line class="cls-1" x1="57.24" y1="82.39" x2="59.1" y2="88.1"/><line class="cls-1" x1="52.55" y1="84.19" x2="54.99" y2="89.67"/><line class="cls-1" x1="43.86" y1="89.2" x2="47.38" y2="94.06"/><line class="cls-1" x1="39.95" y1="92.36" x2="43.97" y2="96.82"/><line class="cls-1" x1="36.4" y1="95.91" x2="40.86" y2="99.93"/><line class="cls-1" x1="33.23" y1="99.82" x2="38.09" y2="103.34"/><line class="cls-1" x1="28.21" y1="108.51" x2="33.69" y2="110.95"/><line class="cls-1" x1="26.41" y1="113.2" x2="32.12" y2="115.05"/><line class="cls-1" x1="25.11" y1="118.05" x2="30.98" y2="119.3"/><line class="cls-1" x1="24.32" y1="123.01" x2="30.29" y2="123.64"/><line class="cls-1" x1="24.31" y1="133.04" x2="30.28" y2="132.42"/><line class="cls-1" x1="25.1" y1="138.01" x2="30.97" y2="136.76"/><line class="cls-1" x1="26.4" y1="142.86" x2="32.1" y2="141.01"/><line class="cls-1" x1="28.19" y1="147.55" x2="33.68" y2="145.11"/><line class="cls-1" x1="33.21" y1="156.25" x2="38.06" y2="152.72"/><line class="cls-1" x1="36.37" y1="160.15" x2="40.83" y2="156.14"/><line class="cls-1" x1="39.92" y1="163.71" x2="43.93" y2="159.25"/><line class="cls-1" x1="43.82" y1="166.87" x2="47.35" y2="162.02"/><line class="cls-1" x1="52.51" y1="171.89" x2="54.95" y2="166.41"/><line class="cls-1" x1="57.2" y1="173.69" x2="59.05" y2="167.99"/><line class="cls-1" x1="62.05" y1="175" x2="63.3" y2="169.13"/><line class="cls-1" x1="67.01" y1="175.78" x2="67.64" y2="169.82"/><line class="cls-1" x1="77.05" y1="175.79" x2="76.42" y2="169.82"/><line class="cls-1" x1="82.01" y1="175.01" x2="80.76" y2="169.14"/><line class="cls-1" x1="86.86" y1="173.71" x2="85.01" y2="168"/><line class="cls-1" x1="91.56" y1="171.91" x2="89.12" y2="166.43"/><line class="cls-1" x1="100.25" y1="166.9" x2="96.72" y2="162.04"/><line class="cls-1" x1="104.15" y1="163.74" x2="100.14" y2="159.28"/><line class="cls-1" x1="107.71" y1="160.19" x2="103.25" y2="156.17"/><line class="cls-1" x1="110.87" y1="156.28" x2="106.02" y2="152.76"/><line class="cls-1" x1="115.91" y1="147.55" x2="110.43" y2="145.11"/><line class="cls-1" x1="117.71" y1="142.86" x2="112" y2="141"/><line class="cls-1" x1="119" y1="138.01" x2="113.13" y2="136.76"/><line class="cls-1" x1="119.79" y1="133.04" x2="113.82" y2="132.42"/><line class="cls-1" x1="119.78" y1="123.01" x2="113.81" y2="123.64"/><line class="cls-1" x1="118.99" y1="118.05" x2="113.12" y2="119.3"/><line class="cls-1" x1="117.69" y1="113.2" x2="111.98" y2="115.05"/><line class="cls-1" x1="115.89" y1="108.51" x2="110.41" y2="110.95"/><line class="cls-1" x1="110.87" y1="99.82" x2="106.01" y2="103.35"/><line class="cls-1" x1="107.7" y1="95.92" x2="103.24" y2="99.93"/><line class="cls-1" x1="104.15" y1="92.37" x2="100.13" y2="96.83"/><line class="cls-1" x1="100.24" y1="89.21" x2="96.72" y2="94.06"/><line class="cls-1" x1="91.55" y1="84.2" x2="89.11" y2="89.68"/><line class="cls-1" x1="86.86" y1="82.4" x2="85.01" y2="88.1"/><line class="cls-1" x1="82.01" y1="81.1" x2="80.76" y2="86.97"/><line class="cls-1" x1="77.05" y1="80.32" x2="76.42" y2="86.28"/><polygon class="cls-1" points="92.62 80.05 120.05 80.05 120.05 176.05 92.62 176.05 51.48 176.05 24.05 176.05 24.05 80.05 51.48 80.05 92.62 80.05"/><polygon class="cls-1" points="93.48 78.05 122.05 78.05 122.05 178.05 93.48 178.05 50.62 178.05 22.05 178.05 22.05 78.05 50.62 78.05 93.48 78.05"/><polygon class="cls-1" points="99.48 64.05 136.05 64.05 136.05 192.05 99.48 192.05 44.62 192.05 8.05 192.05 8.05 64.05 44.62 64.05 99.48 64.05"/><circle class="cls-1" cx="72.08" cy="81.61" r="1.5"/><rect class="cls-1" x="125.02" y="83.89" width="6" height="2" transform="translate(156.97 -43.08) rotate(90)"/><circle class="cls-1" cx="48.86" cy="87.82" r="1.5"/><rect class="cls-1" x="103.46" y="89.66" width="6" height="2" transform="translate(75.8 -46.82) rotate(60)"/><circle class="cls-1" cx="31.85" cy="104.81" r="1.5"/><rect class="cls-1" x="87.68" y="105.42" width="6" height="2" transform="translate(9.41 -31.03) rotate(30)"/><circle class="cls-1" cx="25.61" cy="128.02" r="1.5"/><rect class="cls-1" x="25.94" y="127.02" width="6" height="2"/><circle class="cls-1" cx="31.82" cy="151.24" r="1.5"/><rect class="cls-1" x="87.65" y="148.53" width="6" height="2" transform="translate(-118.57 65.41) rotate(-30)"/><circle class="cls-1" cx="48.81" cy="168.25" r="1.5"/><rect class="cls-1" x="103.42" y="164.32" width="6" height="2" transform="translate(-145.91 174.87) rotate(-60)"/><circle class="cls-1" cx="72.02" cy="174.49" r="1.5"/><rect class="cls-1" x="124.97" y="170.11" width="6" height="2" transform="translate(-99.08 299.13) rotate(-90)"/><circle class="cls-1" cx="95.24" cy="168.28" r="1.5"/><rect class="cls-1" x="146.53" y="164.34" width="6" height="2" transform="translate(25.15 377.56) rotate(-120)"/><circle class="cls-1" cx="112.25" cy="151.29" r="1.5"/><rect class="cls-1" x="162.32" y="148.58" width="6" height="2" transform="translate(177.75 361.82) rotate(-150)"/><circle class="cls-1" cx="118.49" cy="128.08" r="1.5"/><rect class="cls-1" x="168.1" y="127.03" width="6" height="2" transform="translate(286.26 256.1) rotate(-180)"/><circle class="cls-1" cx="112.28" cy="104.86" r="1.5"/><rect class="cls-1" x="162.34" y="105.47" width="6" height="2" transform="translate(305.82 116.05) rotate(150)"/><circle class="cls-1" cx="95.29" cy="87.85" r="1.5"/><rect class="cls-1" x="146.57" y="89.68" width="6" height="2" transform="translate(246.94 6.54) rotate(120)"/><rect class="cls-1" x="34.11" y="114.03" width="28" height="28" rx="2.5" ry="2.5"/><rect class="cls-1" x="39.86" y="119.78" width="16.5" height="16.5" rx="2.5" ry="2.5"/><rect class="cls-1" x="82.05" y="114.03" width="28" height="28" rx="2.5" ry="2.5"/><rect class="cls-1" x="86.05" y="118.03" width="20" height="20" rx="2.5" ry="2.5"/><rect class="cls-2" x="95.8" y="138.36" width="0.5" height="3"/><rect class="cls-2" x="101.8" y="138.36" width="0.5" height="3"/><rect class="cls-2" x="89.8" y="138.36" width="0.5" height="3"/><rect class="cls-2" x="139.91" y="126.5" width="0.5" height="3" transform="translate(212.22 -12.11) rotate(90)"/><rect class="cls-2" x="139.91" y="132.5" width="0.5" height="3" transform="translate(218.22 -6.11) rotate(90)"/><rect class="cls-2" x="139.91" y="120.5" width="0.5" height="3" transform="translate(206.22 -18.11) rotate(90)"/><rect class="cls-2" x="163.59" y="126.5" width="0.5" height="3" transform="translate(235.89 -35.79) rotate(90)"/><rect class="cls-2" x="163.59" y="132.5" width="0.5" height="3" transform="translate(241.89 -29.79) rotate(90)"/><rect class="cls-2" x="163.59" y="120.5" width="0.5" height="3" transform="translate(229.89 -41.79) rotate(90)"/><rect class="cls-2" x="95.8" y="114.69" width="0.5" height="3"/><rect class="cls-2" x="101.8" y="114.69" width="0.5" height="3"/><rect class="cls-2" x="89.8" y="114.69" width="0.5" height="3"/><line class="cls-2" x1="91.55" y1="138.37" x2="91.55" y2="141.37"/><line class="cls-2" x1="88.55" y1="138.37" x2="88.55" y2="141.37"/><line class="cls-2" x1="87.55" y1="138.37" x2="87.55" y2="141.37"/><line class="cls-2" x1="88.55" y1="114.69" x2="88.55" y2="117.69"/><line class="cls-2" x1="87.55" y1="114.69" x2="87.55" y2="117.69"/><line class="cls-2" x1="92.55" y1="138.37" x2="92.55" y2="141.37"/><line class="cls-2" x1="93.55" y1="138.37" x2="93.55" y2="141.37"/><line class="cls-2" x1="94.55" y1="138.37" x2="94.55" y2="141.37"/><line class="cls-2" x1="97.55" y1="138.37" x2="97.55" y2="141.37"/><line class="cls-2" x1="98.55" y1="138.37" x2="98.55" y2="141.37"/><line class="cls-2" x1="99.55" y1="138.37" x2="99.55" y2="141.37"/><line class="cls-2" x1="100.55" y1="138.37" x2="100.55" y2="141.37"/><line class="cls-2" x1="103.55" y1="138.37" x2="103.55" y2="141.37"/><line class="cls-2" x1="104.55" y1="138.37" x2="104.55" y2="141.37"/><line class="cls-2" x1="103.55" y1="114.69" x2="103.55" y2="117.69"/><line class="cls-2" x1="104.55" y1="114.69" x2="104.55" y2="117.69"/><line class="cls-2" x1="91.55" y1="114.69" x2="91.55" y2="117.69"/><line class="cls-2" x1="92.55" y1="114.69" x2="92.55" y2="117.69"/><line class="cls-2" x1="93.55" y1="114.69" x2="93.55" y2="117.69"/><line class="cls-2" x1="94.55" y1="114.69" x2="94.55" y2="117.69"/><line class="cls-2" x1="82.72" y1="126.55" x2="85.72" y2="126.55"/><line class="cls-2" x1="82.72" y1="125.55" x2="85.72" y2="125.55"/><line class="cls-2" x1="82.72" y1="124.55" x2="85.72" y2="124.55"/><line class="cls-2" x1="82.72" y1="123.55" x2="85.72" y2="123.55"/><line class="cls-2" x1="82.72" y1="120.55" x2="85.72" y2="120.55"/><line class="cls-2" x1="82.72" y1="119.55" x2="85.72" y2="119.55"/><line class="cls-2" x1="106.4" y1="120.55" x2="109.4" y2="120.55"/><line class="cls-2" x1="106.4" y1="119.55" x2="109.4" y2="119.55"/><line class="cls-2" x1="82.69" y1="132.52" x2="85.69" y2="132.52"/><line class="cls-2" x1="82.69" y1="135.52" x2="85.69" y2="135.52"/><line class="cls-2" x1="82.69" y1="136.52" x2="85.69" y2="136.52"/><line class="cls-2" x1="106.38" y1="135.52" x2="109.38" y2="135.52"/><line class="cls-2" x1="106.38" y1="136.52" x2="109.38" y2="136.52"/><line class="cls-2" x1="82.69" y1="131.52" x2="85.69" y2="131.52"/><line class="cls-2" x1="82.69" y1="130.52" x2="85.69" y2="130.52"/><line class="cls-2" x1="82.69" y1="129.52" x2="85.69" y2="129.52"/><line class="cls-2" x1="106.4" y1="126.55" x2="109.4" y2="126.55"/><line class="cls-2" x1="106.4" y1="125.55" x2="109.4" y2="125.55"/><line class="cls-2" x1="106.4" y1="124.55" x2="109.4" y2="124.55"/><line class="cls-2" x1="106.4" y1="123.55" x2="109.4" y2="123.55"/><line class="cls-2" x1="106.38" y1="132.52" x2="109.38" y2="132.52"/><line class="cls-2" x1="106.38" y1="131.52" x2="109.38" y2="131.52"/><line class="cls-2" x1="106.38" y1="130.52" x2="109.38" y2="130.52"/><line class="cls-2" x1="106.38" y1="129.52" x2="109.38" y2="129.52"/><line class="cls-2" x1="97.55" y1="114.69" x2="97.55" y2="117.69"/><line class="cls-2" x1="98.55" y1="114.69" x2="98.55" y2="117.69"/><line class="cls-2" x1="99.55" y1="114.69" x2="99.55" y2="117.69"/><line class="cls-2" x1="100.55" y1="114.69" x2="100.55" y2="117.69"/><rect class="cls-1" x="38.22" y="118.03" width="20" height="20" rx="2.5" ry="2.5"/><rect class="cls-2" x="47.97" y="138.36" width="0.5" height="3"/><rect class="cls-2" x="53.97" y="138.36" width="0.5" height="3"/><rect class="cls-2" x="41.97" y="138.36" width="0.5" height="3"/><rect class="cls-2" x="92.09" y="126.5" width="0.5" height="3" transform="translate(164.39 35.71) rotate(90)"/><rect class="cls-2" x="92.09" y="132.5" width="0.5" height="3" transform="translate(170.39 41.71) rotate(90)"/><rect class="cls-2" x="92.09" y="120.5" width="0.5" height="3" transform="translate(158.39 29.71) rotate(90)"/><rect class="cls-2" x="115.76" y="126.5" width="0.5" height="3" transform="translate(188.06 12.04) rotate(90)"/><rect class="cls-2" x="115.76" y="132.5" width="0.5" height="3" transform="translate(194.06 18.04) rotate(90)"/><rect class="cls-2" x="115.76" y="120.5" width="0.5" height="3" transform="translate(182.06 6.04) rotate(90)"/><rect class="cls-2" x="47.97" y="114.69" width="0.5" height="3"/><rect class="cls-2" x="53.97" y="114.69" width="0.5" height="3"/><rect class="cls-2" x="41.97" y="114.69" width="0.5" height="3"/><line class="cls-2" x1="43.72" y1="138.37" x2="43.72" y2="141.37"/><line class="cls-2" x1="40.73" y1="138.37" x2="40.73" y2="141.37"/><line class="cls-2" x1="39.73" y1="138.37" x2="39.73" y2="141.37"/><line class="cls-2" x1="40.73" y1="114.69" x2="40.73" y2="117.69"/><line class="cls-2" x1="39.73" y1="114.69" x2="39.73" y2="117.69"/><line class="cls-2" x1="44.72" y1="138.37" x2="44.72" y2="141.37"/><line class="cls-2" x1="45.72" y1="138.37" x2="45.72" y2="141.37"/><line class="cls-2" x1="46.72" y1="138.37" x2="46.72" y2="141.37"/><line class="cls-2" x1="49.72" y1="138.37" x2="49.72" y2="141.37"/><line class="cls-2" x1="50.72" y1="138.37" x2="50.72" y2="141.37"/><line class="cls-2" x1="51.72" y1="138.37" x2="51.72" y2="141.37"/><line class="cls-2" x1="52.72" y1="138.37" x2="52.72" y2="141.37"/><line class="cls-2" x1="55.72" y1="138.37" x2="55.72" y2="141.37"/><line class="cls-2" x1="56.72" y1="138.37" x2="56.72" y2="141.37"/><line class="cls-2" x1="55.72" y1="114.69" x2="55.72" y2="117.69"/><line class="cls-2" x1="56.72" y1="114.69" x2="56.72" y2="117.69"/><line class="cls-2" x1="43.72" y1="114.69" x2="43.72" y2="117.69"/><line class="cls-2" x1="44.72" y1="114.69" x2="44.72" y2="117.69"/><line class="cls-2" x1="45.72" y1="114.69" x2="45.72" y2="117.69"/><line class="cls-2" x1="46.72" y1="114.69" x2="46.72" y2="117.69"/><line class="cls-2" x1="34.89" y1="126.55" x2="37.89" y2="126.55"/><line class="cls-2" x1="34.89" y1="125.55" x2="37.89" y2="125.55"/><line class="cls-2" x1="34.89" y1="124.55" x2="37.89" y2="124.55"/><line class="cls-2" x1="34.89" y1="123.55" x2="37.89" y2="123.55"/><line class="cls-2" x1="34.89" y1="120.55" x2="37.89" y2="120.55"/><line class="cls-2" x1="34.89" y1="119.55" x2="37.89" y2="119.55"/><line class="cls-2" x1="58.57" y1="120.55" x2="61.57" y2="120.55"/><line class="cls-2" x1="58.57" y1="119.55" x2="61.57" y2="119.55"/><line class="cls-2" x1="34.86" y1="132.52" x2="37.86" y2="132.52"/><line class="cls-2" x1="34.86" y1="135.52" x2="37.86" y2="135.52"/><line class="cls-2" x1="34.86" y1="136.52" x2="37.86" y2="136.52"/><line class="cls-2" x1="58.55" y1="135.52" x2="61.55" y2="135.52"/><line class="cls-2" x1="58.55" y1="136.52" x2="61.55" y2="136.52"/><line class="cls-2" x1="34.86" y1="131.52" x2="37.86" y2="131.52"/><line class="cls-2" x1="34.86" y1="130.52" x2="37.86" y2="130.52"/><line class="cls-2" x1="34.86" y1="129.52" x2="37.86" y2="129.52"/><line class="cls-2" x1="58.57" y1="126.55" x2="61.57" y2="126.55"/><line class="cls-2" x1="58.57" y1="125.55" x2="61.57" y2="125.55"/><line class="cls-2" x1="58.57" y1="124.55" x2="61.57" y2="124.55"/><line class="cls-2" x1="58.57" y1="123.55" x2="61.57" y2="123.55"/><line class="cls-2" x1="58.55" y1="132.52" x2="61.55" y2="132.52"/><line class="cls-2" x1="58.55" y1="131.52" x2="61.55" y2="131.52"/><line class="cls-2" x1="58.55" y1="130.52" x2="61.55" y2="130.52"/><line class="cls-2" x1="58.55" y1="129.52" x2="61.55" y2="129.52"/><line class="cls-2" x1="49.72" y1="114.69" x2="49.72" y2="117.69"/><line class="cls-2" x1="50.72" y1="114.69" x2="50.72" y2="117.69"/><line class="cls-2" x1="51.72" y1="114.69" x2="51.72" y2="117.69"/><line class="cls-2" x1="52.72" y1="114.69" x2="52.72" y2="117.69"/><polygon class="cls-3" points="31.97 208.13 47.97 208.13 47.97 192.13 22.05 192.13 31.97 208.13"/><polygon class="cls-3" points="112.05 208.13 96.05 208.13 96.05 192.13 121.97 192.13 112.05 208.13"/><polygon class="cls-3" points="31.97 48.05 47.97 48.05 47.97 64.05 22.05 64.05 31.97 48.05"/><polygon class="cls-3" points="112.05 48.05 96.05 48.05 96.05 64.05 121.97 64.05 112.05 48.05"/><path class="cls-1" d="M64,124H57a1,1,0,0,0-1,1v6a1,1,0,0,0,1,1h7v-8Z" transform="translate(-55.95 0.05)"/><line class="cls-1" x1="0.05" y1="131.08" x2="8.05" y2="131.08"/><line class="cls-1" x1="0.05" y1="130.08" x2="8.05" y2="130.08"/><line class="cls-1" x1="0.05" y1="129.08" x2="8.05" y2="129.08"/><line class="cls-1" x1="0.05" y1="128.08" x2="8.05" y2="128.08"/><line class="cls-1" x1="0.05" y1="127.08" x2="8.05" y2="127.08"/><line class="cls-1" x1="0.05" y1="126.08" x2="8.05" y2="126.08"/><line class="cls-1" x1="0.05" y1="125.08" x2="8.05" y2="125.08"/><circle class="cls-2" cx="72.17" cy="128.16" r="2"/><circle class="cls-2" cx="72.17" cy="128.16" r="4"/><rect class="cls-2" x="71.67" y="110.55" width="1" height="30"/><path class="cls-2" d="M116.16,126.13c-1.08-.18-2.85-.52-3.92-.76L97.76,122.1c-1.08-.24-1.07-.28,0-.1l14.63,2.52c1.08.19,2.85.55,3.92.79l11,2.55c1.07.25,1.06.31,0,.13Z" transform="translate(-55.95 0.05)"/><path class="cls-2" d="M128.9,127.73c-1,.55-1,.5-.07-.11l9.43-6.25c.92-.61,2.44-1.56,3.39-2.11l12.83-7.49c1-.56,1-.52.05.09L142.11,120c-.92.6-2.45,1.54-3.41,2.09Z" transform="translate(-55.95 0.05)"/></svg>